{"glyphs":{"0":{"ha":748,"x_min":54,"x_max":694,"o":"m 190 323 q 238 113 190 189 q 378 36 287 36 q 514 104 470 36 q 558 314 558 173 q 510 523 558 452 q 370 593 462 593 q 233 526 277 593 q 190 323 190 458 m 694 329 q 603 76 694 170 q 367 -18 513 -18 q 140 68 227 -18 q 54 306 54 155 q 144 553 54 461 q 382 644 235 644 q 609 561 525 644 q 694 329 694 477 z "},"1":{"ha":435,"x_min":20,"x_max":421,"o":"m 24 564 l 20 593 q 293 637 157 613 l 299 632 q 291 387 291 513 l 291 222 q 292 77 291 132 q 311 53 293 58 l 419 25 l 421 -2 q 229 0 296 0 q 38 -2 163 0 l 35 25 l 146 53 q 164 75 163 58 q 165 197 165 130 l 165 309 q 163 551 165 446 l 24 564 z "},"2":{"ha":673,"x_min":47,"x_max":618,"o":"m 589 215 l 618 220 l 605 3 l 600 -2 q 311 0 462 0 q 52 -2 170 0 l 47 54 q 162 130 111 95 q 250 196 213 165 q 316 253 288 226 q 364 307 345 280 q 393 361 383 334 q 404 420 404 389 q 358 519 404 482 q 247 555 313 555 q 91 513 170 555 l 65 558 q 319 644 192 644 q 478 598 415 644 q 542 469 542 551 q 519 373 542 417 q 452 286 496 328 q 344 199 408 243 q 198 106 280 155 l 199 103 l 536 103 l 589 215 z "},"3":{"ha":634,"x_min":7,"x_max":593,"o":"m 142 225 q 337 288 264 238 q 410 418 410 338 q 362 522 410 482 q 241 562 315 562 q 48 511 146 562 l 20 556 q 296 644 155 644 q 473 594 401 644 q 545 461 545 543 q 323 236 545 311 l 323 233 q 522 169 450 229 q 593 22 593 109 q 444 -210 593 -118 q 14 -312 295 -302 l 7 -262 q 341 -175 230 -247 q 452 3 452 -104 q 394 136 452 87 q 234 184 336 184 q 147 176 194 184 l 142 225 z "},"4":{"ha":737,"x_min":31,"x_max":713,"o":"m 430 486 q 276 302 353 400 q 125 101 199 205 l 430 101 l 430 486 m 555 -79 q 559 -271 555 -174 q 435 -289 494 -278 l 429 -283 q 430 -90 430 -189 l 430 34 l 261 34 q 35 32 168 34 l 31 81 q 251 365 138 223 q 480 640 365 506 l 559 644 q 555 361 555 492 l 555 101 l 711 101 l 713 32 q 555 34 639 34 l 555 -79 z "},"5":{"ha":661,"x_min":61,"x_max":613,"o":"m 90 233 l 129 629 q 332 627 214 627 q 587 629 468 627 l 591 624 l 574 512 l 183 522 l 164 330 q 273 340 222 340 q 520 264 428 340 q 613 58 613 189 q 458 -211 613 -111 q 68 -312 303 -311 l 61 -262 q 362 -178 246 -255 q 479 31 479 -100 q 411 187 479 132 q 219 243 342 243 q 94 229 157 243 l 90 233 z "},"6":{"ha":751,"x_min":57,"x_max":707,"o":"m 654 897 q 340 749 445 854 q 205 490 236 644 l 207 489 q 420 578 289 578 q 624 497 541 578 q 707 290 707 416 q 616 70 707 157 q 391 -18 526 -18 q 149 90 241 -18 q 57 368 57 198 q 201 738 57 577 q 645 945 345 899 l 654 897 m 571 251 q 516 444 571 370 q 376 518 461 518 q 249 463 298 518 q 200 313 200 408 q 257 114 200 197 q 402 31 314 31 q 525 95 479 31 q 571 251 571 158 z "},"7":{"ha":671,"x_min":37,"x_max":658,"o":"m 152 -273 l 549 522 l 115 522 l 76 387 l 49 382 l 37 624 l 42 629 q 198 627 122 628 q 347 627 274 627 l 385 627 q 526 627 458 627 q 655 629 593 628 l 658 600 q 587 451 623 528 q 517 296 551 374 q 450 141 483 218 q 389 -9 418 64 q 337 -149 361 -82 q 295 -271 313 -215 l 155 -278 l 152 -273 z "},"8":{"ha":745,"x_min":50,"x_max":703,"o":"m 265 475 q 132 577 168 526 q 96 696 96 628 q 180 864 96 798 q 389 930 264 930 q 575 877 501 930 q 648 740 648 824 q 470 511 648 614 q 654 386 606 445 q 703 244 703 326 q 603 57 703 131 q 365 -18 503 -18 q 138 46 226 -18 q 50 214 50 109 q 265 475 50 372 m 313 450 q 174 231 174 371 q 228 89 174 142 q 374 37 281 37 q 516 84 458 37 q 573 206 573 131 q 521 330 573 278 q 313 450 469 382 m 420 536 q 528 720 528 614 q 484 836 528 795 q 370 877 441 877 q 252 840 298 877 q 206 738 206 802 q 256 631 206 673 q 420 536 305 588 z "},"9":{"ha":759,"x_min":58,"x_max":708,"o":"m 120 -264 q 402 -134 290 -233 q 561 140 515 -35 l 559 141 q 353 51 480 51 q 142 132 227 51 q 58 338 58 213 q 150 556 58 468 q 376 644 242 644 q 615 538 522 644 q 708 267 708 432 q 550 -119 708 39 q 130 -312 391 -278 l 120 -264 m 195 378 q 250 184 195 258 q 391 111 305 111 q 520 166 475 111 q 565 318 565 220 q 506 516 565 437 q 364 595 447 595 q 243 537 291 595 q 195 378 195 478 z "},"\u0000":{"ha":0,"x_min":0,"x_max":0,"o":""},"\r":{"ha":0,"x_min":0,"x_max":0,"o":""}," ":{"ha":349,"x_min":0,"x_max":0,"o":""},"A":{"ha":937,"x_min":-39,"x_max":948,"o":"m 511 964 l 812 134 q 843 71 829 87 q 883 46 857 54 l 947 27 l 948 -2 q 783 0 859 0 q 601 -2 706 0 l 598 27 l 663 46 q 682 57 676 51 q 688 75 688 62 q 681 110 688 88 q 661 169 673 132 l 597 351 l 270 351 l 199 170 q 176 109 184 132 q 168 74 168 87 q 175 57 168 62 q 194 47 181 51 l 257 28 l 258 -2 q 101 0 162 0 q -35 -2 40 0 l -39 27 l 30 48 q 68 73 56 56 q 95 126 80 90 l 441 954 l 511 964 m 295 412 l 574 412 l 442 786 l 295 412 z "},"B":{"ha":829,"x_min":66,"x_max":774,"o":"m 66 949 q 237 947 154 947 q 338 951 268 948 q 432 954 408 954 q 653 898 578 954 q 728 739 728 843 q 549 512 728 572 q 714 434 654 494 q 774 280 774 374 q 675 70 774 144 q 403 -4 577 -4 q 328 -2 368 -4 q 237 0 288 0 q 69 -2 155 0 l 66 27 l 150 52 q 168 73 167 57 q 169 134 169 100 q 170 208 170 168 l 170 758 q 169 821 170 793 q 168 871 169 848 q 152 894 168 888 l 68 920 l 66 949 m 301 472 l 301 60 q 348 51 321 53 q 397 49 375 49 q 569 104 510 49 q 627 266 627 160 q 568 423 627 372 q 376 474 509 474 q 301 472 338 474 m 301 526 q 387 526 343 526 q 538 574 487 526 q 589 715 589 623 q 537 854 589 812 q 385 897 484 897 q 347 896 368 897 q 301 892 326 895 l 301 526 z "},"C":{"ha":905,"x_min":67,"x_max":857,"o":"m 799 713 l 772 709 l 722 887 q 570 908 638 908 q 309 792 404 908 q 214 491 214 676 q 322 175 214 293 q 623 57 431 57 q 850 98 730 57 l 857 68 q 555 -24 724 -24 q 201 109 336 -24 q 67 461 67 243 q 215 829 67 694 q 602 965 363 965 q 836 937 716 965 l 841 932 l 799 713 z "},"D":{"ha":1043,"x_min":66,"x_max":973,"o":"m 237 0 q 69 -2 155 0 l 66 27 l 150 52 q 168 73 168 58 q 169 134 169 100 q 170 208 170 168 l 170 758 q 169 821 170 793 q 168 871 169 848 q 152 894 168 888 l 68 920 l 66 949 q 237 947 154 947 q 368 950 304 947 q 497 954 431 954 q 854 845 734 954 q 973 524 973 737 q 841 135 973 273 q 469 -4 708 -4 q 351 -2 403 -4 q 237 0 300 0 m 302 60 q 381 53 342 55 q 458 52 419 52 q 730 157 637 52 q 824 480 824 262 q 735 794 824 692 q 454 896 646 896 q 386 895 423 896 q 302 890 349 893 l 302 60 z "},"E":{"ha":806,"x_min":66,"x_max":743,"o":"m 235 947 l 399 947 q 720 949 551 947 l 724 944 l 685 734 l 658 730 l 616 886 l 302 886 l 302 513 l 364 513 q 522 515 435 513 q 545 532 539 515 l 568 624 l 605 625 q 603 485 603 530 q 605 347 603 441 l 568 344 l 544 437 q 523 455 538 454 q 363 456 435 456 l 302 456 l 302 210 q 304 61 302 134 l 629 61 l 712 233 l 743 239 l 728 3 l 723 -2 q 399 0 547 0 l 237 0 q 69 -2 155 0 l 66 27 l 150 52 q 168 73 167 57 q 169 134 169 100 q 170 208 170 168 l 170 758 q 169 821 170 793 q 168 871 169 848 q 152 894 168 888 l 68 920 l 66 949 q 235 947 154 947 z "},"F":{"ha":749,"x_min":66,"x_max":724,"o":"m 302 208 q 304 77 302 128 q 321 56 304 60 l 415 27 l 416 -2 q 237 0 318 0 q 69 -2 157 0 l 66 27 l 150 52 q 168 73 168 58 q 170 208 170 128 l 170 758 q 169 821 170 793 q 168 871 169 848 q 152 894 168 888 l 68 920 l 66 949 q 235 947 154 947 l 399 947 q 720 949 551 947 l 724 944 l 685 734 l 658 730 l 616 886 l 302 886 l 302 499 l 368 499 q 525 500 438 499 q 548 518 543 501 l 576 610 l 608 611 q 606 471 606 516 q 608 332 606 427 l 576 330 l 547 422 q 527 441 542 440 q 367 442 438 442 l 302 442 l 302 208 z "},"G":{"ha":973,"x_min":67,"x_max":938,"o":"m 802 713 l 775 709 l 728 886 q 573 908 646 908 q 309 793 404 908 q 214 476 214 678 q 317 152 214 272 q 597 31 421 31 q 713 46 656 31 l 713 227 q 712 289 713 261 q 711 340 712 317 q 695 362 711 357 l 611 389 l 610 418 q 777 416 697 416 q 935 418 859 416 l 938 389 l 864 367 q 846 346 848 361 q 845 291 846 319 q 845 230 845 262 l 845 13 l 841 8 q 587 -25 703 -25 q 208 101 349 -25 q 67 453 67 227 q 213 829 67 693 q 611 965 358 965 q 840 937 720 965 l 844 932 l 802 713 z "},"H":{"ha":1099,"x_min":66,"x_max":1032,"o":"m 302 469 l 302 208 q 304 74 302 128 q 321 51 304 56 l 397 27 l 399 -2 q 237 0 318 0 q 69 -2 157 0 l 66 27 l 150 52 q 168 73 168 58 q 170 208 170 128 l 170 758 q 168 871 170 826 q 152 894 168 888 l 68 920 l 66 949 q 235 947 154 947 q 395 949 316 947 l 399 920 l 321 897 q 304 876 304 892 q 302 761 302 827 l 302 531 l 796 531 l 796 761 q 795 876 796 827 q 777 897 794 892 l 702 920 l 701 949 q 864 947 783 947 q 1029 949 945 947 l 1032 920 l 947 894 q 930 871 931 888 q 929 758 929 826 l 929 208 q 930 73 929 128 q 949 52 931 58 l 1031 27 l 1032 -2 q 861 0 943 0 q 703 -2 781 0 l 701 27 l 777 51 q 795 74 794 56 q 796 208 796 128 l 796 469 l 302 469 z "},"I":{"ha":472,"x_min":66,"x_max":406,"o":"m 302 208 q 303 134 302 168 q 304 74 303 101 q 328 51 304 57 l 404 27 l 406 -2 q 237 0 318 0 q 69 -2 155 0 l 66 27 l 150 52 q 168 73 167 57 q 169 134 169 100 q 170 208 170 168 l 170 758 q 169 821 170 793 q 168 871 169 848 q 152 894 168 888 l 68 920 l 66 949 q 235 947 154 947 q 403 949 316 947 l 406 920 l 321 895 q 304 874 305 891 q 303 822 303 850 q 302 761 302 794 l 302 208 z "},"J":{"ha":434,"x_min":-45,"x_max":395,"o":"m 56 949 q 224 947 144 947 q 392 949 305 947 l 395 920 l 311 895 q 293 874 294 891 q 292 822 292 850 q 292 761 292 794 l 292 146 q 287 25 292 80 q 269 -72 281 -29 q 232 -148 256 -115 q 173 -208 209 -182 q 86 -254 137 -234 q -35 -290 35 -273 l -45 -256 q 66 -190 26 -226 q 127 -108 106 -154 q 154 -4 148 -62 q 159 126 159 54 l 159 758 q 159 821 159 793 q 158 871 159 848 q 142 894 157 888 l 58 920 l 56 949 z "},"K":{"ha":916,"x_min":66,"x_max":909,"o":"m 302 761 l 302 208 q 303 134 302 168 q 304 74 303 101 q 321 51 304 56 l 397 27 l 399 -2 q 237 0 318 0 q 69 -2 155 0 l 66 27 l 150 52 q 168 73 168 58 q 169 134 169 100 q 170 208 170 168 l 170 758 q 169 821 170 793 q 168 871 169 848 q 152 894 168 888 l 68 920 l 66 949 q 235 947 154 947 q 395 949 315 947 l 399 920 l 321 897 q 304 876 305 892 q 303 823 303 851 q 302 761 302 794 m 320 480 l 593 785 q 645 845 625 821 q 665 885 665 870 q 646 903 665 899 l 591 918 l 589 949 q 739 947 656 947 q 888 949 819 947 l 891 920 l 823 899 q 769 867 791 888 q 720 818 746 846 l 449 519 l 758 113 q 796 71 777 87 q 846 46 815 55 l 907 27 l 909 -2 q 764 0 852 0 q 718 0 741 0 q 670 -1 694 -1 q 545 182 646 47 l 320 480 z "},"L":{"ha":772,"x_min":66,"x_max":751,"o":"m 302 761 l 302 210 q 304 61 302 134 l 634 61 l 721 241 l 751 245 l 736 3 l 732 -2 q 408 0 557 0 l 237 0 q 69 -2 155 0 l 66 27 l 150 52 q 168 73 167 57 q 169 134 169 100 q 170 208 170 168 l 170 758 q 169 821 170 793 q 168 871 169 848 q 152 894 168 888 l 68 920 l 66 949 q 235 947 154 947 q 403 949 316 947 l 406 920 l 321 895 q 304 874 305 891 q 303 805 303 850 q 302 761 302 760 z "},"M":{"ha":1257,"x_min":50,"x_max":1191,"o":"m 938 949 q 1053 947 1002 947 q 1188 949 1103 947 l 1191 920 l 1105 894 q 1089 871 1090 888 q 1088 758 1088 826 l 1088 208 q 1089 73 1088 128 q 1108 52 1090 58 l 1190 27 l 1191 -2 q 1020 0 1101 0 q 862 -2 940 0 l 859 27 l 937 51 q 954 75 954 56 q 956 208 956 128 l 956 795 l 619 0 l 570 -5 l 231 795 l 231 208 q 233 75 231 128 q 250 51 233 56 l 326 27 l 328 -2 q 193 0 247 0 q 52 -2 140 0 l 50 27 l 133 52 q 151 73 151 58 q 153 208 153 128 l 153 758 q 151 871 153 826 q 135 894 151 888 l 51 920 l 50 949 q 188 947 137 947 q 309 949 246 947 l 624 205 l 938 949 z "},"N":{"ha":1040,"x_min":50,"x_max":1001,"o":"m 231 756 l 231 208 q 233 75 231 128 q 250 52 233 56 l 330 28 l 332 -2 q 193 0 247 0 q 52 -2 140 0 l 50 27 l 133 52 q 151 73 151 58 q 153 208 153 128 l 153 758 q 151 871 153 826 q 135 894 151 888 l 51 920 l 50 949 q 188 947 137 947 q 250 949 218 947 l 819 238 l 819 761 q 818 874 819 827 q 800 895 817 890 l 720 918 l 719 949 q 859 947 806 947 q 998 949 913 947 l 1001 920 l 916 894 q 899 871 900 888 q 898 758 898 826 l 898 0 l 841 -5 l 231 756 z "},"O":{"ha":1117,"x_min":68,"x_max":1050,"o":"m 216 486 q 306 148 216 265 q 568 30 395 30 q 820 137 739 30 q 901 472 901 243 q 814 802 901 686 q 549 917 728 917 q 295 810 374 917 q 216 486 216 703 m 1050 495 q 917 118 1050 260 q 544 -25 783 -25 q 192 107 317 -25 q 68 464 68 239 q 202 835 68 699 q 573 972 336 972 q 925 844 801 972 q 1050 495 1050 716 z "},"P":{"ha":808,"x_min":66,"x_max":762,"o":"m 302 458 q 396 450 350 450 q 561 506 505 450 q 618 677 618 562 q 564 842 618 788 q 394 897 510 897 q 302 891 349 897 l 302 458 m 302 208 q 303 135 302 168 q 304 77 303 102 q 321 56 304 61 l 415 27 l 416 -2 q 237 0 318 0 q 69 -2 155 0 l 66 27 l 150 52 q 168 73 168 58 q 169 134 169 100 q 170 208 170 168 l 170 758 q 169 821 170 793 q 168 871 169 848 q 152 894 168 888 l 68 920 l 66 949 q 237 947 154 947 q 344 949 292 947 q 439 952 396 952 q 680 889 598 952 q 762 703 762 827 q 667 476 762 557 q 403 395 573 395 q 302 401 356 395 l 302 208 z "},"Q":{"ha":1117,"x_min":68,"x_max":1088,"o":"m 1050 495 q 935 138 1050 274 q 632 -19 819 2 q 916 -176 688 -176 q 1081 -148 1008 -176 l 1088 -178 q 867 -290 948 -290 q 540 -25 611 -290 q 192 107 316 -24 q 68 464 68 238 q 202 835 68 698 q 573 972 336 972 q 925 844 801 972 q 1050 495 1050 717 m 216 486 q 306 148 216 265 q 568 30 395 30 q 820 137 739 30 q 901 472 901 243 q 814 802 901 686 q 549 917 728 917 q 295 810 374 917 q 216 486 216 703 z "},"R":{"ha":877,"x_min":66,"x_max":890,"o":"m 302 208 q 303 135 302 168 q 304 76 303 102 q 321 50 304 55 l 397 27 l 399 -2 q 237 0 318 0 q 69 -2 155 0 l 66 27 l 150 52 q 168 73 167 57 q 169 134 169 100 q 170 208 170 168 l 170 758 q 169 821 170 793 q 168 871 169 848 q 152 894 168 888 l 68 920 l 66 949 q 237 947 154 947 q 278 948 253 947 q 339 950 303 949 q 400 952 376 951 q 439 953 425 953 q 671 895 593 953 q 748 724 748 836 q 695 561 748 623 q 534 464 642 498 q 612 338 576 399 q 679 227 648 277 q 736 138 710 176 q 784 77 762 99 q 807 57 795 65 q 831 43 819 48 q 858 33 844 37 q 888 25 871 29 l 890 -5 q 808 -11 842 -11 q 760 -9 781 -11 q 722 -4 739 -8 q 693 6 706 0 q 667 23 680 13 q 612 84 639 44 q 556 174 585 123 q 496 280 528 224 q 431 391 465 337 q 413 417 420 408 q 398 432 406 427 q 378 439 389 437 q 349 442 367 441 l 302 444 l 302 208 m 302 494 q 379 492 344 492 q 551 542 496 492 q 606 699 606 592 q 553 849 606 802 q 390 897 501 897 q 349 895 371 897 q 302 891 328 894 l 302 494 z "},"S":{"ha":708,"x_min":61,"x_max":661,"o":"m 515 888 q 385 911 444 911 q 242 868 295 911 q 189 747 189 825 q 207 670 189 703 q 257 612 226 637 q 329 567 289 587 q 412 528 369 547 q 503 485 458 508 q 582 432 547 463 q 639 359 618 401 q 661 259 661 316 q 566 53 661 124 q 304 -18 471 -18 q 65 18 196 -18 l 61 24 l 94 254 l 125 259 l 172 66 q 319 38 244 38 q 477 83 420 38 q 534 210 534 127 q 515 287 534 254 q 466 343 497 319 q 396 386 435 367 q 315 425 357 406 q 222 469 267 445 q 141 524 178 492 q 83 601 105 555 q 62 708 62 647 q 154 898 62 831 q 397 965 245 965 q 622 940 505 965 l 627 935 l 587 724 l 559 719 l 515 888 z "},"T":{"ha":852,"x_min":15,"x_max":845,"o":"m 427 0 q 243 -2 344 0 l 240 27 l 340 57 q 358 78 357 62 q 359 210 359 130 l 359 886 l 120 886 l 60 706 l 33 701 l 15 944 l 20 949 q 339 947 186 947 l 520 947 q 841 949 672 947 l 845 944 l 802 706 l 775 701 l 732 886 l 492 886 l 492 210 q 494 78 492 130 q 511 57 494 62 l 612 27 l 613 -2 q 427 0 508 0 z "},"U":{"ha":1033,"x_min":43,"x_max":997,"o":"m 43 949 q 211 947 130 947 q 379 949 292 947 l 382 920 l 298 895 q 280 874 281 891 q 279 822 279 850 q 279 761 279 794 l 279 390 q 340 121 279 196 q 539 46 402 46 q 741 123 678 46 q 803 382 803 201 l 803 761 q 803 822 803 794 q 801 874 802 850 q 783 895 800 890 l 704 918 l 703 949 q 850 947 789 947 q 994 949 909 947 l 997 920 l 911 894 q 895 871 896 888 q 894 821 895 848 q 894 758 894 793 l 894 410 q 803 81 894 188 q 518 -25 713 -25 q 237 71 328 -25 q 146 369 146 167 l 146 758 q 145 821 146 793 q 144 871 145 848 q 128 894 144 888 l 44 920 l 43 949 z "},"V":{"ha":932,"x_min":-12,"x_max":968,"o":"m 425 -5 l 123 812 q 93 875 106 857 q 51 901 79 893 l -11 920 l -12 949 q 145 947 55 947 q 334 949 237 947 l 337 920 l 273 902 q 254 892 260 899 q 248 873 248 886 q 255 837 248 860 q 275 779 262 814 l 494 168 l 732 778 q 754 838 746 815 q 762 874 762 861 q 756 892 762 886 q 736 901 749 898 l 673 918 l 672 949 q 821 947 746 947 q 966 949 897 947 l 968 920 l 900 899 q 864 876 876 892 q 831 812 852 860 l 493 0 l 425 -5 z "},"W":{"ha":1416,"x_min":-4,"x_max":1436,"o":"m 949 -5 l 711 717 l 463 0 l 394 -5 l 123 827 q 98 877 112 859 q 59 901 84 894 l -3 920 l -4 949 q 153 947 62 947 q 339 949 235 947 l 342 920 l 278 902 q 258 892 264 899 q 252 872 252 885 q 258 837 252 859 q 275 779 264 814 l 459 196 l 711 948 l 772 953 l 1017 189 l 1208 778 q 1227 840 1220 817 q 1234 875 1234 863 q 1227 892 1234 887 q 1208 901 1221 898 l 1144 918 l 1143 949 q 1291 947 1216 947 q 1434 949 1364 947 l 1436 920 l 1368 899 q 1336 880 1348 892 q 1312 835 1324 867 l 1018 0 l 949 -5 z "},"X":{"ha":913,"x_min":-5,"x_max":928,"o":"m 13 949 q 190 947 87 947 q 376 949 279 947 l 378 920 l 317 903 q 297 893 303 900 q 291 877 291 886 q 304 838 291 860 q 332 794 317 817 l 479 574 l 603 770 q 635 821 613 785 q 658 875 658 857 q 631 902 658 895 l 570 918 l 569 949 q 724 947 643 947 q 873 949 804 947 l 876 920 l 807 899 q 765 874 783 891 q 722 818 748 857 l 519 515 l 783 123 q 828 64 814 77 q 865 45 843 52 l 927 27 l 928 -2 q 760 0 855 0 q 565 -2 671 0 l 562 27 l 623 43 q 644 54 637 47 q 650 71 650 60 q 637 109 650 87 q 608 153 624 130 l 425 427 l 268 177 q 232 118 248 146 q 215 72 215 90 q 221 55 215 62 q 241 45 227 48 l 301 28 l 302 -2 q 147 0 229 0 q -1 -2 75 0 l -5 27 l 64 48 q 105 73 90 56 q 144 121 121 89 l 386 484 l 152 833 q 116 880 130 866 q 76 901 102 894 l 14 920 l 13 949 z "},"Y":{"ha":824,"x_min":-31,"x_max":854,"o":"m 453 483 l 610 779 q 638 835 627 812 q 650 873 650 858 q 620 902 650 894 l 559 918 l 557 949 q 707 947 631 947 q 851 949 781 947 l 854 920 l 785 899 q 748 875 761 891 q 721 835 734 859 l 486 416 l 486 210 q 487 136 486 170 q 488 76 487 103 q 511 53 488 59 l 595 27 l 597 -2 q 422 0 502 0 q 246 -2 340 0 l 243 27 l 334 54 q 353 75 351 59 q 354 136 353 102 q 354 210 354 170 l 354 402 l 115 816 q 74 876 90 857 q 32 901 58 894 l -30 920 l -31 949 q 136 947 31 947 q 325 949 227 947 l 328 920 l 264 903 q 243 893 250 899 q 237 877 237 886 q 248 842 237 863 q 274 794 258 821 l 453 483 z "},"Z":{"ha":802,"x_min":46,"x_max":751,"o":"m 49 -2 l 46 27 l 569 886 l 169 886 l 119 724 l 92 719 l 56 944 l 61 949 q 382 947 230 947 l 542 947 q 736 949 638 947 l 739 920 l 217 61 l 630 61 l 721 244 l 751 249 l 733 3 l 729 -2 q 390 0 538 0 l 227 0 q 49 -2 132 0 z "},"À":{"ha":937,"x_min":-39,"x_max":948,"o":"m 511 964 l 812 134 q 843 71 829 87 q 883 46 857 54 l 947 27 l 948 -2 q 783 0 859 0 q 601 -2 706 0 l 598 27 l 663 46 q 682 57 676 51 q 688 75 688 62 q 681 110 688 88 q 661 169 673 132 l 597 351 l 270 351 l 199 170 q 176 109 184 132 q 168 74 168 87 q 175 57 168 62 q 194 47 181 51 l 257 28 l 258 -2 q 101 0 162 0 q -35 -2 40 0 l -39 27 l 30 48 q 68 73 56 56 q 95 126 80 90 l 441 954 l 511 964 m 295 412 l 574 412 l 442 786 l 295 412 m 303 1131 l 396 1211 l 617 1046 l 600 1015 l 303 1121 l 303 1131 m 190 949 z "},"Á":{"ha":937,"x_min":-39,"x_max":948,"o":"m 511 964 l 812 134 q 843 71 829 87 q 883 46 857 54 l 947 27 l 948 -2 q 783 0 859 0 q 601 -2 706 0 l 598 27 l 663 46 q 682 57 676 51 q 688 75 688 62 q 681 110 688 88 q 661 169 673 132 l 597 351 l 270 351 l 199 170 q 176 109 184 132 q 168 74 168 87 q 175 57 168 62 q 194 47 181 51 l 257 28 l 258 -2 q 101 0 162 0 q -35 -2 40 0 l -39 27 l 30 48 q 68 73 56 56 q 95 126 80 90 l 441 954 l 511 964 m 295 412 l 574 412 l 442 786 l 295 412 m 638 1121 l 342 1015 l 324 1046 l 545 1211 l 638 1131 l 638 1121 m 190 949 z "},"Â":{"ha":937,"x_min":-39,"x_max":948,"o":"m 511 964 l 812 134 q 843 71 829 87 q 883 46 857 54 l 947 27 l 948 -2 q 783 0 859 0 q 601 -2 706 0 l 598 27 l 663 46 q 682 57 676 51 q 688 75 688 62 q 681 110 688 88 q 661 169 673 132 l 597 351 l 270 351 l 199 170 q 176 109 184 132 q 168 74 168 87 q 175 57 168 62 q 194 47 181 51 l 257 28 l 258 -2 q 101 0 162 0 q -35 -2 40 0 l -39 27 l 30 48 q 68 73 56 56 q 95 126 80 90 l 441 954 l 511 964 m 295 412 l 574 412 l 442 786 l 295 412 m 505 1200 l 699 1038 l 681 1007 l 475 1099 l 268 1007 l 250 1038 l 444 1200 l 505 1200 m 190 949 z "},"Ã":{"ha":937,"x_min":-39,"x_max":948,"o":"m 511 964 l 812 134 q 843 71 829 87 q 883 46 857 54 l 947 27 l 948 -2 q 783 0 859 0 q 601 -2 706 0 l 598 27 l 663 46 q 682 57 676 51 q 688 75 688 62 q 681 110 688 88 q 661 169 673 132 l 597 351 l 270 351 l 199 170 q 176 109 184 132 q 168 74 168 87 q 175 57 168 62 q 194 47 181 51 l 257 28 l 258 -2 q 101 0 162 0 q -35 -2 40 0 l -39 27 l 30 48 q 68 73 56 56 q 95 126 80 90 l 441 954 l 511 964 m 295 412 l 574 412 l 442 786 l 295 412 m 703 1169 q 551 1034 625 1034 q 505 1044 526 1034 q 458 1069 484 1054 q 418 1092 433 1083 q 385 1100 402 1100 q 350 1088 366 1100 q 294 1035 333 1077 l 260 1061 q 340 1164 307 1134 q 410 1194 373 1194 q 448 1187 431 1194 q 498 1161 465 1180 q 544 1136 528 1145 q 577 1128 559 1128 q 613 1139 598 1128 q 667 1193 629 1149 l 703 1169 m 190 949 z "},"Ä":{"ha":937,"x_min":-39,"x_max":948,"o":"m 511 964 l 812 134 q 843 71 829 87 q 883 46 857 54 l 947 27 l 948 -2 q 783 0 859 0 q 601 -2 706 0 l 598 27 l 663 46 q 682 57 676 51 q 688 75 688 62 q 681 110 688 88 q 661 169 673 132 l 597 351 l 270 351 l 199 170 q 176 109 184 132 q 168 74 168 87 q 175 57 168 62 q 194 47 181 51 l 257 28 l 258 -2 q 101 0 162 0 q -35 -2 40 0 l -39 27 l 30 48 q 68 73 56 56 q 95 126 80 90 l 441 954 l 511 964 m 295 412 l 574 412 l 442 786 l 295 412 m 407 1109 q 386 1052 407 1074 q 330 1031 364 1031 q 278 1051 298 1031 q 258 1103 258 1071 q 279 1160 258 1139 q 335 1180 300 1180 q 387 1161 367 1180 q 407 1109 407 1143 m 692 1109 q 670 1052 692 1074 q 615 1031 649 1031 q 563 1051 583 1031 q 543 1103 543 1071 q 564 1160 543 1139 q 620 1180 585 1180 q 672 1161 652 1180 q 692 1109 692 1143 m 190 949 z "},"Ā":{"ha":937,"x_min":-39,"x_max":948,"o":"m 511 964 l 812 134 q 843 71 829 87 q 883 46 857 54 l 947 27 l 948 -2 q 783 0 859 0 q 601 -2 706 0 l 598 27 l 663 46 q 682 57 676 51 q 688 75 688 62 q 681 110 688 88 q 661 169 673 132 l 597 351 l 270 351 l 199 170 q 176 109 184 132 q 168 74 168 87 q 175 57 168 62 q 194 47 181 51 l 257 28 l 258 -2 q 101 0 162 0 q -35 -2 40 0 l -39 27 l 30 48 q 68 73 56 56 q 95 126 80 90 l 441 954 l 511 964 m 295 412 l 574 412 l 442 786 l 295 412 m 298 1056 l 298 1130 l 650 1130 l 650 1056 l 298 1056 m 190 949 z "},"Ă":{"ha":937,"x_min":-39,"x_max":948,"o":"m 511 964 l 812 134 q 843 71 829 87 q 883 46 857 54 l 947 27 l 948 -2 q 783 0 859 0 q 601 -2 706 0 l 598 27 l 663 46 q 682 57 676 51 q 688 75 688 62 q 681 110 688 88 q 661 169 673 132 l 597 351 l 270 351 l 199 170 q 176 109 184 132 q 168 74 168 87 q 175 57 168 62 q 194 47 181 51 l 257 28 l 258 -2 q 101 0 162 0 q -35 -2 40 0 l -39 27 l 30 48 q 68 73 56 56 q 95 126 80 90 l 441 954 l 511 964 m 295 412 l 574 412 l 442 786 l 295 412 m 328 1230 q 377 1144 338 1176 q 477 1113 416 1113 q 576 1144 538 1113 q 628 1224 614 1175 l 671 1229 q 619 1081 671 1141 q 472 1022 566 1022 q 334 1076 384 1022 q 283 1225 283 1130 l 328 1230 m 190 949 z "},"Å":{"ha":937,"x_min":-39,"x_max":948,"o":"m 511 964 l 812 134 q 843 71 829 87 q 883 46 857 54 l 947 27 l 948 -2 q 783 0 859 0 q 601 -2 706 0 l 598 27 l 663 46 q 682 57 676 51 q 688 75 688 62 q 681 110 688 88 q 661 169 673 132 l 597 351 l 270 351 l 199 170 q 176 109 184 132 q 168 74 168 87 q 175 57 168 62 q 194 47 181 51 l 257 28 l 258 -2 q 101 0 162 0 q -35 -2 40 0 l -39 27 l 30 48 q 68 73 56 56 q 95 126 80 90 l 441 954 l 511 964 m 295 412 l 574 412 l 442 786 l 295 412 m 471 999 q 366 1029 405 999 q 326 1116 326 1060 q 371 1210 326 1174 q 478 1245 415 1245 q 582 1212 541 1245 q 623 1123 623 1178 q 581 1033 623 1067 q 471 999 538 999 m 475 1038 q 529 1057 508 1038 q 550 1118 550 1076 q 529 1182 550 1159 q 475 1206 509 1206 q 420 1186 441 1206 q 399 1125 399 1166 q 420 1061 399 1084 q 475 1038 441 1038 m 190 949 z "},"Ǻ":{"ha":937,"x_min":-39,"x_max":948,"o":"m 511 964 l 812 134 q 843 71 829 87 q 883 46 857 54 l 947 27 l 948 -2 q 783 0 859 0 q 601 -2 706 0 l 598 27 l 663 46 q 682 57 676 51 q 688 75 688 62 q 681 110 688 88 q 661 169 673 132 l 597 351 l 270 351 l 199 170 q 176 109 184 132 q 168 74 168 87 q 175 57 168 62 q 194 47 181 51 l 257 28 l 258 -2 q 101 0 162 0 q -35 -2 40 0 l -39 27 l 30 48 q 68 73 56 56 q 95 126 80 90 l 441 954 l 511 964 m 295 412 l 574 412 l 442 786 l 295 412 m 471 989 q 369 1019 407 989 q 331 1102 331 1048 q 374 1193 331 1158 q 478 1227 417 1227 q 578 1195 538 1227 q 618 1109 618 1162 q 577 1022 618 1055 q 471 989 536 989 m 475 1027 q 527 1046 507 1027 q 547 1104 547 1064 q 527 1167 547 1144 q 475 1190 507 1190 q 422 1171 442 1190 q 403 1112 403 1152 q 423 1049 403 1072 q 475 1027 443 1027 m 638 1331 l 362 1232 l 344 1263 l 551 1416 l 638 1341 l 638 1331 z "},"Ą":{"ha":937,"x_min":-39,"x_max":948,"o":"m 751 0 q 651 -40 688 0 q 615 -140 615 -80 q 653 -238 615 -203 q 760 -272 692 -272 q 791 -271 771 -272 l 794 -297 q 652 -332 699 -332 q 542 -292 583 -332 q 501 -188 501 -252 q 664 41 501 -54 q 689 72 689 56 q 682 107 689 85 q 663 166 675 130 l 597 351 l 270 351 l 199 170 q 176 109 184 132 q 168 74 168 87 q 175 57 168 62 q 194 47 181 51 l 257 28 l 258 -2 q 101 0 162 0 q -35 -2 40 0 l -39 27 l 30 48 q 68 73 56 56 q 95 126 80 90 l 441 954 l 511 964 l 812 134 q 843 71 829 87 q 883 46 857 54 l 947 27 l 948 -2 q 783 0 859 0 l 751 0 m 295 412 l 574 412 l 442 786 l 295 412 z "},"Æ":{"ha":1247,"x_min":-46,"x_max":1183,"o":"m 533 947 l 840 947 q 1161 949 992 947 l 1165 944 l 1126 734 l 1099 730 l 1057 886 l 757 886 l 757 500 l 805 500 q 962 501 876 500 q 985 519 980 502 l 1009 610 l 1046 612 q 1044 471 1044 517 q 1046 333 1044 427 l 1009 330 l 985 423 q 964 441 979 441 q 804 443 876 443 l 757 443 l 757 210 q 758 61 757 134 l 1070 61 l 1153 233 l 1183 239 l 1168 3 l 1164 -2 q 840 0 988 0 l 692 0 q 524 -2 610 0 l 521 27 l 604 52 q 623 73 621 57 q 624 134 623 100 q 624 208 624 168 l 624 443 l 346 443 l 209 170 q 184 119 195 143 q 173 77 173 95 q 179 59 173 66 q 199 47 184 51 l 262 28 l 263 -2 q 100 0 164 0 q 33 0 70 0 q -43 -2 -5 -1 l -46 27 l 22 48 q 62 70 48 56 q 98 125 75 83 l 483 865 q 471 888 492 882 l 366 920 l 365 949 q 533 947 452 947 m 624 886 l 568 886 l 374 500 l 624 500 l 624 886 z "},"Ǽ":{"ha":1247,"x_min":-46,"x_max":1183,"o":"m 533 947 l 840 947 q 1161 949 992 947 l 1165 944 l 1126 734 l 1099 730 l 1057 886 l 757 886 l 757 500 l 805 500 q 962 501 876 500 q 985 519 980 502 l 1009 610 l 1046 612 q 1044 471 1044 517 q 1046 333 1044 427 l 1009 330 l 985 423 q 964 441 979 441 q 804 443 876 443 l 757 443 l 757 210 q 758 61 757 134 l 1070 61 l 1153 233 l 1183 239 l 1168 3 l 1164 -2 q 840 0 988 0 l 692 0 q 524 -2 610 0 l 521 27 l 604 52 q 623 73 621 57 q 624 134 623 100 q 624 208 624 168 l 624 443 l 346 443 l 209 170 q 184 119 195 143 q 173 77 173 95 q 179 59 173 66 q 199 47 184 51 l 262 28 l 263 -2 q 100 0 164 0 q 33 0 70 0 q -43 -2 -5 -1 l -46 27 l 22 48 q 62 70 48 56 q 98 125 75 83 l 483 865 q 471 888 492 882 l 366 920 l 365 949 q 533 947 452 947 m 624 886 l 568 886 l 374 500 l 624 500 l 624 886 m 943 1121 l 648 1015 l 629 1046 l 850 1211 l 943 1131 l 943 1121 m 495 949 z "},"Ć":{"ha":905,"x_min":67,"x_max":857,"o":"m 799 713 l 772 709 l 722 887 q 570 908 638 908 q 309 792 404 908 q 214 491 214 676 q 322 175 214 293 q 623 57 431 57 q 850 98 730 57 l 857 68 q 555 -24 724 -24 q 201 109 336 -24 q 67 461 67 243 q 215 829 67 694 q 602 965 363 965 q 836 937 716 965 l 841 932 l 799 713 m 733 1121 l 437 1015 l 419 1046 l 640 1211 l 733 1131 l 733 1121 m 285 949 z "},"Ĉ":{"ha":905,"x_min":67,"x_max":857,"o":"m 799 713 l 772 709 l 722 887 q 570 908 638 908 q 309 792 404 908 q 214 491 214 676 q 322 175 214 293 q 623 57 431 57 q 850 98 730 57 l 857 68 q 555 -24 724 -24 q 201 109 336 -24 q 67 461 67 243 q 215 829 67 694 q 602 965 363 965 q 836 937 716 965 l 841 932 l 799 713 m 600 1200 l 794 1038 l 776 1007 l 570 1099 l 363 1007 l 345 1038 l 539 1200 l 600 1200 m 285 949 z "},"Č":{"ha":905,"x_min":67,"x_max":857,"o":"m 799 713 l 772 709 l 722 887 q 570 908 638 908 q 309 792 404 908 q 214 491 214 676 q 322 175 214 293 q 623 57 431 57 q 850 98 730 57 l 857 68 q 555 -24 724 -24 q 201 109 336 -24 q 67 461 67 243 q 215 829 67 694 q 602 965 363 965 q 836 937 716 965 l 841 932 l 799 713 m 539 1016 l 345 1177 l 363 1208 l 570 1118 l 776 1208 l 794 1177 l 600 1016 l 539 1016 m 285 949 z "},"Ċ":{"ha":905,"x_min":67,"x_max":857,"o":"m 799 713 l 772 709 l 722 887 q 570 908 638 908 q 309 792 404 908 q 214 491 214 676 q 322 175 214 293 q 623 57 431 57 q 850 98 730 57 l 857 68 q 555 -24 724 -24 q 201 109 336 -24 q 67 461 67 243 q 215 829 67 694 q 602 965 363 965 q 836 937 716 965 l 841 932 l 799 713 m 646 1111 q 624 1053 646 1075 q 568 1031 602 1031 q 514 1052 535 1031 q 493 1105 493 1072 q 515 1163 493 1142 q 572 1184 537 1184 q 626 1165 605 1184 q 646 1111 646 1145 m 285 949 z "},"Ç":{"ha":905,"x_min":67,"x_max":857,"o":"m 436 -129 l 517 -23 q 192 119 316 -12 q 67 461 67 250 q 215 829 67 694 q 602 965 363 965 q 836 937 716 965 l 841 932 l 799 713 l 772 709 l 722 887 q 570 908 638 908 q 309 792 404 908 q 214 491 214 676 q 322 175 214 293 q 623 57 431 57 q 850 98 730 57 l 857 68 q 576 -24 732 -18 l 538 -74 q 620 -159 620 -104 q 478 -330 620 -234 l 454 -304 q 521 -204 521 -250 q 439 -134 521 -155 l 436 -129 z "},"Ď":{"ha":1043,"x_min":66,"x_max":973,"o":"m 237 0 q 69 -2 155 0 l 66 27 l 150 52 q 168 73 168 58 q 169 134 169 100 q 170 208 170 168 l 170 758 q 169 821 170 793 q 168 871 169 848 q 152 894 168 888 l 68 920 l 66 949 q 237 947 154 947 q 368 950 304 947 q 497 954 431 954 q 854 845 734 954 q 973 524 973 737 q 841 135 973 273 q 469 -4 708 -4 q 351 -2 403 -4 q 237 0 300 0 m 302 60 q 381 53 342 55 q 458 52 419 52 q 730 157 637 52 q 824 480 824 262 q 735 794 824 692 q 454 896 646 896 q 386 895 423 896 q 302 890 349 893 l 302 60 m 461 1016 l 267 1177 l 285 1208 l 492 1118 l 698 1208 l 716 1177 l 522 1016 l 461 1016 m 207 949 z "},"Đ":{"ha":1043,"x_min":66,"x_max":973,"o":"m 237 0 q 69 -2 155 0 l 66 27 l 150 52 q 168 73 168 58 q 169 134 169 100 q 170 208 170 168 l 170 469 l 66 469 l 66 531 l 170 531 l 170 758 q 169 821 170 793 q 168 871 169 848 q 152 894 168 888 l 68 920 l 66 949 q 237 947 154 947 q 368 950 304 947 q 497 954 431 954 q 854 845 734 954 q 973 524 973 737 q 841 135 973 273 q 469 -4 708 -4 q 351 -2 403 -4 q 237 0 300 0 m 528 469 l 302 469 l 302 60 q 381 53 342 55 q 458 52 419 52 q 730 157 637 52 q 824 480 824 262 q 735 794 824 692 q 454 896 646 896 q 386 895 423 896 q 302 890 349 893 l 302 531 l 528 531 l 528 469 z "},"È":{"ha":806,"x_min":66,"x_max":743,"o":"m 235 947 l 399 947 q 720 949 551 947 l 724 944 l 685 734 l 658 730 l 616 886 l 302 886 l 302 513 l 364 513 q 522 515 435 513 q 545 532 539 515 l 568 624 l 605 625 q 603 485 603 530 q 605 347 603 441 l 568 344 l 544 437 q 523 455 538 454 q 363 456 435 456 l 302 456 l 302 210 q 304 61 302 134 l 629 61 l 712 233 l 743 239 l 728 3 l 723 -2 q 399 0 547 0 l 237 0 q 69 -2 155 0 l 66 27 l 150 52 q 168 73 167 57 q 169 134 169 100 q 170 208 170 168 l 170 758 q 169 821 170 793 q 168 871 169 848 q 152 894 168 888 l 68 920 l 66 949 q 235 947 154 947 m 249 1131 l 342 1211 l 563 1046 l 545 1015 l 249 1121 l 249 1131 m 136 949 z "},"É":{"ha":806,"x_min":66,"x_max":743,"o":"m 235 947 l 399 947 q 720 949 551 947 l 724 944 l 685 734 l 658 730 l 616 886 l 302 886 l 302 513 l 364 513 q 522 515 435 513 q 545 532 539 515 l 568 624 l 605 625 q 603 485 603 530 q 605 347 603 441 l 568 344 l 544 437 q 523 455 538 454 q 363 456 435 456 l 302 456 l 302 210 q 304 61 302 134 l 629 61 l 712 233 l 743 239 l 728 3 l 723 -2 q 399 0 547 0 l 237 0 q 69 -2 155 0 l 66 27 l 150 52 q 168 73 167 57 q 169 134 169 100 q 170 208 170 168 l 170 758 q 169 821 170 793 q 168 871 169 848 q 152 894 168 888 l 68 920 l 66 949 q 235 947 154 947 m 584 1121 l 288 1015 l 270 1046 l 491 1211 l 584 1131 l 584 1121 m 136 949 z "},"Ê":{"ha":806,"x_min":66,"x_max":743,"o":"m 235 947 l 399 947 q 720 949 551 947 l 724 944 l 685 734 l 658 730 l 616 886 l 302 886 l 302 513 l 364 513 q 522 515 435 513 q 545 532 539 515 l 568 624 l 605 625 q 603 485 603 530 q 605 347 603 441 l 568 344 l 544 437 q 523 455 538 454 q 363 456 435 456 l 302 456 l 302 210 q 304 61 302 134 l 629 61 l 712 233 l 743 239 l 728 3 l 723 -2 q 399 0 547 0 l 237 0 q 69 -2 155 0 l 66 27 l 150 52 q 168 73 167 57 q 169 134 169 100 q 170 208 170 168 l 170 758 q 169 821 170 793 q 168 871 169 848 q 152 894 168 888 l 68 920 l 66 949 q 235 947 154 947 m 451 1200 l 645 1038 l 627 1007 l 420 1099 l 214 1007 l 196 1038 l 390 1200 l 451 1200 m 136 949 z "},"Ě":{"ha":806,"x_min":66,"x_max":743,"o":"m 235 947 l 399 947 q 720 949 551 947 l 724 944 l 685 734 l 658 730 l 616 886 l 302 886 l 302 513 l 364 513 q 522 515 435 513 q 545 532 539 515 l 568 624 l 605 625 q 603 485 603 530 q 605 347 603 441 l 568 344 l 544 437 q 523 455 538 454 q 363 456 435 456 l 302 456 l 302 210 q 304 61 302 134 l 629 61 l 712 233 l 743 239 l 728 3 l 723 -2 q 399 0 547 0 l 237 0 q 69 -2 155 0 l 66 27 l 150 52 q 168 73 167 57 q 169 134 169 100 q 170 208 170 168 l 170 758 q 169 821 170 793 q 168 871 169 848 q 152 894 168 888 l 68 920 l 66 949 q 235 947 154 947 m 390 1016 l 196 1177 l 214 1208 l 420 1118 l 627 1208 l 645 1177 l 451 1016 l 390 1016 m 136 949 z "},"Ë":{"ha":806,"x_min":66,"x_max":743,"o":"m 235 947 l 399 947 q 720 949 551 947 l 724 944 l 685 734 l 658 730 l 616 886 l 302 886 l 302 513 l 364 513 q 522 515 435 513 q 545 532 539 515 l 568 624 l 605 625 q 603 485 603 530 q 605 347 603 441 l 568 344 l 544 437 q 523 455 538 454 q 363 456 435 456 l 302 456 l 302 210 q 304 61 302 134 l 629 61 l 712 233 l 743 239 l 728 3 l 723 -2 q 399 0 547 0 l 237 0 q 69 -2 155 0 l 66 27 l 150 52 q 168 73 167 57 q 169 134 169 100 q 170 208 170 168 l 170 758 q 169 821 170 793 q 168 871 169 848 q 152 894 168 888 l 68 920 l 66 949 q 235 947 154 947 m 353 1109 q 331 1052 353 1074 q 276 1031 310 1031 q 224 1051 244 1031 q 203 1103 203 1071 q 225 1160 203 1139 q 281 1180 246 1180 q 333 1161 313 1180 q 353 1109 353 1143 m 637 1109 q 616 1052 637 1074 q 561 1031 595 1031 q 509 1051 529 1031 q 488 1103 488 1071 q 510 1160 488 1139 q 566 1180 531 1180 q 617 1161 597 1180 q 637 1109 637 1143 m 136 949 z "},"Ē":{"ha":806,"x_min":66,"x_max":743,"o":"m 235 947 l 399 947 q 720 949 551 947 l 724 944 l 685 734 l 658 730 l 616 886 l 302 886 l 302 513 l 364 513 q 522 515 435 513 q 545 532 539 515 l 568 624 l 605 625 q 603 485 603 530 q 605 347 603 441 l 568 344 l 544 437 q 523 455 538 454 q 363 456 435 456 l 302 456 l 302 210 q 304 61 302 134 l 629 61 l 712 233 l 743 239 l 728 3 l 723 -2 q 399 0 547 0 l 237 0 q 69 -2 155 0 l 66 27 l 150 52 q 168 73 167 57 q 169 134 169 100 q 170 208 170 168 l 170 758 q 169 821 170 793 q 168 871 169 848 q 152 894 168 888 l 68 920 l 66 949 q 235 947 154 947 m 244 1056 l 244 1130 l 596 1130 l 596 1056 l 244 1056 m 136 949 z "},"Ĕ":{"ha":806,"x_min":66,"x_max":743,"o":"m 235 947 l 399 947 q 720 949 551 947 l 724 944 l 685 734 l 658 730 l 616 886 l 302 886 l 302 513 l 364 513 q 522 515 435 513 q 545 532 539 515 l 568 624 l 605 625 q 603 485 603 530 q 605 347 603 441 l 568 344 l 544 437 q 523 455 538 454 q 363 456 435 456 l 302 456 l 302 210 q 304 61 302 134 l 629 61 l 712 233 l 743 239 l 728 3 l 723 -2 q 399 0 547 0 l 237 0 q 69 -2 155 0 l 66 27 l 150 52 q 168 73 167 57 q 169 134 169 100 q 170 208 170 168 l 170 758 q 169 821 170 793 q 168 871 169 848 q 152 894 168 888 l 68 920 l 66 949 q 235 947 154 947 m 274 1230 q 323 1144 284 1176 q 422 1113 361 1113 q 522 1144 484 1113 q 574 1224 559 1175 l 617 1229 q 565 1081 617 1141 q 418 1022 512 1022 q 279 1076 330 1022 q 229 1225 229 1130 l 274 1230 m 136 949 z "},"Ė":{"ha":806,"x_min":66,"x_max":743,"o":"m 235 947 l 399 947 q 720 949 551 947 l 724 944 l 685 734 l 658 730 l 616 886 l 302 886 l 302 513 l 364 513 q 522 515 435 513 q 545 532 539 515 l 568 624 l 605 625 q 603 485 603 530 q 605 347 603 441 l 568 344 l 544 437 q 523 455 538 454 q 363 456 435 456 l 302 456 l 302 210 q 304 61 302 134 l 629 61 l 712 233 l 743 239 l 728 3 l 723 -2 q 399 0 547 0 l 237 0 q 69 -2 155 0 l 66 27 l 150 52 q 168 73 167 57 q 169 134 169 100 q 170 208 170 168 l 170 758 q 169 821 170 793 q 168 871 169 848 q 152 894 168 888 l 68 920 l 66 949 q 235 947 154 947 m 497 1111 q 475 1053 497 1075 q 418 1031 453 1031 q 365 1052 386 1031 q 344 1105 344 1072 q 366 1163 344 1142 q 423 1184 388 1184 q 476 1165 456 1184 q 497 1111 497 1145 m 136 949 z "},"Ę":{"ha":806,"x_min":66,"x_max":743,"o":"m 235 947 l 399 947 q 720 949 551 947 l 724 944 l 685 734 l 658 730 l 616 886 l 302 886 l 302 513 l 364 513 q 522 515 435 513 q 545 532 539 515 l 568 624 l 605 625 q 603 485 603 530 q 605 347 603 441 l 568 344 l 544 437 q 523 455 538 454 q 363 456 435 456 l 302 456 l 302 210 q 304 61 302 134 l 629 61 l 712 233 l 743 239 l 728 3 l 723 -2 q 671 -1 696 -1 q 582 -42 617 -3 q 547 -140 547 -80 q 585 -238 547 -203 q 692 -272 623 -272 q 722 -271 703 -272 l 725 -297 q 583 -332 631 -332 q 474 -293 514 -332 q 434 -194 434 -254 q 561 -1 434 -83 l 561 0 l 237 0 q 69 -2 155 0 l 66 27 l 150 52 q 168 73 167 57 q 169 134 169 100 q 170 208 170 168 l 170 758 q 169 821 170 793 q 168 871 169 848 q 152 894 168 888 l 68 920 l 66 949 q 235 947 154 947 z "},"Ĝ":{"ha":973,"x_min":67,"x_max":938,"o":"m 802 713 l 775 709 l 728 886 q 573 908 646 908 q 309 793 404 908 q 214 476 214 678 q 317 152 214 272 q 597 31 421 31 q 713 46 656 31 l 713 227 q 712 289 713 261 q 711 340 712 317 q 695 362 711 357 l 611 389 l 610 418 q 777 416 697 416 q 935 418 859 416 l 938 389 l 864 367 q 846 346 848 361 q 845 291 846 319 q 845 230 845 262 l 845 13 l 841 8 q 587 -25 703 -25 q 208 101 349 -25 q 67 453 67 227 q 213 829 67 693 q 611 965 358 965 q 840 937 720 965 l 844 932 l 802 713 m 600 1200 l 794 1038 l 776 1007 l 570 1099 l 363 1007 l 345 1038 l 539 1200 l 600 1200 m 285 949 z "},"Ğ":{"ha":973,"x_min":67,"x_max":938,"o":"m 802 713 l 775 709 l 728 886 q 573 908 646 908 q 309 793 404 908 q 214 476 214 678 q 317 152 214 272 q 597 31 421 31 q 713 46 656 31 l 713 227 q 712 289 713 261 q 711 340 712 317 q 695 362 711 357 l 611 389 l 610 418 q 777 416 697 416 q 935 418 859 416 l 938 389 l 864 367 q 846 346 848 361 q 845 291 846 319 q 845 230 845 262 l 845 13 l 841 8 q 587 -25 703 -25 q 208 101 349 -25 q 67 453 67 227 q 213 829 67 693 q 611 965 358 965 q 840 937 720 965 l 844 932 l 802 713 m 423 1230 q 472 1144 433 1176 q 572 1113 511 1113 q 671 1144 633 1113 q 723 1224 709 1175 l 766 1229 q 714 1081 766 1141 q 567 1022 661 1022 q 429 1076 479 1022 q 378 1225 378 1130 l 423 1230 m 285 949 z "},"Ġ":{"ha":973,"x_min":67,"x_max":938,"o":"m 802 713 l 775 709 l 728 886 q 573 908 646 908 q 309 793 404 908 q 214 476 214 678 q 317 152 214 272 q 597 31 421 31 q 713 46 656 31 l 713 227 q 712 289 713 261 q 711 340 712 317 q 695 362 711 357 l 611 389 l 610 418 q 777 416 697 416 q 935 418 859 416 l 938 389 l 864 367 q 846 346 848 361 q 845 291 846 319 q 845 230 845 262 l 845 13 l 841 8 q 587 -25 703 -25 q 208 101 349 -25 q 67 453 67 227 q 213 829 67 693 q 611 965 358 965 q 840 937 720 965 l 844 932 l 802 713 m 646 1111 q 624 1053 646 1075 q 568 1031 602 1031 q 514 1052 535 1031 q 493 1105 493 1072 q 515 1163 493 1142 q 572 1184 537 1184 q 626 1165 605 1184 q 646 1111 646 1145 m 285 949 z "},"Ģ":{"ha":973,"x_min":67,"x_max":938,"o":"m 802 713 l 775 709 l 728 886 q 573 908 646 908 q 309 793 404 908 q 214 476 214 678 q 317 152 214 272 q 597 31 421 31 q 713 46 656 31 l 713 227 q 712 289 713 261 q 711 340 712 317 q 695 362 711 357 l 611 389 l 610 418 q 777 416 697 416 q 935 418 859 416 l 938 389 l 864 367 q 846 346 848 361 q 845 291 846 319 q 845 230 845 262 l 845 13 l 841 8 q 587 -25 703 -25 q 208 101 349 -25 q 67 453 67 227 q 213 829 67 693 q 611 965 358 965 q 840 937 720 965 l 844 932 l 802 713 m 480 -304 q 545 -201 545 -251 q 495 -127 545 -156 q 515 -78 495 -96 q 563 -59 534 -59 q 618 -83 597 -59 q 640 -144 640 -107 q 504 -330 640 -242 l 480 -304 z "},"Ĥ":{"ha":1099,"x_min":66,"x_max":1032,"o":"m 302 469 l 302 208 q 304 74 302 128 q 321 51 304 56 l 397 27 l 399 -2 q 237 0 318 0 q 69 -2 157 0 l 66 27 l 150 52 q 168 73 168 58 q 170 208 170 128 l 170 758 q 168 871 170 826 q 152 894 168 888 l 68 920 l 66 949 q 235 947 154 947 q 395 949 316 947 l 399 920 l 321 897 q 304 876 304 892 q 302 761 302 827 l 302 531 l 796 531 l 796 761 q 795 876 796 827 q 777 897 794 892 l 702 920 l 701 949 q 864 947 783 947 q 1029 949 945 947 l 1032 920 l 947 894 q 930 871 931 888 q 929 758 929 826 l 929 208 q 930 73 929 128 q 949 52 931 58 l 1031 27 l 1032 -2 q 861 0 943 0 q 703 -2 781 0 l 701 27 l 777 51 q 795 74 794 56 q 796 208 796 128 l 796 469 l 302 469 m 580 1200 l 774 1038 l 755 1007 l 549 1099 l 342 1007 l 325 1038 l 519 1200 l 580 1200 m 264 949 z "},"Ħ":{"ha":1099,"x_min":66,"x_max":1032,"o":"m 1032 681 l 929 681 l 929 208 q 930 73 929 128 q 949 52 931 58 l 1031 27 l 1032 -2 q 861 0 943 0 q 703 -2 781 0 l 701 27 l 777 51 q 795 74 794 56 q 796 208 796 128 l 796 462 l 302 462 l 302 208 q 304 74 302 128 q 321 51 304 56 l 397 27 l 399 -2 q 237 0 318 0 q 69 -2 157 0 l 66 27 l 150 52 q 168 73 168 58 q 170 208 170 128 l 170 681 l 66 681 l 66 741 l 170 741 l 170 758 q 168 871 170 826 q 152 894 168 888 l 68 920 l 66 949 q 235 947 154 947 q 395 949 316 947 l 399 920 l 321 897 q 304 876 304 892 q 302 761 302 827 l 302 741 l 796 741 l 796 761 q 795 876 796 827 q 777 897 794 892 l 702 920 l 701 949 q 864 947 783 947 q 1029 949 945 947 l 1032 920 l 947 894 q 930 871 931 888 q 929 758 929 826 l 929 741 l 1032 741 l 1032 681 m 796 524 l 796 681 l 302 681 l 302 524 l 796 524 z "},"Ì":{"ha":472,"x_min":-48,"x_max":406,"o":"m 302 208 q 303 134 302 168 q 304 74 303 101 q 328 51 304 57 l 404 27 l 406 -2 q 237 0 318 0 q 69 -2 155 0 l 66 27 l 150 52 q 168 73 167 57 q 169 134 169 100 q 170 208 170 168 l 170 758 q 169 821 170 793 q 168 871 169 848 q 152 894 168 888 l 68 920 l 66 949 q 235 947 154 947 q 403 949 316 947 l 406 920 l 321 895 q 304 874 305 891 q 303 822 303 850 q 302 761 302 794 l 302 208 m 65 1131 l 158 1211 l 379 1046 l 361 1015 l 65 1121 l 65 1131 m -48 949 z "},"Í":{"ha":472,"x_min":-48,"x_max":406,"o":"m 302 208 q 303 134 302 168 q 304 74 303 101 q 328 51 304 57 l 404 27 l 406 -2 q 237 0 318 0 q 69 -2 155 0 l 66 27 l 150 52 q 168 73 167 57 q 169 134 169 100 q 170 208 170 168 l 170 758 q 169 821 170 793 q 168 871 169 848 q 152 894 168 888 l 68 920 l 66 949 q 235 947 154 947 q 403 949 316 947 l 406 920 l 321 895 q 304 874 305 891 q 303 822 303 850 q 302 761 302 794 l 302 208 m 400 1121 l 104 1015 l 86 1046 l 307 1211 l 400 1131 l 400 1121 m -48 949 z "},"Î":{"ha":472,"x_min":-48,"x_max":461,"o":"m 302 208 q 303 134 302 168 q 304 74 303 101 q 328 51 304 57 l 404 27 l 406 -2 q 237 0 318 0 q 69 -2 155 0 l 66 27 l 150 52 q 168 73 167 57 q 169 134 169 100 q 170 208 170 168 l 170 758 q 169 821 170 793 q 168 871 169 848 q 152 894 168 888 l 68 920 l 66 949 q 235 947 154 947 q 403 949 316 947 l 406 920 l 321 895 q 304 874 305 891 q 303 822 303 850 q 302 761 302 794 l 302 208 m 267 1200 l 461 1038 l 443 1007 l 237 1099 l 30 1007 l 12 1038 l 206 1200 l 267 1200 m -48 949 z "},"Ĩ":{"ha":472,"x_min":-48,"x_max":465,"o":"m 302 208 q 303 134 302 168 q 304 74 303 101 q 328 51 304 57 l 404 27 l 406 -2 q 237 0 318 0 q 69 -2 155 0 l 66 27 l 150 52 q 168 73 167 57 q 169 134 169 100 q 170 208 170 168 l 170 758 q 169 821 170 793 q 168 871 169 848 q 152 894 168 888 l 68 920 l 66 949 q 235 947 154 947 q 403 949 316 947 l 406 920 l 321 895 q 304 874 305 891 q 303 822 303 850 q 302 761 302 794 l 302 208 m 465 1169 q 313 1034 387 1034 q 267 1044 288 1034 q 220 1069 245 1054 q 180 1092 195 1083 q 147 1100 164 1100 q 112 1088 128 1100 q 56 1035 95 1077 l 22 1061 q 102 1164 69 1134 q 172 1194 135 1194 q 210 1187 193 1194 q 260 1161 227 1180 q 306 1136 290 1145 q 339 1128 321 1128 q 375 1139 360 1128 q 429 1193 391 1149 l 465 1169 m -48 949 z "},"Ï":{"ha":472,"x_min":-48,"x_max":454,"o":"m 302 208 q 303 134 302 168 q 304 74 303 101 q 328 51 304 57 l 404 27 l 406 -2 q 237 0 318 0 q 69 -2 155 0 l 66 27 l 150 52 q 168 73 167 57 q 169 134 169 100 q 170 208 170 168 l 170 758 q 169 821 170 793 q 168 871 169 848 q 152 894 168 888 l 68 920 l 66 949 q 235 947 154 947 q 403 949 316 947 l 406 920 l 321 895 q 304 874 305 891 q 303 822 303 850 q 302 761 302 794 l 302 208 m 169 1109 q 148 1052 169 1074 q 92 1031 126 1031 q 40 1051 60 1031 q 20 1103 20 1071 q 41 1160 20 1139 q 97 1180 62 1180 q 149 1161 129 1180 q 169 1109 169 1143 m 454 1109 q 432 1052 454 1074 q 377 1031 411 1031 q 325 1051 345 1031 q 304 1103 304 1071 q 326 1160 304 1139 q 382 1180 347 1180 q 434 1161 414 1180 q 454 1109 454 1143 m -48 949 z "},"Ī":{"ha":472,"x_min":-48,"x_max":412,"o":"m 302 208 q 303 134 302 168 q 304 74 303 101 q 328 51 304 57 l 404 27 l 406 -2 q 237 0 318 0 q 69 -2 155 0 l 66 27 l 150 52 q 168 73 167 57 q 169 134 169 100 q 170 208 170 168 l 170 758 q 169 821 170 793 q 168 871 169 848 q 152 894 168 888 l 68 920 l 66 949 q 235 947 154 947 q 403 949 316 947 l 406 920 l 321 895 q 304 874 305 891 q 303 822 303 850 q 302 761 302 794 l 302 208 m 60 1056 l 60 1130 l 412 1130 l 412 1056 l 60 1056 m -48 949 z "},"Ĭ":{"ha":472,"x_min":-48,"x_max":433,"o":"m 302 208 q 303 134 302 168 q 304 74 303 101 q 328 51 304 57 l 404 27 l 406 -2 q 237 0 318 0 q 69 -2 155 0 l 66 27 l 150 52 q 168 73 167 57 q 169 134 169 100 q 170 208 170 168 l 170 758 q 169 821 170 793 q 168 871 169 848 q 152 894 168 888 l 68 920 l 66 949 q 235 947 154 947 q 403 949 316 947 l 406 920 l 321 895 q 304 874 305 891 q 303 822 303 850 q 302 761 302 794 l 302 208 m 90 1230 q 139 1144 100 1176 q 239 1113 178 1113 q 338 1144 300 1113 q 390 1224 376 1175 l 433 1229 q 381 1081 433 1141 q 234 1022 328 1022 q 96 1076 146 1022 q 45 1225 45 1130 l 90 1230 m -48 949 z "},"İ":{"ha":472,"x_min":-48,"x_max":406,"o":"m 302 208 q 303 134 302 168 q 304 74 303 101 q 328 51 304 57 l 404 27 l 406 -2 q 237 0 318 0 q 69 -2 155 0 l 66 27 l 150 52 q 168 73 167 57 q 169 134 169 100 q 170 208 170 168 l 170 758 q 169 821 170 793 q 168 871 169 848 q 152 894 168 888 l 68 920 l 66 949 q 235 947 154 947 q 403 949 316 947 l 406 920 l 321 895 q 304 874 305 891 q 303 822 303 850 q 302 761 302 794 l 302 208 m 313 1111 q 291 1053 313 1075 q 235 1031 269 1031 q 181 1052 202 1031 q 160 1105 160 1072 q 182 1163 160 1142 q 239 1184 204 1184 q 293 1165 272 1184 q 313 1111 313 1145 m -48 949 z "},"Į":{"ha":469,"x_min":65,"x_max":408,"o":"m 301 208 q 301 134 301 168 q 302 74 302 101 q 326 51 303 57 l 403 27 l 404 -2 q 353 -1 378 -1 q 265 -40 300 -3 q 229 -140 229 -80 q 267 -238 229 -203 q 374 -272 305 -272 q 404 -271 385 -272 l 408 -297 q 265 -332 313 -332 q 156 -293 196 -332 q 117 -194 117 -254 q 243 -1 117 -83 l 243 0 q 68 -2 154 0 l 65 27 l 149 52 q 167 73 165 57 q 168 134 168 100 q 168 208 168 168 l 168 758 q 168 821 168 793 q 167 871 168 848 q 151 894 166 888 l 66 920 l 65 949 q 233 947 153 947 q 401 949 315 947 l 404 920 l 320 895 q 302 874 304 891 q 301 822 302 850 q 301 761 301 794 l 301 208 z "},"Ĳ":{"ha":906,"x_min":66,"x_max":867,"o":"m 302 208 q 303 134 302 168 q 304 74 303 101 q 328 51 304 57 l 404 27 l 406 -2 q 237 0 318 0 q 69 -2 155 0 l 66 27 l 150 52 q 168 73 167 57 q 169 134 169 100 q 170 208 170 168 l 170 758 q 169 821 170 793 q 168 871 169 848 q 152 894 168 888 l 68 920 l 66 949 q 235 947 154 947 q 403 949 316 947 l 406 920 l 321 895 q 304 874 305 891 q 303 822 303 850 q 302 761 302 794 l 302 208 m 528 949 q 696 947 616 947 q 864 949 777 947 l 867 920 l 783 895 q 765 874 766 891 q 764 822 764 850 q 764 761 764 794 l 764 146 q 759 25 764 80 q 741 -72 753 -29 q 704 -148 728 -115 q 645 -208 681 -182 q 558 -254 609 -234 q 437 -290 507 -273 l 427 -256 q 538 -190 498 -226 q 599 -108 578 -154 q 626 -4 620 -62 q 631 126 631 54 l 631 758 q 631 821 631 793 q 630 871 631 848 q 614 894 629 888 l 530 920 l 528 949 z "},"Ĵ":{"ha":434,"x_min":-58,"x_max":452,"o":"m 56 949 q 224 947 144 947 q 392 949 305 947 l 395 920 l 311 895 q 293 874 294 891 q 292 822 292 850 q 292 761 292 794 l 292 146 q 287 25 292 80 q 269 -72 281 -29 q 232 -148 256 -115 q 173 -208 209 -182 q 86 -254 137 -234 q -35 -290 35 -273 l -45 -256 q 66 -190 26 -226 q 127 -108 106 -154 q 154 -4 148 -62 q 159 126 159 54 l 159 758 q 159 821 159 793 q 158 871 159 848 q 142 894 157 888 l 58 920 l 56 949 m 258 1200 l 452 1038 l 433 1007 l 227 1099 l 20 1007 l 3 1038 l 197 1200 l 258 1200 m -58 949 z "},"Ķ":{"ha":916,"x_min":66,"x_max":909,"o":"m 302 761 l 302 208 q 303 134 302 168 q 304 74 303 101 q 321 51 304 56 l 397 27 l 399 -2 q 237 0 318 0 q 69 -2 155 0 l 66 27 l 150 52 q 168 73 168 58 q 169 134 169 100 q 170 208 170 168 l 170 758 q 169 821 170 793 q 168 871 169 848 q 152 894 168 888 l 68 920 l 66 949 q 235 947 154 947 q 395 949 315 947 l 399 920 l 321 897 q 304 876 305 892 q 303 823 303 851 q 302 761 302 794 m 320 480 l 593 785 q 645 845 625 821 q 665 885 665 870 q 646 903 665 899 l 591 918 l 589 949 q 739 947 656 947 q 888 949 819 947 l 891 920 l 823 899 q 769 867 791 888 q 720 818 746 846 l 449 519 l 758 113 q 796 71 777 87 q 846 46 815 55 l 907 27 l 909 -2 q 764 0 852 0 q 718 0 741 0 q 670 -1 694 -1 q 545 182 646 47 l 320 480 m 406 -304 q 471 -201 471 -251 q 420 -127 471 -156 q 440 -78 420 -96 q 488 -59 460 -59 q 544 -83 522 -59 q 565 -144 565 -107 q 429 -330 565 -242 l 406 -304 z "},"Ĺ":{"ha":772,"x_min":-48,"x_max":751,"o":"m 302 761 l 302 210 q 304 61 302 134 l 634 61 l 721 241 l 751 245 l 736 3 l 732 -2 q 408 0 557 0 l 237 0 q 69 -2 155 0 l 66 27 l 150 52 q 168 73 167 57 q 169 134 169 100 q 170 208 170 168 l 170 758 q 169 821 170 793 q 168 871 169 848 q 152 894 168 888 l 68 920 l 66 949 q 235 947 154 947 q 403 949 316 947 l 406 920 l 321 895 q 304 874 305 891 q 303 805 303 850 q 302 761 302 760 m 400 1121 l 104 1015 l 86 1046 l 307 1211 l 400 1131 l 400 1121 m -48 949 z "},"Ľ":{"ha":772,"x_min":66,"x_max":751,"o":"m 302 761 l 302 210 q 304 61 302 134 l 634 61 l 721 241 l 751 245 l 736 3 l 732 -2 q 408 0 557 0 l 237 0 q 69 -2 155 0 l 66 27 l 150 52 q 168 73 167 57 q 169 134 169 100 q 170 208 170 168 l 170 758 q 169 821 170 793 q 168 871 169 848 q 152 894 168 888 l 68 920 l 66 949 q 235 947 154 947 q 403 949 316 947 l 406 920 l 321 895 q 304 874 305 891 q 303 805 303 850 q 302 761 302 760 m 497 654 q 562 789 562 723 q 497 881 562 846 q 518 935 497 915 q 574 954 540 954 q 634 927 611 954 q 657 852 657 901 q 623 739 657 795 q 521 629 589 682 l 497 654 m 556 583 z "},"Ļ":{"ha":772,"x_min":66,"x_max":751,"o":"m 302 761 l 302 210 q 304 61 302 134 l 634 61 l 721 241 l 751 245 l 736 3 l 732 -2 q 408 0 557 0 l 237 0 q 69 -2 155 0 l 66 27 l 150 52 q 168 73 167 57 q 169 134 169 100 q 170 208 170 168 l 170 758 q 169 821 170 793 q 168 871 169 848 q 152 894 168 888 l 68 920 l 66 949 q 235 947 154 947 q 403 949 316 947 l 406 920 l 321 895 q 304 874 305 891 q 303 805 303 850 q 302 761 302 760 m 331 -304 q 396 -201 396 -251 q 346 -127 396 -156 q 366 -78 346 -96 q 414 -59 385 -59 q 469 -83 448 -59 q 490 -144 490 -107 q 355 -330 490 -242 l 331 -304 z "},"Ł":{"ha":772,"x_min":62,"x_max":751,"o":"m 602 565 l 302 470 l 302 210 q 304 61 302 134 l 634 61 l 721 241 l 751 245 l 736 3 l 732 -2 q 408 0 557 0 l 237 0 q 69 -2 155 0 l 66 27 l 150 52 q 168 73 167 57 q 169 134 169 100 q 170 208 170 168 l 170 429 l 66 396 l 62 458 l 170 491 l 170 758 q 169 821 170 793 q 168 871 169 848 q 152 894 168 888 l 68 920 l 66 949 q 235 947 154 947 q 403 949 316 947 l 406 920 l 321 895 q 304 874 305 891 q 303 805 303 850 q 302 761 302 760 l 302 533 l 599 627 l 602 565 z "},"Ŀ":{"ha":772,"x_min":66,"x_max":751,"o":"m 302 761 l 302 210 q 304 61 302 134 l 634 61 l 721 241 l 751 245 l 736 3 l 732 -2 q 408 0 557 0 l 237 0 q 69 -2 155 0 l 66 27 l 150 52 q 168 73 167 57 q 169 134 169 100 q 170 208 170 168 l 170 758 q 169 821 170 793 q 168 871 169 848 q 152 894 168 888 l 68 920 l 66 949 q 235 947 154 947 q 403 949 316 947 l 406 920 l 321 895 q 304 874 305 891 q 303 805 303 850 q 302 761 302 760 m 700 493 q 677 434 700 457 q 620 412 655 412 q 565 433 586 412 q 543 488 543 454 q 566 546 543 525 q 625 568 589 568 q 679 548 659 568 q 700 493 700 529 m 337 238 z "},"Ń":{"ha":1040,"x_min":50,"x_max":1001,"o":"m 231 756 l 231 208 q 233 75 231 128 q 250 52 233 56 l 330 28 l 332 -2 q 193 0 247 0 q 52 -2 140 0 l 50 27 l 133 52 q 151 73 151 58 q 153 208 153 128 l 153 758 q 151 871 153 826 q 135 894 151 888 l 51 920 l 50 949 q 188 947 137 947 q 250 949 218 947 l 819 238 l 819 761 q 818 874 819 827 q 800 895 817 890 l 720 918 l 719 949 q 859 947 806 947 q 998 949 913 947 l 1001 920 l 916 894 q 899 871 900 888 q 898 758 898 826 l 898 0 l 841 -5 l 231 756 m 692 1121 l 397 1015 l 378 1046 l 600 1211 l 692 1131 l 692 1121 m 244 949 z "},"Ň":{"ha":1040,"x_min":50,"x_max":1001,"o":"m 231 756 l 231 208 q 233 75 231 128 q 250 52 233 56 l 330 28 l 332 -2 q 193 0 247 0 q 52 -2 140 0 l 50 27 l 133 52 q 151 73 151 58 q 153 208 153 128 l 153 758 q 151 871 153 826 q 135 894 151 888 l 51 920 l 50 949 q 188 947 137 947 q 250 949 218 947 l 819 238 l 819 761 q 818 874 819 827 q 800 895 817 890 l 720 918 l 719 949 q 859 947 806 947 q 998 949 913 947 l 1001 920 l 916 894 q 899 871 900 888 q 898 758 898 826 l 898 0 l 841 -5 l 231 756 m 498 1016 l 304 1177 l 322 1208 l 529 1118 l 735 1208 l 753 1177 l 559 1016 l 498 1016 m 244 949 z "},"Ñ":{"ha":1040,"x_min":50,"x_max":1001,"o":"m 231 756 l 231 208 q 233 75 231 128 q 250 52 233 56 l 330 28 l 332 -2 q 193 0 247 0 q 52 -2 140 0 l 50 27 l 133 52 q 151 73 151 58 q 153 208 153 128 l 153 758 q 151 871 153 826 q 135 894 151 888 l 51 920 l 50 949 q 188 947 137 947 q 250 949 218 947 l 819 238 l 819 761 q 818 874 819 827 q 800 895 817 890 l 720 918 l 719 949 q 859 947 806 947 q 998 949 913 947 l 1001 920 l 916 894 q 899 871 900 888 q 898 758 898 826 l 898 0 l 841 -5 l 231 756 m 757 1169 q 605 1034 680 1034 q 559 1044 581 1034 q 512 1069 538 1054 q 472 1092 488 1083 q 439 1100 456 1100 q 404 1088 420 1100 q 349 1035 387 1077 l 315 1061 q 394 1164 361 1134 q 464 1194 427 1194 q 502 1187 485 1194 q 552 1161 519 1180 q 598 1136 582 1145 q 631 1128 614 1128 q 668 1139 652 1128 q 721 1193 683 1149 l 757 1169 m 244 949 z "},"Ņ":{"ha":1040,"x_min":50,"x_max":1001,"o":"m 231 756 l 231 208 q 233 75 231 128 q 250 52 233 56 l 330 28 l 332 -2 q 193 0 247 0 q 52 -2 140 0 l 50 27 l 133 52 q 151 73 151 58 q 153 208 153 128 l 153 758 q 151 871 153 826 q 135 894 151 888 l 51 920 l 50 949 q 188 947 137 947 q 250 949 218 947 l 819 238 l 819 761 q 818 874 819 827 q 800 895 817 890 l 720 918 l 719 949 q 859 947 806 947 q 998 949 913 947 l 1001 920 l 916 894 q 899 871 900 888 q 898 758 898 826 l 898 0 l 841 -5 l 231 756 m 446 -304 q 511 -201 511 -251 q 461 -127 511 -156 q 481 -78 461 -96 q 529 -59 500 -59 q 584 -83 563 -59 q 606 -144 606 -107 q 470 -330 606 -242 l 446 -304 z "},"Ò":{"ha":1117,"x_min":68,"x_max":1050,"o":"m 216 486 q 306 148 216 265 q 568 30 395 30 q 820 137 739 30 q 901 472 901 243 q 814 802 901 686 q 549 917 728 917 q 295 810 374 917 q 216 486 216 703 m 1050 495 q 917 118 1050 260 q 544 -25 783 -25 q 192 107 317 -25 q 68 464 68 239 q 202 835 68 699 q 573 972 336 972 q 925 844 801 972 q 1050 495 1050 716 m 387 1131 l 479 1211 l 701 1046 l 683 1015 l 387 1121 l 387 1131 m 273 949 z "},"Ó":{"ha":1117,"x_min":68,"x_max":1050,"o":"m 216 486 q 306 148 216 265 q 568 30 395 30 q 820 137 739 30 q 901 472 901 243 q 814 802 901 686 q 549 917 728 917 q 295 810 374 917 q 216 486 216 703 m 1050 495 q 917 118 1050 260 q 544 -25 783 -25 q 192 107 317 -25 q 68 464 68 239 q 202 835 68 699 q 573 972 336 972 q 925 844 801 972 q 1050 495 1050 716 m 722 1121 l 426 1015 l 408 1046 l 629 1211 l 722 1131 l 722 1121 m 273 949 z "},"Ô":{"ha":1117,"x_min":68,"x_max":1050,"o":"m 216 486 q 306 148 216 265 q 568 30 395 30 q 820 137 739 30 q 901 472 901 243 q 814 802 901 686 q 549 917 728 917 q 295 810 374 917 q 216 486 216 703 m 1050 495 q 917 118 1050 260 q 544 -25 783 -25 q 192 107 317 -25 q 68 464 68 239 q 202 835 68 699 q 573 972 336 972 q 925 844 801 972 q 1050 495 1050 716 m 589 1200 l 783 1038 l 764 1007 l 558 1099 l 351 1007 l 334 1038 l 528 1200 l 589 1200 m 273 949 z "},"Õ":{"ha":1117,"x_min":68,"x_max":1050,"o":"m 216 486 q 306 148 216 265 q 568 30 395 30 q 820 137 739 30 q 901 472 901 243 q 814 802 901 686 q 549 917 728 917 q 295 810 374 917 q 216 486 216 703 m 1050 495 q 917 118 1050 260 q 544 -25 783 -25 q 192 107 317 -25 q 68 464 68 239 q 202 835 68 699 q 573 972 336 972 q 925 844 801 972 q 1050 495 1050 716 m 786 1169 q 634 1034 709 1034 q 588 1044 610 1034 q 541 1069 567 1054 q 501 1092 517 1083 q 469 1100 486 1100 q 433 1088 450 1100 q 378 1035 416 1077 l 344 1061 q 424 1164 391 1134 q 493 1194 456 1194 q 531 1187 514 1194 q 581 1161 549 1180 q 627 1136 611 1145 q 661 1128 643 1128 q 697 1139 682 1128 q 750 1193 712 1149 l 786 1169 m 273 949 z "},"Ö":{"ha":1117,"x_min":68,"x_max":1050,"o":"m 216 486 q 306 148 216 265 q 568 30 395 30 q 820 137 739 30 q 901 472 901 243 q 814 802 901 686 q 549 917 728 917 q 295 810 374 917 q 216 486 216 703 m 1050 495 q 917 118 1050 260 q 544 -25 783 -25 q 192 107 317 -25 q 68 464 68 239 q 202 835 68 699 q 573 972 336 972 q 925 844 801 972 q 1050 495 1050 716 m 490 1109 q 469 1052 490 1074 q 414 1031 448 1031 q 361 1051 382 1031 q 341 1103 341 1071 q 362 1160 341 1139 q 418 1180 384 1180 q 470 1161 450 1180 q 490 1109 490 1143 m 775 1109 q 754 1052 775 1074 q 699 1031 732 1031 q 646 1051 667 1031 q 626 1103 626 1071 q 647 1160 626 1139 q 703 1180 669 1180 q 755 1161 735 1180 q 775 1109 775 1143 m 273 949 z "},"Ō":{"ha":1117,"x_min":68,"x_max":1050,"o":"m 216 486 q 306 148 216 265 q 568 30 395 30 q 820 137 739 30 q 901 472 901 243 q 814 802 901 686 q 549 917 728 917 q 295 810 374 917 q 216 486 216 703 m 1050 495 q 917 118 1050 260 q 544 -25 783 -25 q 192 107 317 -25 q 68 464 68 239 q 202 835 68 699 q 573 972 336 972 q 925 844 801 972 q 1050 495 1050 716 m 382 1056 l 382 1130 l 734 1130 l 734 1056 l 382 1056 m 273 949 z "},"Ŏ":{"ha":1117,"x_min":68,"x_max":1050,"o":"m 216 486 q 306 148 216 265 q 568 30 395 30 q 820 137 739 30 q 901 472 901 243 q 814 802 901 686 q 549 917 728 917 q 295 810 374 917 q 216 486 216 703 m 1050 495 q 917 118 1050 260 q 544 -25 783 -25 q 192 107 317 -25 q 68 464 68 239 q 202 835 68 699 q 573 972 336 972 q 925 844 801 972 q 1050 495 1050 716 m 412 1230 q 460 1144 422 1176 q 560 1113 499 1113 q 660 1144 622 1113 q 711 1224 697 1175 l 755 1229 q 702 1081 755 1141 q 555 1022 650 1022 q 417 1076 467 1022 q 367 1225 367 1130 l 412 1230 m 273 949 z "},"Ő":{"ha":1117,"x_min":68,"x_max":1050,"o":"m 216 486 q 306 148 216 265 q 568 30 395 30 q 820 137 739 30 q 901 472 901 243 q 814 802 901 686 q 549 917 728 917 q 295 810 374 917 q 216 486 216 703 m 1050 495 q 917 118 1050 260 q 544 -25 783 -25 q 192 107 317 -25 q 68 464 68 239 q 202 835 68 699 q 573 972 336 972 q 925 844 801 972 q 1050 495 1050 716 m 500 1207 l 625 1207 l 474 1016 l 428 1016 l 500 1207 m 700 1207 l 825 1207 l 673 1016 l 627 1016 l 700 1207 m 273 949 z "},"Ø":{"ha":1117,"x_min":68,"x_max":1050,"o":"m 1050 495 q 917 118 1050 260 q 544 -25 783 -25 q 262 47 375 -25 l 180 -61 l 135 -26 l 218 81 q 68 464 68 216 q 202 835 68 699 q 573 972 336 972 q 848 905 738 972 l 920 998 l 967 967 l 895 872 q 1050 495 1050 741 m 568 30 q 820 137 739 30 q 901 472 901 243 q 827 784 901 671 l 323 126 q 568 30 412 30 m 216 486 q 288 173 216 288 l 790 829 q 549 917 705 917 q 295 810 374 917 q 216 486 216 703 z "},"Ǿ":{"ha":1117,"x_min":68,"x_max":1050,"o":"m 1050 495 q 917 118 1050 260 q 544 -25 783 -25 q 262 47 375 -25 l 180 -61 l 135 -26 l 218 81 q 68 464 68 216 q 202 835 68 699 q 573 972 336 972 q 848 905 738 972 l 920 998 l 967 967 l 895 872 q 1050 495 1050 741 m 568 30 q 820 137 739 30 q 901 472 901 243 q 827 784 901 671 l 323 126 q 568 30 412 30 m 216 486 q 288 173 216 288 l 790 829 q 549 917 705 917 q 295 810 374 917 q 216 486 216 703 m 722 1121 l 426 1015 l 408 1046 l 629 1211 l 722 1131 l 722 1121 m 273 949 z "},"Œ":{"ha":1371,"x_min":68,"x_max":1305,"o":"m 751 947 l 962 947 q 1284 949 1115 947 l 1288 944 l 1249 741 l 1222 737 l 1182 886 l 867 886 l 867 513 l 929 513 q 1086 515 1000 513 q 1109 532 1104 515 l 1133 624 l 1170 625 q 1168 485 1168 530 q 1170 347 1168 441 l 1133 344 l 1109 437 q 1088 455 1103 454 q 928 456 1000 456 l 867 456 l 867 210 q 869 61 867 134 l 1196 61 l 1274 227 l 1305 231 l 1291 3 l 1286 -2 q 962 0 1111 0 l 728 0 q 544 -22 644 -22 q 192 109 317 -22 q 68 464 68 240 q 202 833 68 697 q 573 968 336 968 q 751 947 673 968 m 549 913 q 295 807 374 913 q 216 486 216 701 q 306 150 216 267 q 568 33 395 33 q 733 68 665 33 q 734 210 734 141 l 734 756 q 733 870 734 818 q 549 913 659 913 z "},"Ŕ":{"ha":877,"x_min":66,"x_max":890,"o":"m 302 208 q 303 135 302 168 q 304 76 303 102 q 321 50 304 55 l 397 27 l 399 -2 q 237 0 318 0 q 69 -2 155 0 l 66 27 l 150 52 q 168 73 167 57 q 169 134 169 100 q 170 208 170 168 l 170 758 q 169 821 170 793 q 168 871 169 848 q 152 894 168 888 l 68 920 l 66 949 q 237 947 154 947 q 278 948 253 947 q 339 950 303 949 q 400 952 376 951 q 439 953 425 953 q 671 895 593 953 q 748 724 748 836 q 695 561 748 623 q 534 464 642 498 q 612 338 576 399 q 679 227 648 277 q 736 138 710 176 q 784 77 762 99 q 807 57 795 65 q 831 43 819 48 q 858 33 844 37 q 888 25 871 29 l 890 -5 q 808 -11 842 -11 q 760 -9 781 -11 q 722 -4 739 -8 q 693 6 706 0 q 667 23 680 13 q 612 84 639 44 q 556 174 585 123 q 496 280 528 224 q 431 391 465 337 q 413 417 420 408 q 398 432 406 427 q 378 439 389 437 q 349 442 367 441 l 302 444 l 302 208 m 302 494 q 379 492 344 492 q 551 542 496 492 q 606 699 606 592 q 553 849 606 802 q 390 897 501 897 q 349 895 371 897 q 302 891 328 894 l 302 494 m 577 1121 l 281 1015 l 263 1046 l 484 1211 l 577 1131 l 577 1121 m 129 949 z "},"Ř":{"ha":877,"x_min":66,"x_max":890,"o":"m 302 208 q 303 135 302 168 q 304 76 303 102 q 321 50 304 55 l 397 27 l 399 -2 q 237 0 318 0 q 69 -2 155 0 l 66 27 l 150 52 q 168 73 167 57 q 169 134 169 100 q 170 208 170 168 l 170 758 q 169 821 170 793 q 168 871 169 848 q 152 894 168 888 l 68 920 l 66 949 q 237 947 154 947 q 278 948 253 947 q 339 950 303 949 q 400 952 376 951 q 439 953 425 953 q 671 895 593 953 q 748 724 748 836 q 695 561 748 623 q 534 464 642 498 q 612 338 576 399 q 679 227 648 277 q 736 138 710 176 q 784 77 762 99 q 807 57 795 65 q 831 43 819 48 q 858 33 844 37 q 888 25 871 29 l 890 -5 q 808 -11 842 -11 q 760 -9 781 -11 q 722 -4 739 -8 q 693 6 706 0 q 667 23 680 13 q 612 84 639 44 q 556 174 585 123 q 496 280 528 224 q 431 391 465 337 q 413 417 420 408 q 398 432 406 427 q 378 439 389 437 q 349 442 367 441 l 302 444 l 302 208 m 302 494 q 379 492 344 492 q 551 542 496 492 q 606 699 606 592 q 553 849 606 802 q 390 897 501 897 q 349 895 371 897 q 302 891 328 894 l 302 494 m 383 1016 l 189 1177 l 207 1208 l 414 1118 l 620 1208 l 638 1177 l 444 1016 l 383 1016 m 129 949 z "},"Ŗ":{"ha":877,"x_min":66,"x_max":890,"o":"m 302 208 q 303 135 302 168 q 304 76 303 102 q 321 50 304 55 l 397 27 l 399 -2 q 237 0 318 0 q 69 -2 155 0 l 66 27 l 150 52 q 168 73 167 57 q 169 134 169 100 q 170 208 170 168 l 170 758 q 169 821 170 793 q 168 871 169 848 q 152 894 168 888 l 68 920 l 66 949 q 237 947 154 947 q 278 948 253 947 q 339 950 303 949 q 400 952 376 951 q 439 953 425 953 q 671 895 593 953 q 748 724 748 836 q 695 561 748 623 q 534 464 642 498 q 612 338 576 399 q 679 227 648 277 q 736 138 710 176 q 784 77 762 99 q 807 57 795 65 q 831 43 819 48 q 858 33 844 37 q 888 25 871 29 l 890 -5 q 808 -11 842 -11 q 760 -9 781 -11 q 722 -4 739 -8 q 693 6 706 0 q 667 23 680 13 q 612 84 639 44 q 556 174 585 123 q 496 280 528 224 q 431 391 465 337 q 413 417 420 408 q 398 432 406 427 q 378 439 389 437 q 349 442 367 441 l 302 444 l 302 208 m 302 494 q 379 492 344 492 q 551 542 496 492 q 606 699 606 592 q 553 849 606 802 q 390 897 501 897 q 349 895 371 897 q 302 891 328 894 l 302 494 m 372 -304 q 437 -201 437 -251 q 387 -127 437 -156 q 406 -78 387 -96 q 454 -59 426 -59 q 510 -83 488 -59 q 531 -144 531 -107 q 395 -330 531 -242 l 372 -304 z "},"Ś":{"ha":708,"x_min":61,"x_max":661,"o":"m 515 888 q 385 911 444 911 q 242 868 295 911 q 189 747 189 825 q 207 670 189 703 q 257 612 226 637 q 329 567 289 587 q 412 528 369 547 q 503 485 458 508 q 582 432 547 463 q 639 359 618 401 q 661 259 661 316 q 566 53 661 124 q 304 -18 471 -18 q 65 18 196 -18 l 61 24 l 94 254 l 125 259 l 172 66 q 319 38 244 38 q 477 83 420 38 q 534 210 534 127 q 515 287 534 254 q 466 343 497 319 q 396 386 435 367 q 315 425 357 406 q 222 469 267 445 q 141 524 178 492 q 83 601 105 555 q 62 708 62 647 q 154 898 62 831 q 397 965 245 965 q 622 940 505 965 l 627 935 l 587 724 l 559 719 l 515 888 m 536 1121 l 241 1015 l 222 1046 l 444 1211 l 536 1131 l 536 1121 m 88 949 z "},"Ŝ":{"ha":708,"x_min":61,"x_max":661,"o":"m 515 888 q 385 911 444 911 q 242 868 295 911 q 189 747 189 825 q 207 670 189 703 q 257 612 226 637 q 329 567 289 587 q 412 528 369 547 q 503 485 458 508 q 582 432 547 463 q 639 359 618 401 q 661 259 661 316 q 566 53 661 124 q 304 -18 471 -18 q 65 18 196 -18 l 61 24 l 94 254 l 125 259 l 172 66 q 319 38 244 38 q 477 83 420 38 q 534 210 534 127 q 515 287 534 254 q 466 343 497 319 q 396 386 435 367 q 315 425 357 406 q 222 469 267 445 q 141 524 178 492 q 83 601 105 555 q 62 708 62 647 q 154 898 62 831 q 397 965 245 965 q 622 940 505 965 l 627 935 l 587 724 l 559 719 l 515 888 m 404 1200 l 597 1038 l 579 1007 l 373 1099 l 166 1007 l 149 1038 l 342 1200 l 404 1200 m 88 949 z "},"Š":{"ha":708,"x_min":61,"x_max":661,"o":"m 515 888 q 385 911 444 911 q 242 868 295 911 q 189 747 189 825 q 207 670 189 703 q 257 612 226 637 q 329 567 289 587 q 412 528 369 547 q 503 485 458 508 q 582 432 547 463 q 639 359 618 401 q 661 259 661 316 q 566 53 661 124 q 304 -18 471 -18 q 65 18 196 -18 l 61 24 l 94 254 l 125 259 l 172 66 q 319 38 244 38 q 477 83 420 38 q 534 210 534 127 q 515 287 534 254 q 466 343 497 319 q 396 386 435 367 q 315 425 357 406 q 222 469 267 445 q 141 524 178 492 q 83 601 105 555 q 62 708 62 647 q 154 898 62 831 q 397 965 245 965 q 622 940 505 965 l 627 935 l 587 724 l 559 719 l 515 888 m 342 1016 l 149 1177 l 166 1208 l 373 1118 l 579 1208 l 597 1177 l 404 1016 l 342 1016 m 88 949 z "},"Ş":{"ha":708,"x_min":61,"x_max":661,"o":"m 233 -129 l 318 -18 q 65 18 189 -18 l 61 24 l 94 254 l 125 259 l 172 66 q 319 38 244 38 q 477 83 420 38 q 534 210 534 127 q 515 287 534 254 q 466 343 497 319 q 396 386 435 367 q 315 425 357 406 q 222 469 267 445 q 141 524 178 492 q 83 601 105 555 q 62 708 62 647 q 154 898 62 831 q 397 965 245 965 q 622 940 505 965 l 627 935 l 587 724 l 559 719 l 515 888 q 385 911 444 911 q 242 868 295 911 q 189 747 189 825 q 207 670 189 703 q 257 612 226 637 q 329 567 289 587 q 412 528 369 547 q 503 485 458 508 q 582 432 547 463 q 639 359 618 401 q 661 259 661 316 q 585 69 661 138 q 380 -14 509 1 l 335 -74 q 416 -159 416 -104 q 275 -330 416 -234 l 251 -304 q 317 -204 317 -250 q 235 -134 317 -155 l 233 -129 z "},"Ș":{"ha":708,"x_min":61,"x_max":661,"o":"m 515 888 q 385 911 444 911 q 242 868 295 911 q 189 747 189 825 q 207 670 189 703 q 257 612 226 637 q 329 567 289 587 q 412 528 369 547 q 503 485 458 508 q 582 432 547 463 q 639 359 618 401 q 661 259 661 316 q 566 53 661 124 q 304 -18 471 -18 q 65 18 196 -18 l 61 24 l 94 254 l 125 259 l 172 66 q 319 38 244 38 q 477 83 420 38 q 534 210 534 127 q 515 287 534 254 q 466 343 497 319 q 396 386 435 367 q 315 425 357 406 q 222 469 267 445 q 141 524 178 492 q 83 601 105 555 q 62 708 62 647 q 154 898 62 831 q 397 965 245 965 q 622 940 505 965 l 627 935 l 587 724 l 559 719 l 515 888 m 250 -304 q 315 -201 315 -251 q 264 -127 315 -156 q 284 -78 264 -96 q 332 -59 304 -59 q 388 -83 366 -59 q 409 -144 409 -107 q 273 -330 409 -242 l 250 -304 z "},"Ť":{"ha":852,"x_min":15,"x_max":845,"o":"m 427 0 q 243 -2 344 0 l 240 27 l 340 57 q 358 78 357 62 q 359 210 359 130 l 359 886 l 120 886 l 60 706 l 33 701 l 15 944 l 20 949 q 339 947 186 947 l 520 947 q 841 949 672 947 l 845 944 l 802 706 l 775 701 l 732 886 l 492 886 l 492 210 q 494 78 492 130 q 511 57 494 62 l 612 27 l 613 -2 q 427 0 508 0 m 395 1016 l 201 1177 l 219 1208 l 426 1118 l 632 1208 l 650 1177 l 456 1016 l 395 1016 m 141 949 z "},"Ț":{"ha":852,"x_min":15,"x_max":845,"o":"m 427 0 q 243 -2 344 0 l 240 27 l 340 57 q 358 78 357 62 q 359 210 359 130 l 359 886 l 120 886 l 60 706 l 33 701 l 15 944 l 20 949 q 339 947 186 947 l 520 947 q 841 949 672 947 l 845 944 l 802 706 l 775 701 l 732 886 l 492 886 l 492 210 q 494 78 492 130 q 511 57 494 62 l 612 27 l 613 -2 q 427 0 508 0 m 345 -304 q 410 -201 410 -251 q 359 -127 410 -156 q 379 -78 359 -96 q 427 -59 399 -59 q 483 -83 461 -59 q 504 -144 504 -107 q 368 -330 504 -242 l 345 -304 z "},"Ŧ":{"ha":852,"x_min":15,"x_max":845,"o":"m 673 441 l 492 441 l 492 210 q 494 78 492 130 q 511 57 494 62 l 612 27 l 613 -2 q 427 0 508 0 q 243 -2 344 0 l 240 27 l 340 57 q 358 78 357 62 q 359 210 359 130 l 359 441 l 178 441 l 178 503 l 359 503 l 359 886 l 120 886 l 60 706 l 33 701 l 15 944 l 20 949 q 339 947 186 947 l 520 947 q 841 949 672 947 l 845 944 l 802 706 l 775 701 l 732 886 l 492 886 l 492 503 l 673 503 l 673 441 z "},"Ù":{"ha":1033,"x_min":43,"x_max":997,"o":"m 43 949 q 211 947 130 947 q 379 949 292 947 l 382 920 l 298 895 q 280 874 281 891 q 279 822 279 850 q 279 761 279 794 l 279 390 q 340 121 279 196 q 539 46 402 46 q 741 123 678 46 q 803 382 803 201 l 803 761 q 803 822 803 794 q 801 874 802 850 q 783 895 800 890 l 704 918 l 703 949 q 850 947 789 947 q 994 949 909 947 l 997 920 l 911 894 q 895 871 896 888 q 894 821 895 848 q 894 758 894 793 l 894 410 q 803 81 894 188 q 518 -25 713 -25 q 237 71 328 -25 q 146 369 146 167 l 146 758 q 145 821 146 793 q 144 871 145 848 q 128 894 144 888 l 44 920 l 43 949 m 361 1131 l 454 1211 l 675 1046 l 657 1015 l 361 1121 l 361 1131 m 248 949 z "},"Ú":{"ha":1033,"x_min":43,"x_max":997,"o":"m 43 949 q 211 947 130 947 q 379 949 292 947 l 382 920 l 298 895 q 280 874 281 891 q 279 822 279 850 q 279 761 279 794 l 279 390 q 340 121 279 196 q 539 46 402 46 q 741 123 678 46 q 803 382 803 201 l 803 761 q 803 822 803 794 q 801 874 802 850 q 783 895 800 890 l 704 918 l 703 949 q 850 947 789 947 q 994 949 909 947 l 997 920 l 911 894 q 895 871 896 888 q 894 821 895 848 q 894 758 894 793 l 894 410 q 803 81 894 188 q 518 -25 713 -25 q 237 71 328 -25 q 146 369 146 167 l 146 758 q 145 821 146 793 q 144 871 145 848 q 128 894 144 888 l 44 920 l 43 949 m 696 1121 l 400 1015 l 382 1046 l 603 1211 l 696 1131 l 696 1121 m 248 949 z "},"Û":{"ha":1033,"x_min":43,"x_max":997,"o":"m 43 949 q 211 947 130 947 q 379 949 292 947 l 382 920 l 298 895 q 280 874 281 891 q 279 822 279 850 q 279 761 279 794 l 279 390 q 340 121 279 196 q 539 46 402 46 q 741 123 678 46 q 803 382 803 201 l 803 761 q 803 822 803 794 q 801 874 802 850 q 783 895 800 890 l 704 918 l 703 949 q 850 947 789 947 q 994 949 909 947 l 997 920 l 911 894 q 895 871 896 888 q 894 821 895 848 q 894 758 894 793 l 894 410 q 803 81 894 188 q 518 -25 713 -25 q 237 71 328 -25 q 146 369 146 167 l 146 758 q 145 821 146 793 q 144 871 145 848 q 128 894 144 888 l 44 920 l 43 949 m 563 1200 l 757 1038 l 739 1007 l 532 1099 l 326 1007 l 308 1038 l 502 1200 l 563 1200 m 248 949 z "},"Ũ":{"ha":1033,"x_min":43,"x_max":997,"o":"m 43 949 q 211 947 130 947 q 379 949 292 947 l 382 920 l 298 895 q 280 874 281 891 q 279 822 279 850 q 279 761 279 794 l 279 390 q 340 121 279 196 q 539 46 402 46 q 741 123 678 46 q 803 382 803 201 l 803 761 q 803 822 803 794 q 801 874 802 850 q 783 895 800 890 l 704 918 l 703 949 q 850 947 789 947 q 994 949 909 947 l 997 920 l 911 894 q 895 871 896 888 q 894 821 895 848 q 894 758 894 793 l 894 410 q 803 81 894 188 q 518 -25 713 -25 q 237 71 328 -25 q 146 369 146 167 l 146 758 q 145 821 146 793 q 144 871 145 848 q 128 894 144 888 l 44 920 l 43 949 m 760 1169 q 608 1034 683 1034 q 563 1044 584 1034 q 515 1069 541 1054 q 475 1092 491 1083 q 443 1100 460 1100 q 407 1088 424 1100 q 352 1035 391 1077 l 318 1061 q 398 1164 365 1134 q 467 1194 431 1194 q 506 1187 488 1194 q 555 1161 523 1180 q 601 1136 585 1145 q 635 1128 617 1128 q 671 1139 656 1128 q 724 1193 686 1149 l 760 1169 m 248 949 z "},"Ü":{"ha":1033,"x_min":43,"x_max":997,"o":"m 43 949 q 211 947 130 947 q 379 949 292 947 l 382 920 l 298 895 q 280 874 281 891 q 279 822 279 850 q 279 761 279 794 l 279 390 q 340 121 279 196 q 539 46 402 46 q 741 123 678 46 q 803 382 803 201 l 803 761 q 803 822 803 794 q 801 874 802 850 q 783 895 800 890 l 704 918 l 703 949 q 850 947 789 947 q 994 949 909 947 l 997 920 l 911 894 q 895 871 896 888 q 894 821 895 848 q 894 758 894 793 l 894 410 q 803 81 894 188 q 518 -25 713 -25 q 237 71 328 -25 q 146 369 146 167 l 146 758 q 145 821 146 793 q 144 871 145 848 q 128 894 144 888 l 44 920 l 43 949 m 465 1109 q 443 1052 465 1074 q 388 1031 422 1031 q 336 1051 356 1031 q 315 1103 315 1071 q 337 1160 315 1139 q 393 1180 358 1180 q 445 1161 425 1180 q 465 1109 465 1143 m 749 1109 q 728 1052 749 1074 q 673 1031 707 1031 q 621 1051 641 1031 q 600 1103 600 1071 q 622 1160 600 1139 q 677 1180 643 1180 q 729 1161 709 1180 q 749 1109 749 1143 m 248 949 z "},"Ū":{"ha":1033,"x_min":43,"x_max":997,"o":"m 43 949 q 211 947 130 947 q 379 949 292 947 l 382 920 l 298 895 q 280 874 281 891 q 279 822 279 850 q 279 761 279 794 l 279 390 q 340 121 279 196 q 539 46 402 46 q 741 123 678 46 q 803 382 803 201 l 803 761 q 803 822 803 794 q 801 874 802 850 q 783 895 800 890 l 704 918 l 703 949 q 850 947 789 947 q 994 949 909 947 l 997 920 l 911 894 q 895 871 896 888 q 894 821 895 848 q 894 758 894 793 l 894 410 q 803 81 894 188 q 518 -25 713 -25 q 237 71 328 -25 q 146 369 146 167 l 146 758 q 145 821 146 793 q 144 871 145 848 q 128 894 144 888 l 44 920 l 43 949 m 356 1056 l 356 1130 l 708 1130 l 708 1056 l 356 1056 m 248 949 z "},"Ŭ":{"ha":1033,"x_min":43,"x_max":997,"o":"m 43 949 q 211 947 130 947 q 379 949 292 947 l 382 920 l 298 895 q 280 874 281 891 q 279 822 279 850 q 279 761 279 794 l 279 390 q 340 121 279 196 q 539 46 402 46 q 741 123 678 46 q 803 382 803 201 l 803 761 q 803 822 803 794 q 801 874 802 850 q 783 895 800 890 l 704 918 l 703 949 q 850 947 789 947 q 994 949 909 947 l 997 920 l 911 894 q 895 871 896 888 q 894 821 895 848 q 894 758 894 793 l 894 410 q 803 81 894 188 q 518 -25 713 -25 q 237 71 328 -25 q 146 369 146 167 l 146 758 q 145 821 146 793 q 144 871 145 848 q 128 894 144 888 l 44 920 l 43 949 m 386 1230 q 435 1144 396 1176 q 534 1113 473 1113 q 634 1144 596 1113 q 686 1224 671 1175 l 729 1229 q 676 1081 729 1141 q 530 1022 624 1022 q 391 1076 441 1022 q 341 1225 341 1130 l 386 1230 m 248 949 z "},"Ů":{"ha":1033,"x_min":43,"x_max":997,"o":"m 43 949 q 211 947 130 947 q 379 949 292 947 l 382 920 l 298 895 q 280 874 281 891 q 279 822 279 850 q 279 761 279 794 l 279 390 q 340 121 279 196 q 539 46 402 46 q 741 123 678 46 q 803 382 803 201 l 803 761 q 803 822 803 794 q 801 874 802 850 q 783 895 800 890 l 704 918 l 703 949 q 850 947 789 947 q 994 949 909 947 l 997 920 l 911 894 q 895 871 896 888 q 894 821 895 848 q 894 758 894 793 l 894 410 q 803 81 894 188 q 518 -25 713 -25 q 237 71 328 -25 q 146 369 146 167 l 146 758 q 145 821 146 793 q 144 871 145 848 q 128 894 144 888 l 44 920 l 43 949 m 529 999 q 423 1029 463 999 q 384 1116 384 1060 q 428 1210 384 1174 q 536 1245 473 1245 q 640 1212 598 1245 q 681 1123 681 1178 q 638 1033 681 1067 q 529 999 595 999 m 532 1038 q 587 1057 566 1038 q 608 1118 608 1076 q 587 1182 608 1159 q 532 1206 566 1206 q 478 1186 498 1206 q 457 1125 457 1166 q 478 1061 457 1084 q 532 1038 499 1038 m 248 949 z "},"Ű":{"ha":1033,"x_min":43,"x_max":997,"o":"m 43 949 q 211 947 130 947 q 379 949 292 947 l 382 920 l 298 895 q 280 874 281 891 q 279 822 279 850 q 279 761 279 794 l 279 390 q 340 121 279 196 q 539 46 402 46 q 741 123 678 46 q 803 382 803 201 l 803 761 q 803 822 803 794 q 801 874 802 850 q 783 895 800 890 l 704 918 l 703 949 q 850 947 789 947 q 994 949 909 947 l 997 920 l 911 894 q 895 871 896 888 q 894 821 895 848 q 894 758 894 793 l 894 410 q 803 81 894 188 q 518 -25 713 -25 q 237 71 328 -25 q 146 369 146 167 l 146 758 q 145 821 146 793 q 144 871 145 848 q 128 894 144 888 l 44 920 l 43 949 m 475 1207 l 600 1207 l 448 1016 l 402 1016 l 475 1207 m 674 1207 l 799 1207 l 648 1016 l 602 1016 l 674 1207 m 248 949 z "},"Ų":{"ha":1033,"x_min":43,"x_max":997,"o":"m 43 949 q 211 947 130 947 q 379 949 292 947 l 382 920 l 298 895 q 280 874 281 891 q 279 822 279 850 q 279 761 279 794 l 279 390 q 340 121 279 196 q 539 46 402 46 q 741 123 678 46 q 803 382 803 201 l 803 761 q 803 822 803 794 q 801 874 802 850 q 783 895 800 890 l 704 918 l 703 949 q 850 947 789 947 q 994 949 909 947 l 997 920 l 911 894 q 895 871 896 888 q 894 821 895 848 q 894 758 894 793 l 894 410 q 833 123 894 226 q 659 -7 772 21 q 597 -51 625 -16 q 570 -140 570 -85 q 609 -238 570 -203 q 715 -272 647 -272 q 746 -271 726 -272 l 749 -297 q 607 -332 654 -332 q 498 -293 538 -332 q 458 -194 458 -254 q 553 -24 458 -98 q 518 -25 535 -25 q 237 71 328 -25 q 146 369 146 167 l 146 758 q 145 821 146 793 q 144 871 145 848 q 128 894 144 888 l 44 920 l 43 949 z "},"Ẁ":{"ha":1416,"x_min":-4,"x_max":1436,"o":"m 949 -5 l 711 717 l 463 0 l 394 -5 l 123 827 q 98 877 112 859 q 59 901 84 894 l -3 920 l -4 949 q 153 947 62 947 q 339 949 235 947 l 342 920 l 278 902 q 258 892 264 899 q 252 872 252 885 q 258 837 252 859 q 275 779 264 814 l 459 196 l 711 948 l 772 953 l 1017 189 l 1208 778 q 1227 840 1220 817 q 1234 875 1234 863 q 1227 892 1234 887 q 1208 901 1221 898 l 1144 918 l 1143 949 q 1291 947 1216 947 q 1434 949 1364 947 l 1436 920 l 1368 899 q 1336 880 1348 892 q 1312 835 1324 867 l 1018 0 l 949 -5 m 561 1131 l 654 1211 l 875 1046 l 857 1015 l 561 1121 l 561 1131 m 448 949 z "},"Ẃ":{"ha":1416,"x_min":-4,"x_max":1436,"o":"m 949 -5 l 711 717 l 463 0 l 394 -5 l 123 827 q 98 877 112 859 q 59 901 84 894 l -3 920 l -4 949 q 153 947 62 947 q 339 949 235 947 l 342 920 l 278 902 q 258 892 264 899 q 252 872 252 885 q 258 837 252 859 q 275 779 264 814 l 459 196 l 711 948 l 772 953 l 1017 189 l 1208 778 q 1227 840 1220 817 q 1234 875 1234 863 q 1227 892 1234 887 q 1208 901 1221 898 l 1144 918 l 1143 949 q 1291 947 1216 947 q 1434 949 1364 947 l 1436 920 l 1368 899 q 1336 880 1348 892 q 1312 835 1324 867 l 1018 0 l 949 -5 m 896 1121 l 600 1015 l 582 1046 l 803 1211 l 896 1131 l 896 1121 m 448 949 z "},"Ŵ":{"ha":1416,"x_min":-4,"x_max":1436,"o":"m 949 -5 l 711 717 l 463 0 l 394 -5 l 123 827 q 98 877 112 859 q 59 901 84 894 l -3 920 l -4 949 q 153 947 62 947 q 339 949 235 947 l 342 920 l 278 902 q 258 892 264 899 q 252 872 252 885 q 258 837 252 859 q 275 779 264 814 l 459 196 l 711 948 l 772 953 l 1017 189 l 1208 778 q 1227 840 1220 817 q 1234 875 1234 863 q 1227 892 1234 887 q 1208 901 1221 898 l 1144 918 l 1143 949 q 1291 947 1216 947 q 1434 949 1364 947 l 1436 920 l 1368 899 q 1336 880 1348 892 q 1312 835 1324 867 l 1018 0 l 949 -5 m 763 1200 l 957 1038 l 939 1007 l 732 1099 l 526 1007 l 508 1038 l 702 1200 l 763 1200 m 448 949 z "},"Ẅ":{"ha":1416,"x_min":-4,"x_max":1436,"o":"m 949 -5 l 711 717 l 463 0 l 394 -5 l 123 827 q 98 877 112 859 q 59 901 84 894 l -3 920 l -4 949 q 153 947 62 947 q 339 949 235 947 l 342 920 l 278 902 q 258 892 264 899 q 252 872 252 885 q 258 837 252 859 q 275 779 264 814 l 459 196 l 711 948 l 772 953 l 1017 189 l 1208 778 q 1227 840 1220 817 q 1234 875 1234 863 q 1227 892 1234 887 q 1208 901 1221 898 l 1144 918 l 1143 949 q 1291 947 1216 947 q 1434 949 1364 947 l 1436 920 l 1368 899 q 1336 880 1348 892 q 1312 835 1324 867 l 1018 0 l 949 -5 m 665 1109 q 643 1052 665 1074 q 588 1031 622 1031 q 536 1051 556 1031 q 515 1103 515 1071 q 537 1160 515 1139 q 593 1180 558 1180 q 645 1161 625 1180 q 665 1109 665 1143 m 949 1109 q 928 1052 949 1074 q 873 1031 907 1031 q 821 1051 841 1031 q 800 1103 800 1071 q 822 1160 800 1139 q 878 1180 843 1180 q 929 1161 909 1180 q 949 1109 949 1143 m 448 949 z "},"Ỳ":{"ha":824,"x_min":-31,"x_max":854,"o":"m 453 483 l 610 779 q 638 835 627 812 q 650 873 650 858 q 620 902 650 894 l 559 918 l 557 949 q 707 947 631 947 q 851 949 781 947 l 854 920 l 785 899 q 748 875 761 891 q 721 835 734 859 l 486 416 l 486 210 q 487 136 486 170 q 488 76 487 103 q 511 53 488 59 l 595 27 l 597 -2 q 422 0 502 0 q 246 -2 340 0 l 243 27 l 334 54 q 353 75 351 59 q 354 136 353 102 q 354 210 354 170 l 354 402 l 115 816 q 74 876 90 857 q 32 901 58 894 l -30 920 l -31 949 q 136 947 31 947 q 325 949 227 947 l 328 920 l 264 903 q 243 893 250 899 q 237 877 237 886 q 248 842 237 863 q 274 794 258 821 l 453 483 m 269 1131 l 362 1211 l 583 1046 l 566 1015 l 269 1121 l 269 1131 m 156 949 z "},"Ý":{"ha":824,"x_min":-31,"x_max":854,"o":"m 453 483 l 610 779 q 638 835 627 812 q 650 873 650 858 q 620 902 650 894 l 559 918 l 557 949 q 707 947 631 947 q 851 949 781 947 l 854 920 l 785 899 q 748 875 761 891 q 721 835 734 859 l 486 416 l 486 210 q 487 136 486 170 q 488 76 487 103 q 511 53 488 59 l 595 27 l 597 -2 q 422 0 502 0 q 246 -2 340 0 l 243 27 l 334 54 q 353 75 351 59 q 354 136 353 102 q 354 210 354 170 l 354 402 l 115 816 q 74 876 90 857 q 32 901 58 894 l -30 920 l -31 949 q 136 947 31 947 q 325 949 227 947 l 328 920 l 264 903 q 243 893 250 899 q 237 877 237 886 q 248 842 237 863 q 274 794 258 821 l 453 483 m 604 1121 l 309 1015 l 290 1046 l 511 1211 l 604 1131 l 604 1121 m 156 949 z "},"Ŷ":{"ha":824,"x_min":-31,"x_max":854,"o":"m 453 483 l 610 779 q 638 835 627 812 q 650 873 650 858 q 620 902 650 894 l 559 918 l 557 949 q 707 947 631 947 q 851 949 781 947 l 854 920 l 785 899 q 748 875 761 891 q 721 835 734 859 l 486 416 l 486 210 q 487 136 486 170 q 488 76 487 103 q 511 53 488 59 l 595 27 l 597 -2 q 422 0 502 0 q 246 -2 340 0 l 243 27 l 334 54 q 353 75 351 59 q 354 136 353 102 q 354 210 354 170 l 354 402 l 115 816 q 74 876 90 857 q 32 901 58 894 l -30 920 l -31 949 q 136 947 31 947 q 325 949 227 947 l 328 920 l 264 903 q 243 893 250 899 q 237 877 237 886 q 248 842 237 863 q 274 794 258 821 l 453 483 m 471 1200 l 665 1038 l 647 1007 l 441 1099 l 234 1007 l 216 1038 l 410 1200 l 471 1200 m 156 949 z "},"Ÿ":{"ha":824,"x_min":-31,"x_max":854,"o":"m 453 483 l 610 779 q 638 835 627 812 q 650 873 650 858 q 620 902 650 894 l 559 918 l 557 949 q 707 947 631 947 q 851 949 781 947 l 854 920 l 785 899 q 748 875 761 891 q 721 835 734 859 l 486 416 l 486 210 q 487 136 486 170 q 488 76 487 103 q 511 53 488 59 l 595 27 l 597 -2 q 422 0 502 0 q 246 -2 340 0 l 243 27 l 334 54 q 353 75 351 59 q 354 136 353 102 q 354 210 354 170 l 354 402 l 115 816 q 74 876 90 857 q 32 901 58 894 l -30 920 l -31 949 q 136 947 31 947 q 325 949 227 947 l 328 920 l 264 903 q 243 893 250 899 q 237 877 237 886 q 248 842 237 863 q 274 794 258 821 l 453 483 m 373 1109 q 352 1052 373 1074 q 296 1031 330 1031 q 244 1051 264 1031 q 224 1103 224 1071 q 245 1160 224 1139 q 301 1180 267 1180 q 353 1161 333 1180 q 373 1109 373 1143 m 658 1109 q 636 1052 658 1074 q 581 1031 615 1031 q 529 1051 549 1031 q 509 1103 509 1071 q 530 1160 509 1139 q 586 1180 551 1180 q 638 1161 618 1180 q 658 1109 658 1143 m 156 949 z "},"Ź":{"ha":802,"x_min":46,"x_max":751,"o":"m 49 -2 l 46 27 l 569 886 l 169 886 l 119 724 l 92 719 l 56 944 l 61 949 q 382 947 230 947 l 542 947 q 736 949 638 947 l 739 920 l 217 61 l 630 61 l 721 244 l 751 249 l 733 3 l 729 -2 q 390 0 538 0 l 227 0 q 49 -2 132 0 m 564 1121 l 268 1015 l 250 1046 l 471 1211 l 564 1131 l 564 1121 m 115 949 z "},"Ž":{"ha":802,"x_min":46,"x_max":751,"o":"m 49 -2 l 46 27 l 569 886 l 169 886 l 119 724 l 92 719 l 56 944 l 61 949 q 382 947 230 947 l 542 947 q 736 949 638 947 l 739 920 l 217 61 l 630 61 l 721 244 l 751 249 l 733 3 l 729 -2 q 390 0 538 0 l 227 0 q 49 -2 132 0 m 370 1016 l 176 1177 l 193 1208 l 400 1118 l 606 1208 l 625 1177 l 431 1016 l 370 1016 m 115 949 z "},"Ż":{"ha":802,"x_min":46,"x_max":751,"o":"m 49 -2 l 46 27 l 569 886 l 169 886 l 119 724 l 92 719 l 56 944 l 61 949 q 382 947 230 947 l 542 947 q 736 949 638 947 l 739 920 l 217 61 l 630 61 l 721 244 l 751 249 l 733 3 l 729 -2 q 390 0 538 0 l 227 0 q 49 -2 132 0 m 477 1111 q 455 1053 477 1075 q 398 1031 433 1031 q 345 1052 366 1031 q 323 1105 323 1072 q 346 1163 323 1142 q 403 1184 368 1184 q 456 1165 435 1184 q 477 1111 477 1145 m 115 949 z "},"Ŋ":{"ha":1040,"x_min":50,"x_max":1001,"o":"m 231 756 l 231 208 q 232 135 231 168 q 233 75 232 102 q 250 52 233 56 l 330 28 l 332 -2 q 193 0 247 0 q 52 -2 140 0 l 50 27 l 133 52 q 151 73 151 58 q 152 135 152 102 q 153 208 153 168 l 153 758 q 152 821 153 793 q 151 871 152 848 q 135 894 151 888 l 51 920 l 50 949 q 128 947 94 948 q 188 947 162 947 q 219 947 203 947 q 250 949 234 948 l 819 238 l 819 761 q 819 822 819 794 q 818 874 819 850 q 800 895 817 890 l 720 918 l 719 949 q 797 947 762 948 q 859 947 832 947 q 921 947 886 947 q 998 949 956 948 l 1001 920 l 916 894 q 899 871 900 888 q 898 821 899 848 q 898 758 898 793 l 898 140 q 889 -65 898 -3 q 858 -176 880 -127 q 788 -256 837 -225 q 663 -287 739 -287 q 591 -280 629 -287 q 616 -148 602 -209 l 623 -144 q 724 -158 685 -158 q 793 -123 773 -158 q 820 21 814 -89 l 231 756 z "},"Ð":{"ha":1043,"x_min":66,"x_max":973,"o":"m 237 0 q 69 -2 155 0 l 66 27 l 150 52 q 168 73 168 58 q 169 134 169 100 q 170 208 170 168 l 170 469 l 66 469 l 66 531 l 170 531 l 170 758 q 169 821 170 793 q 168 871 169 848 q 152 894 168 888 l 68 920 l 66 949 q 237 947 154 947 q 368 950 304 947 q 497 954 431 954 q 854 845 734 954 q 973 524 973 737 q 841 135 973 273 q 469 -4 708 -4 q 351 -2 403 -4 q 237 0 300 0 m 528 469 l 302 469 l 302 60 q 381 53 342 55 q 458 52 419 52 q 730 157 637 52 q 824 480 824 262 q 735 794 824 692 q 454 896 646 896 q 386 895 423 896 q 302 890 349 893 l 302 531 l 528 531 l 528 469 z "},"Þ":{"ha":812,"x_min":66,"x_max":762,"o":"m 302 208 q 304 74 303 101 q 328 51 304 57 l 404 27 l 406 -2 q 237 0 318 0 q 69 -2 155 0 l 66 27 l 150 52 q 168 73 167 57 q 169 134 169 100 q 170 208 170 168 l 170 758 q 169 821 170 793 q 168 871 169 848 q 152 894 168 888 l 68 920 l 66 949 q 235 947 154 947 q 403 949 316 947 l 406 920 l 321 895 q 304 874 305 891 q 302 822 303 850 l 302 776 q 413 780 368 780 q 675 717 589 780 q 762 524 762 654 q 667 303 762 382 q 403 223 572 223 q 302 229 356 223 l 302 208 m 302 286 q 396 277 351 277 q 561 334 503 277 q 618 505 618 391 q 564 670 618 616 q 394 724 510 724 q 302 718 358 724 l 302 286 z "},"a":{"ha":667,"x_min":33,"x_max":639,"o":"m 418 307 q 216 278 270 307 q 161 180 161 249 q 197 89 161 115 q 295 62 233 62 q 417 85 365 62 l 418 307 m 90 587 q 323 644 222 644 q 485 590 427 644 q 543 433 543 536 l 539 151 q 541 96 538 117 q 553 63 543 75 q 583 48 563 52 q 635 43 602 43 l 639 16 q 568 -7 610 5 q 511 -18 526 -18 q 420 50 445 -18 q 241 -19 326 -19 q 90 27 147 -19 q 33 159 33 74 q 126 313 33 263 q 418 362 219 362 l 419 415 q 380 528 420 491 q 260 564 341 564 q 105 541 198 564 l 90 587 z "},"b":{"ha":774,"x_min":21,"x_max":720,"o":"m 244 58 q 355 40 299 40 q 527 110 469 40 q 584 310 584 180 q 531 496 584 429 q 374 562 478 562 q 244 532 308 562 l 244 58 m 248 1017 q 244 711 244 915 l 244 573 q 444 644 353 644 q 646 559 572 644 q 720 336 720 473 q 624 75 720 168 q 360 -18 529 -18 q 117 20 248 -18 q 119 242 119 106 l 119 644 q 116 924 119 794 l 24 951 l 21 974 q 241 1022 132 995 l 248 1017 z "},"c":{"ha":641,"x_min":52,"x_max":597,"o":"m 597 48 q 493 0 555 20 q 370 -19 431 -19 q 138 67 223 -19 q 52 296 52 153 q 149 548 52 451 q 400 644 246 644 q 593 604 500 644 q 553 418 571 513 l 527 414 l 472 576 q 401 587 441 587 q 243 517 300 587 q 186 330 186 446 q 251 129 186 194 q 455 64 315 64 q 593 77 519 64 l 597 48 z "},"d":{"ha":788,"x_min":52,"x_max":751,"o":"m 527 570 q 425 584 481 584 q 248 518 309 584 q 186 317 186 452 q 241 132 186 201 q 394 62 295 62 q 527 98 458 62 l 527 570 m 429 974 q 650 1022 550 997 l 656 1017 q 652 705 652 871 l 652 336 q 653 151 652 242 q 655 95 653 116 q 667 63 658 74 q 695 47 677 52 q 748 43 714 43 l 751 16 q 680 -7 722 5 q 623 -18 638 -18 q 531 59 555 -18 q 327 -19 426 -19 q 126 70 201 -19 q 52 290 52 159 q 151 550 52 458 q 430 642 251 642 q 527 633 473 642 q 524 924 527 783 l 433 951 l 429 974 z "},"e":{"ha":665,"x_min":53,"x_max":618,"o":"m 612 48 q 493 -3 554 12 q 380 -19 432 -19 q 142 66 231 -19 q 53 302 53 151 q 138 549 53 453 q 366 644 223 644 q 551 573 485 644 q 618 375 618 501 q 616 336 618 356 l 186 336 q 254 128 186 191 q 469 65 323 65 q 608 77 534 65 l 612 48 m 483 393 l 483 413 q 452 551 483 509 q 360 592 421 592 q 237 534 279 592 q 189 393 194 475 l 483 393 z "},"f":{"ha":430,"x_min":39,"x_max":574,"o":"m 261 555 l 261 186 q 262 75 261 123 q 280 52 264 56 l 366 26 l 368 -2 q 200 0 266 0 q 42 -2 133 0 l 39 26 l 115 47 q 134 70 134 54 q 136 159 136 112 l 136 558 l 43 581 l 39 610 l 136 618 l 136 621 q 219 917 136 812 q 442 1022 302 1022 q 574 1005 511 1022 q 535 835 551 922 l 507 829 l 463 965 q 423 967 447 967 q 303 897 345 967 q 261 642 261 827 l 261 619 l 430 619 l 430 555 l 261 555 z "},"g":{"ha":705,"x_min":36,"x_max":692,"o":"m 195 421 q 230 285 195 333 q 334 237 266 237 q 432 282 399 237 q 465 414 465 327 q 430 545 465 497 q 326 593 395 593 q 228 549 260 593 q 195 421 195 505 m 186 -27 q 140 -155 140 -96 q 188 -248 140 -214 q 319 -281 236 -281 q 491 -237 417 -281 q 565 -115 565 -193 q 529 -48 565 -72 q 392 -25 492 -25 q 314 -27 356 -25 q 232 -29 271 -29 q 186 -27 210 -29 m 540 559 q 591 425 591 503 q 515 251 591 315 q 324 186 439 186 q 208 206 259 186 q 171 113 171 147 q 190 89 171 95 q 258 82 208 82 q 347 84 296 82 q 442 86 398 86 q 613 45 550 86 q 675 -77 675 4 q 561 -269 675 -199 q 299 -340 446 -340 q 107 -299 179 -340 q 36 -195 36 -259 q 146 -20 36 -117 q 77 51 77 7 q 174 223 77 113 q 68 410 68 288 q 143 580 68 515 q 336 644 218 644 q 421 636 368 644 q 500 627 472 627 q 689 629 603 627 l 692 601 l 540 559 z "},"h":{"ha":805,"x_min":35,"x_max":779,"o":"m 35 974 q 256 1022 145 996 l 262 1017 q 258 835 258 953 q 258 568 258 717 q 477 644 376 644 q 627 592 572 644 q 683 437 683 539 l 683 198 q 684 73 683 120 q 701 49 685 55 l 777 26 l 779 -2 q 623 0 689 0 q 475 -2 556 0 l 472 26 l 539 45 q 557 66 555 51 q 557 109 557 76 l 557 405 q 517 525 557 488 q 399 561 477 561 q 258 528 332 561 l 258 224 q 259 70 258 140 q 276 46 260 51 l 347 26 l 348 -2 q 196 0 262 0 q 39 -2 130 0 l 36 26 l 113 48 q 131 70 130 54 q 132 236 132 135 l 132 519 q 132 764 132 658 q 130 924 132 871 l 38 951 l 35 974 z "},"i":{"ha":393,"x_min":39,"x_max":359,"o":"m 269 884 q 246 826 269 848 q 189 803 224 803 q 133 824 155 803 q 112 880 112 845 q 134 938 112 916 q 193 959 157 959 q 248 940 227 959 q 269 884 269 920 m 39 597 q 259 644 158 619 l 265 640 q 261 446 261 551 l 261 185 q 262 73 261 104 q 279 49 264 54 l 358 26 l 359 -2 q 199 0 266 0 q 41 -2 133 0 l 39 26 l 117 49 q 134 70 133 54 q 136 159 136 96 l 136 385 q 133 549 136 474 l 43 574 l 39 597 z "},"j":{"ha":368,"x_min":-13,"x_max":254,"o":"m 30 597 q 248 644 146 619 l 254 640 q 250 446 250 551 l 250 60 q 198 -150 250 -73 q 18 -341 147 -227 l -13 -313 q 106 -118 87 -181 q 125 43 125 -55 l 125 385 q 123 549 125 467 l 33 574 l 30 597 m 254 884 q 231 826 254 848 q 174 803 209 803 q 118 824 140 803 q 97 880 97 845 q 120 938 97 916 q 178 959 142 959 q 233 940 212 959 q 254 884 254 920 z "},"k":{"ha":743,"x_min":35,"x_max":749,"o":"m 749 -2 q 614 0 659 0 q 537 -1 585 0 q 477 87 512 40 q 276 343 384 218 l 521 581 l 446 602 l 443 629 q 572 627 530 627 q 713 629 609 627 l 716 601 q 618 570 648 583 q 548 519 588 557 l 403 385 l 621 113 q 679 52 658 67 q 748 26 699 37 l 749 -2 m 38 951 l 35 974 q 256 1022 155 997 l 262 1017 q 258 709 258 918 l 258 266 q 259 69 258 165 q 277 45 260 50 l 342 26 l 344 -2 q 196 0 262 0 q 39 -2 130 0 l 36 26 l 116 50 q 131 70 130 54 q 132 241 132 146 l 132 519 q 130 924 132 871 l 38 951 z "},"l":{"ha":390,"x_min":35,"x_max":354,"o":"m 38 951 l 35 974 q 256 1022 155 997 l 262 1017 q 258 709 258 906 l 258 268 q 259 73 258 146 q 278 48 261 53 l 352 26 l 354 -2 q 196 0 262 0 q 39 -2 130 0 l 36 26 l 113 48 q 131 70 130 54 q 132 241 132 146 l 132 519 q 130 924 132 772 l 38 951 z "},"m":{"ha":1203,"x_min":39,"x_max":1177,"o":"m 662 512 q 671 439 671 479 l 671 197 q 673 69 671 117 q 690 45 674 51 l 759 26 l 760 -2 q 611 0 677 0 q 463 -2 545 0 l 460 26 l 525 45 q 545 66 545 52 q 546 109 546 76 l 546 405 q 508 525 546 488 q 395 561 470 561 q 261 522 330 561 l 261 225 q 262 70 261 140 q 277 47 263 50 l 349 26 l 350 -2 q 199 0 266 0 q 42 -2 133 0 l 39 26 l 117 49 q 135 70 134 54 q 136 153 136 106 l 136 385 q 133 549 136 473 l 43 574 l 39 597 q 254 644 151 618 l 260 640 l 260 561 q 471 644 372 644 q 648 550 593 644 q 880 644 755 644 q 1028 591 975 644 q 1081 439 1081 538 l 1081 199 q 1082 73 1081 113 q 1101 49 1084 54 l 1176 26 l 1177 -2 q 1021 0 1088 0 q 873 -2 954 0 l 871 26 l 938 45 q 956 66 954 51 q 956 109 956 76 l 956 405 q 918 525 956 488 q 804 561 879 561 q 662 512 728 561 z "},"n":{"ha":808,"x_min":39,"x_max":782,"o":"m 39 597 q 254 644 153 618 l 261 640 l 261 561 q 481 644 379 644 q 632 590 577 644 q 686 437 686 536 l 686 198 q 688 73 686 113 q 705 49 688 54 l 781 26 l 782 -2 q 626 0 692 0 q 478 -2 559 0 l 475 26 l 543 45 q 560 66 559 51 q 561 109 561 76 l 561 405 q 521 525 561 488 q 403 561 481 561 q 261 522 334 561 l 261 225 q 262 70 261 140 q 278 47 263 52 l 349 26 l 350 -2 q 199 0 266 0 q 42 -2 133 0 l 39 26 l 119 49 q 135 70 134 55 q 136 153 136 113 l 136 385 q 133 549 136 473 l 43 574 l 39 597 z "},"o":{"ha":751,"x_min":53,"x_max":696,"o":"m 191 320 q 238 114 191 193 q 379 34 286 34 q 512 104 467 34 q 558 312 558 174 q 510 516 558 441 q 370 591 462 591 q 237 524 283 591 q 191 320 191 456 m 696 326 q 603 76 696 172 q 366 -19 510 -19 q 139 71 226 -19 q 53 306 53 161 q 143 550 53 455 q 383 644 234 644 q 610 557 524 644 q 696 326 696 470 z "},"p":{"ha":777,"x_min":26,"x_max":723,"o":"m 29 574 l 26 597 q 241 644 140 618 l 248 640 l 248 573 q 448 644 351 644 q 649 560 574 644 q 723 340 723 475 q 627 78 723 174 q 356 -19 532 -19 q 248 -9 304 -19 l 248 -157 q 249 -252 248 -225 q 267 -277 250 -273 l 356 -302 l 358 -330 q 186 -328 252 -328 q 28 -330 119 -328 l 26 -302 l 104 -279 q 121 -258 120 -274 q 122 -108 122 -208 l 122 168 q 119 548 122 469 l 29 574 m 248 52 q 361 39 307 39 q 531 110 474 39 q 588 312 588 180 q 534 499 588 436 q 378 562 479 562 q 248 532 304 562 l 248 52 z "},"q":{"ha":768,"x_min":52,"x_max":749,"o":"m 528 572 q 422 586 473 586 q 245 515 303 586 q 186 317 186 444 q 240 131 186 199 q 395 62 293 62 q 528 86 465 62 l 528 572 m 657 640 q 653 330 653 510 l 653 -116 q 654 -255 653 -228 q 669 -278 654 -273 l 747 -302 l 749 -330 q 591 -328 657 -328 q 434 -330 524 -328 l 431 -302 l 509 -279 q 526 -258 526 -273 q 528 -52 528 -176 l 528 45 q 327 -19 425 -19 q 127 69 202 -19 q 52 290 52 157 q 148 549 52 453 q 416 644 245 644 q 583 628 487 644 q 651 644 615 635 l 657 640 z "},"r":{"ha":532,"x_min":39,"x_max":511,"o":"m 39 597 q 254 644 153 618 l 261 640 l 261 560 q 507 644 387 644 l 511 640 q 472 431 491 539 l 445 426 q 408 518 426 484 q 353 553 391 553 q 261 519 316 553 l 261 226 q 262 75 261 120 q 279 52 263 56 l 370 26 l 372 -2 q 199 0 266 0 q 42 -2 133 0 l 39 26 l 118 49 q 135 70 134 54 q 136 153 136 99 l 136 385 q 133 549 136 495 l 43 574 l 39 597 z "},"s":{"ha":562,"x_min":47,"x_max":517,"o":"m 387 576 q 302 587 348 587 q 199 562 238 587 q 160 494 160 537 q 185 429 160 453 q 280 382 211 406 l 336 363 q 473 291 429 332 q 517 183 517 250 q 444 35 517 89 q 258 -19 370 -19 q 47 23 155 -19 q 85 195 71 111 l 111 199 l 160 54 q 258 39 199 39 q 359 64 321 39 q 397 137 397 90 q 371 205 397 180 q 290 249 346 231 l 220 273 q 93 346 128 303 q 58 453 58 389 q 126 593 58 542 q 304 644 193 644 q 491 614 407 644 q 456 451 472 537 l 431 446 l 387 576 z "},"t":{"ha":490,"x_min":18,"x_max":466,"o":"m 243 555 q 239 185 239 326 q 260 88 239 115 q 340 61 281 61 q 462 73 387 61 l 466 43 q 256 -16 349 -16 q 146 23 182 -16 q 111 143 111 63 q 115 559 111 275 l 22 582 l 18 610 l 122 618 l 169 783 q 238 802 207 793 l 245 798 q 243 644 243 715 l 243 619 l 447 619 l 447 555 l 243 555 z "},"u":{"ha":791,"x_min":19,"x_max":758,"o":"m 540 60 q 328 -19 434 -19 q 169 35 222 -19 q 115 188 115 90 l 115 332 q 113 549 115 477 l 22 574 l 19 597 q 239 644 138 618 l 245 640 q 241 435 241 560 l 241 220 q 279 101 241 138 q 389 64 318 64 q 533 101 459 64 l 533 390 q 530 549 533 485 l 441 574 l 437 597 q 656 644 555 618 l 663 640 q 659 431 659 558 q 660 131 659 185 q 664 86 661 103 q 677 60 667 69 q 705 47 686 51 q 755 43 724 43 l 758 16 q 686 -7 727 4 q 631 -18 646 -18 q 540 60 562 -18 z "},"v":{"ha":671,"x_min":-21,"x_max":684,"o":"m -21 629 q 131 627 64 627 q 277 629 192 627 l 280 601 l 201 579 q 330 243 257 421 q 364 154 349 197 q 399 243 379 197 q 528 579 460 395 l 451 601 l 448 629 q 563 627 503 627 q 681 629 624 627 l 684 601 l 616 581 q 589 555 600 576 q 465 259 536 431 q 358 -5 394 88 l 300 -11 q 193 258 263 87 q 73 551 123 429 q 43 582 62 575 l -20 601 l -21 629 z "},"w":{"ha":1017,"x_min":-12,"x_max":1023,"o":"m -12 629 q 132 627 85 627 q 284 629 199 627 l 287 601 l 207 579 q 321 239 252 428 q 349 157 336 199 q 377 238 362 198 q 459 465 431 383 q 513 624 487 546 l 562 629 q 615 465 588 547 q 693 239 642 383 q 720 157 709 195 q 749 238 733 196 q 874 580 825 429 l 798 602 l 795 629 q 910 627 849 627 q 1020 629 970 627 l 1023 602 l 969 587 q 935 554 946 580 q 822 276 871 400 q 715 -1 772 153 l 654 -7 q 585 187 612 112 q 526 350 557 262 q 503 419 512 386 q 478 352 492 387 q 414 186 444 262 q 345 -1 385 110 l 286 -7 q 180 276 228 153 q 73 555 133 399 q 39 587 64 580 l -10 601 l -12 629 z "},"x":{"ha":667,"x_min":9,"x_max":661,"o":"m 18 629 q 172 627 104 627 q 300 629 223 627 l 303 601 l 243 585 q 359 393 286 511 q 486 584 432 500 l 429 601 l 425 629 q 526 627 482 627 q 638 629 587 627 l 642 601 l 577 583 q 545 558 559 578 q 391 342 473 464 q 564 71 479 199 q 600 44 577 52 l 659 26 l 661 -2 q 508 0 576 0 q 380 -2 457 0 l 377 26 l 436 41 q 307 248 382 126 q 171 43 233 138 l 229 26 l 231 -2 q 132 0 176 0 q 12 -2 72 0 l 9 26 l 75 43 q 115 73 96 50 q 275 300 189 173 q 117 553 189 439 q 80 583 103 574 l 21 601 l 18 629 z "},"y":{"ha":669,"x_min":-24,"x_max":682,"o":"m -24 629 q 128 627 62 627 q 273 629 174 627 l 276 601 l 197 579 q 255 422 222 508 q 326 243 288 336 q 359 155 341 205 q 400 258 378 205 q 462 413 432 337 q 524 579 492 490 l 446 601 l 444 629 q 561 627 494 627 q 678 629 621 627 l 682 601 l 618 583 q 588 555 597 576 q 534 429 563 498 q 398 85 444 219 q 342 -101 367 -6 q 303 -265 317 -197 q 278 -316 297 -298 q 191 -333 260 -333 q 56 -328 121 -333 l 52 -302 q 163 -254 127 -290 q 297 -5 206 -207 l 302 8 l 293 11 q 68 555 169 320 q 37 583 60 575 l -22 601 l -24 629 z "},"z":{"ha":667,"x_min":47,"x_max":610,"o":"m 47 6 q 239 286 162 172 q 431 574 315 399 l 166 574 l 122 437 l 95 433 q 61 623 79 538 l 63 629 q 330 627 201 627 q 602 629 460 627 l 606 621 q 418 342 508 476 q 228 54 328 208 l 498 54 l 583 195 l 610 199 q 594 3 600 104 l 590 -2 q 315 0 473 0 q 52 -2 171 0 l 47 6 z "},"à":{"ha":667,"x_min":33,"x_max":639,"o":"m 418 307 q 216 278 270 307 q 161 180 161 249 q 197 89 161 115 q 295 62 233 62 q 417 85 365 62 l 418 307 m 90 587 q 323 644 222 644 q 485 590 427 644 q 543 433 543 536 l 539 151 q 541 96 538 117 q 553 63 543 75 q 583 48 563 52 q 635 43 602 43 l 639 16 q 568 -7 610 5 q 511 -18 526 -18 q 420 50 445 -18 q 241 -19 326 -19 q 90 27 147 -19 q 33 159 33 74 q 126 313 33 263 q 418 362 219 362 l 419 415 q 380 528 420 491 q 260 564 341 564 q 105 541 198 564 l 90 587 m 360 708 l 313 708 l 153 961 l 288 961 l 360 708 m 36 629 z "},"á":{"ha":667,"x_min":33,"x_max":639,"o":"m 418 307 q 216 278 270 307 q 161 180 161 249 q 197 89 161 115 q 295 62 233 62 q 417 85 365 62 l 418 307 m 90 587 q 323 644 222 644 q 485 590 427 644 q 543 433 543 536 l 539 151 q 541 96 538 117 q 553 63 543 75 q 583 48 563 52 q 635 43 602 43 l 639 16 q 568 -7 610 5 q 511 -18 526 -18 q 420 50 445 -18 q 241 -19 326 -19 q 90 27 147 -19 q 33 159 33 74 q 126 313 33 263 q 418 362 219 362 l 419 415 q 380 528 420 491 q 260 564 341 564 q 105 541 198 564 l 90 587 m 353 961 l 489 961 l 328 708 l 281 708 l 353 961 m 36 629 z "},"â":{"ha":667,"x_min":33,"x_max":639,"o":"m 418 307 q 216 278 270 307 q 161 180 161 249 q 197 89 161 115 q 295 62 233 62 q 417 85 365 62 l 418 307 m 90 587 q 323 644 222 644 q 485 590 427 644 q 543 433 543 536 l 539 151 q 541 96 538 117 q 553 63 543 75 q 583 48 563 52 q 635 43 602 43 l 639 16 q 568 -7 610 5 q 511 -18 526 -18 q 420 50 445 -18 q 241 -19 326 -19 q 90 27 147 -19 q 33 159 33 74 q 126 313 33 263 q 418 362 219 362 l 419 415 q 380 528 420 491 q 260 564 341 564 q 105 541 198 564 l 90 587 m 517 708 l 466 708 l 319 861 l 173 708 l 124 708 l 271 961 l 370 961 l 517 708 m 36 629 z "},"ã":{"ha":667,"x_min":33,"x_max":639,"o":"m 418 307 q 216 278 270 307 q 161 180 161 249 q 197 89 161 115 q 295 62 233 62 q 417 85 365 62 l 418 307 m 90 587 q 323 644 222 644 q 485 590 427 644 q 543 433 543 536 l 539 151 q 541 96 538 117 q 553 63 543 75 q 583 48 563 52 q 635 43 602 43 l 639 16 q 568 -7 610 5 q 511 -18 526 -18 q 420 50 445 -18 q 241 -19 326 -19 q 90 27 147 -19 q 33 159 33 74 q 126 313 33 263 q 418 362 219 362 l 419 415 q 380 528 420 491 q 260 564 341 564 q 105 541 198 564 l 90 587 m 557 897 q 399 756 477 756 q 352 766 374 756 q 303 793 330 777 q 261 816 277 807 q 228 825 245 825 q 191 813 208 825 q 134 757 174 801 l 98 785 q 181 891 147 860 q 253 922 215 922 q 293 915 275 922 q 345 888 311 907 q 392 862 375 871 q 427 853 408 853 q 464 865 448 853 q 519 921 480 876 l 557 897 m 36 629 z "},"ä":{"ha":667,"x_min":33,"x_max":639,"o":"m 418 307 q 216 278 270 307 q 161 180 161 249 q 197 89 161 115 q 295 62 233 62 q 417 85 365 62 l 418 307 m 90 587 q 323 644 222 644 q 485 590 427 644 q 543 433 543 536 l 539 151 q 541 96 538 117 q 553 63 543 75 q 583 48 563 52 q 635 43 602 43 l 639 16 q 568 -7 610 5 q 511 -18 526 -18 q 420 50 445 -18 q 241 -19 326 -19 q 90 27 147 -19 q 33 159 33 74 q 126 313 33 263 q 418 362 219 362 l 419 415 q 380 528 420 491 q 260 564 341 564 q 105 541 198 564 l 90 587 m 265 884 q 244 828 265 850 q 189 807 222 807 q 136 827 156 807 q 116 880 116 846 q 137 935 116 915 q 193 956 159 956 q 245 937 225 956 q 265 884 265 918 m 526 884 q 504 828 526 850 q 449 807 483 807 q 397 827 417 807 q 376 880 376 846 q 398 935 376 915 q 454 956 419 956 q 506 937 486 956 q 526 884 526 918 m 36 629 z "},"ā":{"ha":667,"x_min":33,"x_max":639,"o":"m 418 307 q 216 278 270 307 q 161 180 161 249 q 197 89 161 115 q 295 62 233 62 q 417 85 365 62 l 418 307 m 90 587 q 323 644 222 644 q 485 590 427 644 q 543 433 543 536 l 539 151 q 541 96 538 117 q 553 63 543 75 q 583 48 563 52 q 635 43 602 43 l 639 16 q 568 -7 610 5 q 511 -18 526 -18 q 420 50 445 -18 q 241 -19 326 -19 q 90 27 147 -19 q 33 159 33 74 q 126 313 33 263 q 418 362 219 362 l 419 415 q 380 528 420 491 q 260 564 341 564 q 105 541 198 564 l 90 587 m 137 807 l 137 881 l 504 881 l 504 807 l 137 807 m 36 629 z "},"ă":{"ha":667,"x_min":33,"x_max":639,"o":"m 418 307 q 216 278 270 307 q 161 180 161 249 q 197 89 161 115 q 295 62 233 62 q 417 85 365 62 l 418 307 m 90 587 q 323 644 222 644 q 485 590 427 644 q 543 433 543 536 l 539 151 q 541 96 538 117 q 553 63 543 75 q 583 48 563 52 q 635 43 602 43 l 639 16 q 568 -7 610 5 q 511 -18 526 -18 q 420 50 445 -18 q 241 -19 326 -19 q 90 27 147 -19 q 33 159 33 74 q 126 313 33 263 q 418 362 219 362 l 419 415 q 380 528 420 491 q 260 564 341 564 q 105 541 198 564 l 90 587 m 182 946 q 228 844 191 880 q 322 809 264 809 q 416 844 380 809 q 465 941 452 878 l 510 945 q 459 782 510 846 q 317 718 409 718 q 184 775 232 718 q 136 941 136 833 l 182 946 m 36 629 z "},"å":{"ha":667,"x_min":33,"x_max":639,"o":"m 418 307 q 216 278 270 307 q 161 180 161 249 q 197 89 161 115 q 295 62 233 62 q 417 85 365 62 l 418 307 m 90 587 q 323 644 222 644 q 485 590 427 644 q 543 433 543 536 l 539 151 q 541 96 538 117 q 553 63 543 75 q 583 48 563 52 q 635 43 602 43 l 639 16 q 568 -7 610 5 q 511 -18 526 -18 q 420 50 445 -18 q 241 -19 326 -19 q 90 27 147 -19 q 33 159 33 74 q 126 313 33 263 q 418 362 219 362 l 419 415 q 380 528 420 491 q 260 564 341 564 q 105 541 198 564 l 90 587 m 317 708 q 210 740 250 708 q 170 830 170 772 q 215 928 170 891 q 324 966 260 966 q 430 931 387 966 q 472 838 472 896 q 428 743 472 779 q 317 708 385 708 m 321 749 q 376 769 355 749 q 397 832 397 789 q 376 900 397 875 q 321 924 355 924 q 265 904 286 924 q 244 840 244 883 q 266 773 244 797 q 321 749 287 749 m 36 629 z "},"ǻ":{"ha":667,"x_min":33,"x_max":639,"o":"m 418 307 q 216 278 270 307 q 161 180 161 249 q 197 89 161 115 q 295 62 233 62 q 417 85 365 62 l 418 307 m 90 587 q 323 644 222 644 q 485 590 427 644 q 543 433 543 536 l 539 151 q 541 96 538 117 q 553 63 543 75 q 583 48 563 52 q 635 43 602 43 l 639 16 q 568 -7 610 5 q 511 -18 526 -18 q 420 50 445 -18 q 241 -19 326 -19 q 90 27 147 -19 q 33 159 33 74 q 126 313 33 263 q 418 362 219 362 l 419 415 q 380 528 420 491 q 260 564 341 564 q 105 541 198 564 l 90 587 m 317 708 q 210 740 250 708 q 170 830 170 772 q 215 928 170 891 q 324 966 260 966 q 430 931 387 966 q 472 838 472 896 q 428 743 472 779 q 317 708 385 708 m 321 749 q 376 769 355 749 q 397 832 397 789 q 376 900 397 875 q 321 924 355 924 q 265 904 286 924 q 244 840 244 883 q 266 773 244 797 q 321 749 287 749 m 36 629 m 353 1253 l 489 1253 l 328 1000 l 281 1000 l 353 1253 m 36 921 z "},"ą":{"ha":667,"x_min":33,"x_max":639,"o":"m 639 -297 q 496 -332 543 -332 q 389 -294 429 -332 q 348 -194 348 -256 q 465 -8 348 -87 q 420 50 437 10 q 241 -19 326 -19 q 90 27 148 -19 q 33 159 33 74 q 126 313 33 263 q 418 362 219 362 l 419 415 q 381 528 420 491 q 260 564 342 564 q 191 558 229 564 q 105 541 152 553 l 90 587 q 323 644 222 644 q 417 630 376 644 q 486 590 458 616 q 529 524 514 564 q 543 433 543 485 l 539 151 q 541 96 538 117 q 553 63 544 75 q 583 48 563 52 q 635 43 602 43 l 639 16 q 527 -16 587 -3 q 480 -62 500 -26 q 460 -143 460 -98 q 498 -237 460 -201 q 606 -272 535 -272 q 635 -271 618 -272 l 639 -297 m 418 307 q 216 277 270 307 q 161 180 161 249 q 197 89 161 115 q 295 62 233 62 q 417 85 364 62 l 418 307 z "},"æ":{"ha":1025,"x_min":33,"x_max":977,"o":"m 90 587 q 323 644 222 644 q 511 555 455 644 q 728 644 592 644 q 911 569 846 644 q 977 359 977 493 q 975 318 977 340 l 545 318 q 615 126 548 188 q 828 65 682 65 q 967 77 893 65 l 971 48 q 853 -3 914 12 q 742 -19 793 -19 q 492 78 581 -19 q 241 -19 355 -19 q 90 29 147 -19 q 33 165 33 77 q 126 323 33 273 q 418 374 219 374 l 419 415 q 380 528 420 491 q 260 564 341 564 q 105 541 198 564 l 90 587 m 417 318 q 215 288 269 318 q 161 185 161 258 q 197 90 161 117 q 294 62 233 62 q 467 112 391 62 q 417 318 417 194 m 842 374 l 842 408 q 811 551 842 509 q 720 592 781 592 q 594 532 639 592 q 548 374 550 472 l 842 374 z "},"ǽ":{"ha":1025,"x_min":33,"x_max":977,"o":"m 90 587 q 323 644 222 644 q 511 555 455 644 q 728 644 592 644 q 911 569 846 644 q 977 359 977 493 q 975 318 977 340 l 545 318 q 615 126 548 188 q 828 65 682 65 q 967 77 893 65 l 971 48 q 853 -3 914 12 q 742 -19 793 -19 q 492 78 581 -19 q 241 -19 355 -19 q 90 29 147 -19 q 33 165 33 77 q 126 323 33 273 q 418 374 219 374 l 419 415 q 380 528 420 491 q 260 564 341 564 q 105 541 198 564 l 90 587 m 417 318 q 215 288 269 318 q 161 185 161 258 q 197 90 161 117 q 294 62 233 62 q 467 112 391 62 q 417 318 417 194 m 842 374 l 842 408 q 811 551 842 509 q 720 592 781 592 q 594 532 639 592 q 548 374 550 472 l 842 374 m 546 961 l 682 961 l 520 708 l 474 708 l 546 961 m 229 629 z "},"ć":{"ha":641,"x_min":52,"x_max":597,"o":"m 597 48 q 493 0 555 20 q 370 -19 431 -19 q 138 67 223 -19 q 52 296 52 153 q 149 548 52 451 q 400 644 246 644 q 593 604 500 644 q 553 418 571 513 l 527 414 l 472 576 q 401 587 441 587 q 243 517 300 587 q 186 330 186 446 q 251 129 186 194 q 455 64 315 64 q 593 77 519 64 l 597 48 m 415 961 l 551 961 l 389 708 l 343 708 l 415 961 m 98 629 z "},"ĉ":{"ha":641,"x_min":52,"x_max":597,"o":"m 597 48 q 493 0 555 20 q 370 -19 431 -19 q 138 67 223 -19 q 52 296 52 153 q 149 548 52 451 q 400 644 246 644 q 593 604 500 644 q 553 418 571 513 l 527 414 l 472 576 q 401 587 441 587 q 243 517 300 587 q 186 330 186 446 q 251 129 186 194 q 455 64 315 64 q 593 77 519 64 l 597 48 m 579 708 l 528 708 l 381 861 l 235 708 l 186 708 l 332 961 l 432 961 l 579 708 m 98 629 z "},"č":{"ha":641,"x_min":52,"x_max":597,"o":"m 597 48 q 493 0 555 20 q 370 -19 431 -19 q 138 67 223 -19 q 52 296 52 153 q 149 548 52 451 q 400 644 246 644 q 593 604 500 644 q 553 418 571 513 l 527 414 l 472 576 q 401 587 441 587 q 243 517 300 587 q 186 330 186 446 q 251 129 186 194 q 455 64 315 64 q 593 77 519 64 l 597 48 m 186 961 l 237 961 l 384 808 l 530 961 l 579 961 l 432 708 l 332 708 l 186 961 m 98 629 z "},"ċ":{"ha":641,"x_min":52,"x_max":597,"o":"m 597 48 q 493 0 555 20 q 370 -19 431 -19 q 138 67 223 -19 q 52 296 52 153 q 149 548 52 451 q 400 644 246 644 q 593 604 500 644 q 553 418 571 513 l 527 414 l 472 576 q 401 587 441 587 q 243 517 300 587 q 186 330 186 446 q 251 129 186 194 q 455 64 315 64 q 593 77 519 64 l 597 48 m 460 884 q 438 826 460 848 q 380 803 416 803 q 325 824 347 803 q 304 880 304 845 q 327 938 304 916 q 385 959 349 959 q 440 940 419 959 q 460 884 460 920 m 98 629 z "},"ç":{"ha":641,"x_min":52,"x_max":597,"o":"m 253 -128 l 338 -18 q 131 74 209 -10 q 52 296 52 158 q 149 548 52 451 q 400 644 246 644 q 593 604 500 644 q 553 418 571 513 l 527 414 l 472 576 q 401 587 441 587 q 243 517 300 587 q 186 330 186 446 q 251 129 186 194 q 455 64 315 64 q 593 77 519 64 l 597 48 q 397 -18 505 -9 l 355 -74 q 437 -159 437 -104 q 295 -330 437 -234 l 271 -304 q 338 -204 338 -250 q 256 -134 338 -155 l 253 -128 z "},"ď":{"ha":869,"x_min":52,"x_max":889,"o":"m 527 570 q 425 584 481 584 q 248 518 309 584 q 186 317 186 452 q 241 132 186 201 q 394 62 295 62 q 527 98 458 62 l 527 570 m 429 974 q 650 1022 550 997 l 656 1017 q 652 705 652 871 l 652 336 q 653 151 652 242 q 655 95 653 116 q 667 63 658 74 q 695 47 677 52 q 748 43 714 43 l 751 16 q 680 -7 722 5 q 623 -18 638 -18 q 531 59 555 -18 q 327 -19 426 -19 q 126 70 201 -19 q 52 290 52 159 q 151 550 52 458 q 430 642 251 642 q 527 633 473 642 q 524 924 527 783 l 433 951 l 429 974 m 729 701 q 793 836 793 770 q 729 928 793 893 q 750 981 729 962 q 806 1001 772 1001 q 866 974 843 1001 q 889 899 889 947 q 855 785 889 842 q 753 675 821 728 l 729 701 m 788 629 z "},"đ":{"ha":788,"x_min":52,"x_max":756,"o":"m 756 755 l 652 755 l 652 336 q 653 151 652 242 q 655 95 653 116 q 667 63 658 74 q 695 47 677 52 q 748 43 714 43 l 751 16 q 680 -7 722 5 q 623 -18 638 -18 q 531 59 555 -18 q 327 -19 426 -19 q 126 68 201 -19 q 52 283 52 156 q 151 538 52 448 q 430 628 251 628 q 527 618 473 628 l 527 755 l 286 755 l 286 810 l 527 810 q 524 924 526 870 l 433 951 l 429 974 q 650 1022 550 997 l 656 1017 q 652 810 653 912 l 756 810 l 756 755 m 527 556 q 425 570 481 570 q 248 505 309 570 q 186 311 186 441 q 241 130 186 198 q 394 62 295 62 q 527 98 458 62 l 527 556 z "},"è":{"ha":665,"x_min":53,"x_max":618,"o":"m 612 48 q 493 -3 554 12 q 380 -19 432 -19 q 142 66 231 -19 q 53 302 53 151 q 138 549 53 453 q 366 644 223 644 q 551 573 485 644 q 618 375 618 501 q 616 336 618 356 l 186 336 q 254 128 186 191 q 469 65 323 65 q 608 77 534 65 l 612 48 m 483 393 l 483 413 q 452 551 483 509 q 360 592 421 592 q 237 534 279 592 q 189 393 194 475 l 483 393 m 401 708 l 354 708 l 193 961 l 329 961 l 401 708 m 77 629 z "},"é":{"ha":665,"x_min":53,"x_max":618,"o":"m 612 48 q 493 -3 554 12 q 380 -19 432 -19 q 142 66 231 -19 q 53 302 53 151 q 138 549 53 453 q 366 644 223 644 q 551 573 485 644 q 618 375 618 501 q 616 336 618 356 l 186 336 q 254 128 186 191 q 469 65 323 65 q 608 77 534 65 l 612 48 m 483 393 l 483 413 q 452 551 483 509 q 360 592 421 592 q 237 534 279 592 q 189 393 194 475 l 483 393 m 394 961 l 530 961 l 368 708 l 322 708 l 394 961 m 77 629 z "},"ê":{"ha":665,"x_min":53,"x_max":618,"o":"m 612 48 q 493 -3 554 12 q 380 -19 432 -19 q 142 66 231 -19 q 53 302 53 151 q 138 549 53 453 q 366 644 223 644 q 551 573 485 644 q 618 375 618 501 q 616 336 618 356 l 186 336 q 254 128 186 191 q 469 65 323 65 q 608 77 534 65 l 612 48 m 483 393 l 483 413 q 452 551 483 509 q 360 592 421 592 q 237 534 279 592 q 189 393 194 475 l 483 393 m 558 708 l 507 708 l 360 861 l 214 708 l 165 708 l 311 961 l 411 961 l 558 708 m 77 629 z "},"ě":{"ha":665,"x_min":53,"x_max":618,"o":"m 612 48 q 493 -3 554 12 q 380 -19 432 -19 q 142 66 231 -19 q 53 302 53 151 q 138 549 53 453 q 366 644 223 644 q 551 573 485 644 q 618 375 618 501 q 616 336 618 356 l 186 336 q 254 128 186 191 q 469 65 323 65 q 608 77 534 65 l 612 48 m 483 393 l 483 413 q 452 551 483 509 q 360 592 421 592 q 237 534 279 592 q 189 393 194 475 l 483 393 m 165 961 l 216 961 l 363 808 l 509 961 l 558 961 l 411 708 l 311 708 l 165 961 m 77 629 z "},"ë":{"ha":665,"x_min":53,"x_max":618,"o":"m 612 48 q 493 -3 554 12 q 380 -19 432 -19 q 142 66 231 -19 q 53 302 53 151 q 138 549 53 453 q 366 644 223 644 q 551 573 485 644 q 618 375 618 501 q 616 336 618 356 l 186 336 q 254 128 186 191 q 469 65 323 65 q 608 77 534 65 l 612 48 m 483 393 l 483 413 q 452 551 483 509 q 360 592 421 592 q 237 534 279 592 q 189 393 194 475 l 483 393 m 306 884 q 284 828 306 850 q 229 807 263 807 q 177 827 197 807 q 157 880 157 846 q 178 935 157 915 q 234 956 199 956 q 286 937 266 956 q 306 884 306 918 m 566 884 q 545 828 566 850 q 490 807 524 807 q 437 827 458 807 q 417 880 417 846 q 438 935 417 915 q 494 956 460 956 q 547 937 527 956 q 566 884 566 918 m 77 629 z "},"ē":{"ha":665,"x_min":53,"x_max":618,"o":"m 612 48 q 493 -3 554 12 q 380 -19 432 -19 q 142 66 231 -19 q 53 302 53 151 q 138 549 53 453 q 366 644 223 644 q 551 573 485 644 q 618 375 618 501 q 616 336 618 356 l 186 336 q 254 128 186 191 q 469 65 323 65 q 608 77 534 65 l 612 48 m 483 393 l 483 413 q 452 551 483 509 q 360 592 421 592 q 237 534 279 592 q 189 393 194 475 l 483 393 m 178 807 l 178 881 l 545 881 l 545 807 l 178 807 m 77 629 z "},"ĕ":{"ha":665,"x_min":53,"x_max":618,"o":"m 612 48 q 493 -3 554 12 q 380 -19 432 -19 q 142 66 231 -19 q 53 302 53 151 q 138 549 53 453 q 366 644 223 644 q 551 573 485 644 q 618 375 618 501 q 616 336 618 356 l 186 336 q 254 128 186 191 q 469 65 323 65 q 608 77 534 65 l 612 48 m 483 393 l 483 413 q 452 551 483 509 q 360 592 421 592 q 237 534 279 592 q 189 393 194 475 l 483 393 m 222 946 q 269 844 232 880 q 363 809 305 809 q 457 844 421 809 q 506 941 492 878 l 551 945 q 500 782 551 846 q 358 718 450 718 q 224 775 273 718 q 176 941 176 833 l 222 946 m 77 629 z "},"ė":{"ha":665,"x_min":53,"x_max":618,"o":"m 612 48 q 493 -3 554 12 q 380 -19 432 -19 q 142 66 231 -19 q 53 302 53 151 q 138 549 53 453 q 366 644 223 644 q 551 573 485 644 q 618 375 618 501 q 616 336 618 356 l 186 336 q 254 128 186 191 q 469 65 323 65 q 608 77 534 65 l 612 48 m 483 393 l 483 413 q 452 551 483 509 q 360 592 421 592 q 237 534 279 592 q 189 393 194 475 l 483 393 m 439 884 q 417 826 439 848 q 359 803 395 803 q 304 824 326 803 q 283 880 283 845 q 306 938 283 916 q 364 959 328 959 q 419 940 398 959 q 439 884 439 920 m 77 629 z "},"ę":{"ha":665,"x_min":53,"x_max":618,"o":"m 612 -297 q 469 -332 556 -332 q 360 -294 401 -332 q 320 -194 320 -255 q 418 -16 320 -104 q 382 -19 397 -19 q 142 66 231 -19 q 53 302 53 151 q 138 549 53 453 q 366 644 223 644 q 551 573 485 644 q 618 375 618 501 q 616 336 618 356 l 186 336 q 254 128 186 191 q 469 65 323 65 q 608 77 534 65 l 612 48 q 532 9 573 24 q 459 -53 485 -11 q 433 -143 433 -94 q 471 -237 433 -203 q 578 -272 509 -272 q 608 -271 590 -272 l 612 -297 m 483 393 l 483 413 q 452 551 483 509 q 360 592 421 592 q 237 534 279 592 q 189 393 194 475 l 483 393 z "},"ĝ":{"ha":705,"x_min":36,"x_max":692,"o":"m 195 421 q 230 285 195 333 q 334 237 266 237 q 432 282 399 237 q 465 414 465 327 q 430 545 465 497 q 326 593 395 593 q 228 549 260 593 q 195 421 195 505 m 186 -27 q 140 -155 140 -96 q 188 -248 140 -214 q 319 -281 236 -281 q 491 -237 417 -281 q 565 -115 565 -193 q 529 -48 565 -72 q 392 -25 492 -25 q 314 -27 356 -25 q 232 -29 271 -29 q 186 -27 210 -29 m 540 559 q 591 425 591 503 q 515 251 591 315 q 324 186 439 186 q 208 206 259 186 q 171 113 171 147 q 190 89 171 95 q 258 82 208 82 q 347 84 296 82 q 442 86 398 86 q 613 45 550 86 q 675 -77 675 4 q 561 -269 675 -199 q 299 -340 446 -340 q 107 -299 179 -340 q 36 -195 36 -259 q 146 -20 36 -117 q 77 51 77 7 q 174 223 77 113 q 68 410 68 288 q 143 580 68 515 q 336 644 218 644 q 421 636 368 644 q 500 627 472 627 q 689 629 603 627 l 692 601 l 540 559 m 532 708 l 481 708 l 334 861 l 188 708 l 139 708 l 286 961 l 385 961 l 532 708 m 51 629 z "},"ğ":{"ha":705,"x_min":36,"x_max":692,"o":"m 195 421 q 230 285 195 333 q 334 237 266 237 q 432 282 399 237 q 465 414 465 327 q 430 545 465 497 q 326 593 395 593 q 228 549 260 593 q 195 421 195 505 m 186 -27 q 140 -155 140 -96 q 188 -248 140 -214 q 319 -281 236 -281 q 491 -237 417 -281 q 565 -115 565 -193 q 529 -48 565 -72 q 392 -25 492 -25 q 314 -27 356 -25 q 232 -29 271 -29 q 186 -27 210 -29 m 540 559 q 591 425 591 503 q 515 251 591 315 q 324 186 439 186 q 208 206 259 186 q 171 113 171 147 q 190 89 171 95 q 258 82 208 82 q 347 84 296 82 q 442 86 398 86 q 613 45 550 86 q 675 -77 675 4 q 561 -269 675 -199 q 299 -340 446 -340 q 107 -299 179 -340 q 36 -195 36 -259 q 146 -20 36 -117 q 77 51 77 7 q 174 223 77 113 q 68 410 68 288 q 143 580 68 515 q 336 644 218 644 q 421 636 368 644 q 500 627 472 627 q 689 629 603 627 l 692 601 l 540 559 m 197 946 q 243 844 206 880 q 337 809 279 809 q 431 844 395 809 q 480 941 467 878 l 525 945 q 474 782 525 846 q 332 718 424 718 q 199 775 247 718 q 151 941 151 833 l 197 946 m 51 629 z "},"ġ":{"ha":705,"x_min":36,"x_max":692,"o":"m 195 421 q 230 285 195 333 q 334 237 266 237 q 432 282 399 237 q 465 414 465 327 q 430 545 465 497 q 326 593 395 593 q 228 549 260 593 q 195 421 195 505 m 186 -27 q 140 -155 140 -96 q 188 -248 140 -214 q 319 -281 236 -281 q 491 -237 417 -281 q 565 -115 565 -193 q 529 -48 565 -72 q 392 -25 492 -25 q 314 -27 356 -25 q 232 -29 271 -29 q 186 -27 210 -29 m 540 559 q 591 425 591 503 q 515 251 591 315 q 324 186 439 186 q 208 206 259 186 q 171 113 171 147 q 190 89 171 95 q 258 82 208 82 q 347 84 296 82 q 442 86 398 86 q 613 45 550 86 q 675 -77 675 4 q 561 -269 675 -199 q 299 -340 446 -340 q 107 -299 179 -340 q 36 -195 36 -259 q 146 -20 36 -117 q 77 51 77 7 q 174 223 77 113 q 68 410 68 288 q 143 580 68 515 q 336 644 218 644 q 421 636 368 644 q 500 627 472 627 q 689 629 603 627 l 692 601 l 540 559 m 414 884 q 391 826 414 848 q 334 803 369 803 q 278 824 300 803 q 257 880 257 845 q 280 938 257 916 q 338 959 302 959 q 393 940 372 959 q 414 884 414 920 m 51 629 z "},"ģ":{"ha":705,"x_min":36,"x_max":692,"o":"m 195 421 q 230 285 195 333 q 334 237 266 237 q 432 282 399 237 q 465 414 465 327 q 430 545 465 497 q 326 593 395 593 q 228 549 260 593 q 195 421 195 505 m 186 -27 q 140 -155 140 -96 q 188 -248 140 -214 q 319 -281 236 -281 q 491 -237 417 -281 q 565 -115 565 -193 q 529 -48 565 -72 q 392 -25 492 -25 q 314 -27 356 -25 q 232 -29 271 -29 q 186 -27 210 -29 m 540 559 q 591 425 591 503 q 515 251 591 315 q 324 186 439 186 q 208 206 259 186 q 171 113 171 147 q 190 89 171 95 q 258 82 208 82 q 347 84 296 82 q 442 86 398 86 q 613 45 550 86 q 675 -77 675 4 q 561 -269 675 -199 q 299 -340 446 -340 q 107 -299 179 -340 q 36 -195 36 -259 q 146 -20 36 -117 q 77 51 77 7 q 174 223 77 113 q 68 410 68 288 q 143 580 68 515 q 336 644 218 644 q 421 636 368 644 q 500 627 472 627 q 689 629 603 627 l 692 601 l 540 559 m 418 957 q 353 854 353 904 q 404 780 353 809 q 384 731 404 749 q 336 712 364 712 q 280 736 302 712 q 259 797 259 760 q 395 983 259 895 l 418 957 z "},"ĥ":{"ha":805,"x_min":-94,"x_max":779,"o":"m 35 974 q 256 1022 145 996 l 262 1017 q 258 835 258 953 q 258 568 258 717 q 477 644 376 644 q 627 592 572 644 q 683 437 683 539 l 683 198 q 684 73 683 120 q 701 49 685 55 l 777 26 l 779 -2 q 623 0 689 0 q 475 -2 556 0 l 472 26 l 539 45 q 557 66 555 51 q 557 109 557 76 l 557 405 q 517 525 557 488 q 399 561 477 561 q 258 528 332 561 l 258 224 q 259 70 258 140 q 276 46 260 51 l 347 26 l 348 -2 q 196 0 262 0 q 39 -2 130 0 l 36 26 l 113 48 q 131 70 130 54 q 132 236 132 135 l 132 519 q 132 764 132 658 q 130 924 132 871 l 38 951 l 35 974 m 222 1236 l 416 1074 l 397 1043 l 191 1135 l -16 1043 l -33 1074 l 161 1236 l 222 1236 m -94 985 z "},"ħ":{"ha":805,"x_min":28,"x_max":779,"o":"m 498 755 l 258 755 l 258 551 q 477 627 376 627 q 627 574 572 627 q 683 419 683 522 l 683 198 q 684 73 683 120 q 701 49 685 55 l 777 26 l 779 -2 q 623 0 689 0 q 475 -2 556 0 l 472 26 l 539 45 q 557 66 555 51 q 557 109 557 76 l 557 387 q 517 507 557 471 q 399 543 477 543 q 258 511 332 543 l 258 224 q 259 70 258 140 q 276 46 260 51 l 347 26 l 348 -2 q 196 0 262 0 q 39 -2 130 0 l 36 26 l 113 48 q 131 70 130 54 q 132 236 132 135 l 132 755 l 28 755 l 28 810 l 132 810 q 130 924 131 880 l 38 951 l 35 974 q 256 1022 145 996 l 262 1017 q 258 835 258 953 l 258 810 l 498 810 l 498 755 z "},"ì":{"ha":393,"x_min":-102,"x_max":359,"o":"m 39 597 q 259 644 158 619 l 265 640 q 261 446 261 551 l 261 185 q 262 73 261 104 q 279 49 264 54 l 358 26 l 359 -2 q 199 0 266 0 q 41 -2 133 0 l 39 26 l 117 49 q 134 70 133 54 q 136 159 136 96 l 136 385 q 133 549 136 474 l 43 574 l 39 597 m 222 708 l 175 708 l 14 961 l 150 961 l 222 708 m -102 629 z "},"í":{"ha":393,"x_min":-102,"x_max":359,"o":"m 39 597 q 259 644 158 619 l 265 640 q 261 446 261 551 l 261 185 q 262 73 261 104 q 279 49 264 54 l 358 26 l 359 -2 q 199 0 266 0 q 41 -2 133 0 l 39 26 l 117 49 q 134 70 133 54 q 136 159 136 96 l 136 385 q 133 549 136 474 l 43 574 l 39 597 m 215 961 l 351 961 l 189 708 l 143 708 l 215 961 m -102 629 z "},"î":{"ha":393,"x_min":-102,"x_max":379,"o":"m 39 597 q 259 644 158 619 l 265 640 q 261 446 261 551 l 261 185 q 262 73 261 104 q 279 49 264 54 l 358 26 l 359 -2 q 199 0 266 0 q 41 -2 133 0 l 39 26 l 117 49 q 134 70 133 54 q 136 159 136 96 l 136 385 q 133 549 136 474 l 43 574 l 39 597 m 379 708 l 328 708 l 181 861 l 35 708 l -14 708 l 132 961 l 232 961 l 379 708 m -102 629 z "},"ĩ":{"ha":393,"x_min":-102,"x_max":418,"o":"m 39 597 q 259 644 158 619 l 265 640 q 261 446 261 551 l 261 185 q 262 73 261 104 q 279 49 264 54 l 358 26 l 359 -2 q 199 0 266 0 q 41 -2 133 0 l 39 26 l 117 49 q 134 70 133 54 q 136 159 136 96 l 136 385 q 133 549 136 474 l 43 574 l 39 597 m 418 897 q 261 756 338 756 q 213 766 235 756 q 165 793 191 777 q 123 816 139 807 q 90 825 107 825 q 53 813 70 825 q -5 757 35 801 l -40 785 q 43 891 9 860 q 115 922 77 922 q 154 915 136 922 q 206 888 172 907 q 253 862 237 871 q 288 853 270 853 q 326 865 310 853 q 381 921 342 876 l 418 897 m -102 629 z "},"ï":{"ha":393,"x_min":-102,"x_max":387,"o":"m 39 597 q 259 644 158 619 l 265 640 q 261 446 261 551 l 261 185 q 262 73 261 104 q 279 49 264 54 l 358 26 l 359 -2 q 199 0 266 0 q 41 -2 133 0 l 39 26 l 117 49 q 134 70 133 54 q 136 159 136 96 l 136 385 q 133 549 136 474 l 43 574 l 39 597 m 127 884 q 105 828 127 850 q 50 807 84 807 q -2 827 18 807 q -22 880 -22 846 q -1 935 -22 915 q 55 956 20 956 q 107 937 87 956 q 127 884 127 918 m 387 884 q 366 828 387 850 q 311 807 345 807 q 258 827 279 807 q 238 880 238 846 q 259 935 238 915 q 315 956 281 956 q 368 937 348 956 q 387 884 387 918 m -102 629 z "},"ī":{"ha":393,"x_min":-102,"x_max":366,"o":"m 39 597 q 259 644 158 619 l 265 640 q 261 446 261 551 l 261 185 q 262 73 261 104 q 279 49 264 54 l 358 26 l 359 -2 q 199 0 266 0 q 41 -2 133 0 l 39 26 l 117 49 q 134 70 133 54 q 136 159 136 96 l 136 385 q 133 549 136 474 l 43 574 l 39 597 m -1 807 l -1 881 l 366 881 l 366 807 l -1 807 m -102 629 z "},"ĭ":{"ha":393,"x_min":-102,"x_max":372,"o":"m 39 597 q 259 644 158 619 l 265 640 q 261 446 261 551 l 261 185 q 262 73 261 104 q 279 49 264 54 l 358 26 l 359 -2 q 199 0 266 0 q 41 -2 133 0 l 39 26 l 117 49 q 134 70 133 54 q 136 159 136 96 l 136 385 q 133 549 136 474 l 43 574 l 39 597 m 43 946 q 90 844 53 880 q 184 809 126 809 q 278 844 242 809 q 327 941 313 878 l 372 945 q 321 782 372 846 q 179 718 271 718 q 45 775 94 718 q -3 941 -3 833 l 43 946 m -102 629 z "},"į":{"ha":393,"x_min":39,"x_max":363,"o":"m 363 -297 q 220 -332 268 -332 q 111 -293 151 -332 q 71 -194 71 -254 q 198 0 71 -83 q 41 -2 132 0 l 39 26 l 117 49 q 134 70 134 55 q 135 105 135 83 q 136 159 136 127 l 136 385 q 135 471 136 430 q 133 549 134 511 l 43 574 l 39 597 q 153 620 99 608 q 259 644 208 632 l 265 640 q 261 446 261 551 l 261 185 q 261 116 261 144 q 262 73 262 88 q 279 49 263 54 l 358 26 l 359 -2 q 318 -1 338 -1 q 221 -40 258 -1 q 184 -140 184 -80 q 222 -238 184 -203 q 330 -272 260 -272 q 359 -271 340 -272 l 363 -297 m 265 884 q 243 826 265 848 q 184 803 221 803 q 130 824 151 803 q 109 880 109 845 q 131 938 109 916 q 190 959 153 959 q 244 940 224 959 q 265 884 265 921 z "},"ı":{"ha":393,"x_min":39,"x_max":359,"o":"m 39 597 q 259 644 158 619 l 265 640 q 261 446 261 551 l 261 185 q 262 73 261 104 q 279 49 264 54 l 358 26 l 359 -2 q 199 0 266 0 q 41 -2 133 0 l 39 26 l 117 49 q 134 70 133 54 q 136 159 136 96 l 136 385 q 133 549 136 474 l 43 574 l 39 597 z "},"ĳ":{"ha":762,"x_min":39,"x_max":647,"o":"m 269 884 q 246 826 269 848 q 189 803 224 803 q 133 824 155 803 q 112 880 112 845 q 134 938 112 916 q 193 959 157 959 q 248 940 227 959 q 269 884 269 920 m 39 597 q 259 644 158 619 l 265 640 q 261 446 261 551 l 261 185 q 262 73 261 104 q 279 49 264 54 l 358 26 l 359 -2 q 199 0 266 0 q 41 -2 133 0 l 39 26 l 117 49 q 134 70 133 54 q 136 159 136 96 l 136 385 q 133 549 136 474 l 43 574 l 39 597 m 423 597 q 641 644 540 619 l 647 640 q 643 446 643 551 l 643 60 q 592 -150 643 -73 q 412 -341 541 -227 l 380 -313 q 500 -118 481 -181 q 519 43 519 -55 l 519 385 q 516 549 519 467 l 427 574 l 423 597 m 647 884 q 625 826 647 848 q 567 803 602 803 q 512 824 533 803 q 490 880 490 845 q 513 938 490 916 q 572 959 536 959 q 626 940 606 959 q 647 884 647 920 z "},"ĵ":{"ha":368,"x_min":-18,"x_max":376,"o":"m 30 597 q 248 644 146 619 l 254 640 q 250 446 250 551 l 250 60 q 198 -150 250 -73 q 18 -341 147 -227 l -13 -313 q 106 -118 87 -181 q 125 43 125 -55 l 125 385 q 123 549 125 467 l 33 574 l 30 597 m 376 708 l 324 708 l 178 861 l 31 708 l -18 708 l 130 961 l 229 961 l 376 708 z "},"ķ":{"ha":743,"x_min":35,"x_max":749,"o":"m 749 -2 q 614 0 659 0 q 537 -1 585 0 q 477 87 512 40 q 276 343 384 218 l 521 581 l 446 602 l 443 629 q 572 627 530 627 q 713 629 609 627 l 716 601 q 618 570 648 583 q 548 519 588 557 l 403 385 l 621 113 q 679 52 658 67 q 748 26 699 37 l 749 -2 m 38 951 l 35 974 q 256 1022 155 997 l 262 1017 q 258 709 258 918 l 258 266 q 259 69 258 165 q 277 45 260 50 l 342 26 l 344 -2 q 196 0 262 0 q 39 -2 130 0 l 36 26 l 116 50 q 131 70 130 54 q 132 241 132 146 l 132 519 q 130 924 132 871 l 38 951 m 311 -304 q 376 -201 376 -251 q 326 -127 376 -156 q 345 -78 326 -96 q 393 -59 365 -59 q 449 -83 427 -59 q 470 -144 470 -107 q 334 -330 470 -242 l 311 -304 z "},"ĸ":{"ha":746,"x_min":39,"x_max":753,"o":"m 753 -2 q 618 0 662 0 q 541 -1 589 0 q 481 87 515 40 q 279 343 387 218 l 524 581 l 449 602 l 446 629 q 575 627 534 627 q 717 629 612 627 l 720 601 q 621 570 651 583 q 551 519 591 557 l 406 385 l 625 113 q 682 52 661 67 q 751 26 703 37 l 753 -2 m 261 266 q 262 69 261 165 q 280 45 262 51 l 346 26 l 347 -2 q 199 0 266 0 q 42 -2 133 0 l 39 26 l 119 50 q 134 70 133 54 q 136 241 136 146 l 136 385 q 133 549 136 474 l 43 574 l 39 597 q 259 644 158 619 l 265 640 q 261 446 261 551 l 261 266 z "},"ĺ":{"ha":390,"x_min":-94,"x_max":355,"o":"m 38 951 l 35 974 q 256 1022 155 997 l 262 1017 q 258 709 258 906 l 258 268 q 259 73 258 146 q 278 48 261 53 l 352 26 l 354 -2 q 196 0 262 0 q 39 -2 130 0 l 36 26 l 113 48 q 131 70 130 54 q 132 241 132 146 l 132 519 q 130 924 132 772 l 38 951 m 355 1157 l 59 1050 l 41 1082 l 262 1247 l 355 1167 l 355 1157 m -94 985 z "},"ľ":{"ha":471,"x_min":35,"x_max":491,"o":"m 38 951 l 35 974 q 256 1022 155 997 l 262 1017 q 258 709 258 906 l 258 268 q 259 73 258 146 q 278 48 261 53 l 352 26 l 354 -2 q 196 0 262 0 q 39 -2 130 0 l 36 26 l 113 48 q 131 70 130 54 q 132 241 132 146 l 132 519 q 130 924 132 772 l 38 951 m 331 701 q 395 836 395 770 q 331 928 395 893 q 352 981 331 962 q 408 1001 374 1001 q 468 974 445 1001 q 491 899 491 947 q 457 785 491 842 q 355 675 423 728 l 331 701 m 390 629 z "},"ļ":{"ha":390,"x_min":35,"x_max":354,"o":"m 38 951 l 35 974 q 256 1022 155 997 l 262 1017 q 258 709 258 906 l 258 268 q 259 73 258 146 q 278 48 261 53 l 352 26 l 354 -2 q 196 0 262 0 q 39 -2 130 0 l 36 26 l 113 48 q 131 70 130 54 q 132 241 132 146 l 132 519 q 130 924 132 772 l 38 951 m 114 -304 q 179 -201 179 -251 q 129 -127 179 -156 q 149 -78 129 -96 q 197 -59 168 -59 q 252 -83 231 -59 q 273 -144 273 -107 q 138 -330 273 -242 l 114 -304 z "},"ł":{"ha":390,"x_min":18,"x_max":373,"o":"m 18 517 l 132 554 q 130 924 132 779 l 39 951 l 35 974 q 256 1022 155 997 l 262 1017 q 258 709 258 906 l 258 593 l 370 628 l 373 568 l 258 532 l 258 268 q 259 73 258 146 q 279 48 262 53 l 353 26 l 354 -2 q 197 0 263 0 q 39 -2 130 0 l 37 26 l 113 48 q 131 70 130 54 q 132 241 132 146 l 132 492 l 21 456 l 18 517 z "},"ŀ":{"ha":479,"x_min":35,"x_max":513,"o":"m 38 951 l 35 974 q 256 1022 155 997 l 262 1017 q 258 709 258 906 l 258 268 q 259 73 258 146 q 278 48 261 53 l 352 26 l 354 -2 q 196 0 262 0 q 39 -2 130 0 l 36 26 l 113 48 q 131 70 130 54 q 132 241 132 146 l 132 519 q 130 924 132 772 l 38 951 m 513 493 q 490 434 513 457 q 433 412 468 412 q 377 433 399 412 q 356 488 356 454 q 379 546 356 525 q 437 568 401 568 q 492 548 471 568 q 513 493 513 529 m 150 238 z "},"ń":{"ha":808,"x_min":39,"x_max":782,"o":"m 39 597 q 254 644 153 618 l 261 640 l 261 561 q 481 644 379 644 q 632 590 577 644 q 686 437 686 536 l 686 198 q 688 73 686 113 q 705 49 688 54 l 781 26 l 782 -2 q 626 0 692 0 q 478 -2 559 0 l 475 26 l 543 45 q 560 66 559 51 q 561 109 561 76 l 561 405 q 521 525 561 488 q 403 561 481 561 q 261 522 334 561 l 261 225 q 262 70 261 140 q 278 47 263 52 l 349 26 l 350 -2 q 199 0 266 0 q 42 -2 133 0 l 39 26 l 119 49 q 135 70 134 55 q 136 153 136 113 l 136 385 q 133 549 136 473 l 43 574 l 39 597 m 435 961 l 571 961 l 410 708 l 363 708 l 435 961 m 118 629 z "},"ň":{"ha":808,"x_min":39,"x_max":782,"o":"m 39 597 q 254 644 153 618 l 261 640 l 261 561 q 481 644 379 644 q 632 590 577 644 q 686 437 686 536 l 686 198 q 688 73 686 113 q 705 49 688 54 l 781 26 l 782 -2 q 626 0 692 0 q 478 -2 559 0 l 475 26 l 543 45 q 560 66 559 51 q 561 109 561 76 l 561 405 q 521 525 561 488 q 403 561 481 561 q 261 522 334 561 l 261 225 q 262 70 261 140 q 278 47 263 52 l 349 26 l 350 -2 q 199 0 266 0 q 42 -2 133 0 l 39 26 l 119 49 q 135 70 134 55 q 136 153 136 113 l 136 385 q 133 549 136 473 l 43 574 l 39 597 m 206 961 l 258 961 l 404 808 l 551 961 l 600 961 l 452 708 l 353 708 l 206 961 m 118 629 z "},"ñ":{"ha":808,"x_min":39,"x_max":782,"o":"m 39 597 q 254 644 153 618 l 261 640 l 261 561 q 481 644 379 644 q 632 590 577 644 q 686 437 686 536 l 686 198 q 688 73 686 113 q 705 49 688 54 l 781 26 l 782 -2 q 626 0 692 0 q 478 -2 559 0 l 475 26 l 543 45 q 560 66 559 51 q 561 109 561 76 l 561 405 q 521 525 561 488 q 403 561 481 561 q 261 522 334 561 l 261 225 q 262 70 261 140 q 278 47 263 52 l 349 26 l 350 -2 q 199 0 266 0 q 42 -2 133 0 l 39 26 l 119 49 q 135 70 134 55 q 136 153 136 113 l 136 385 q 133 549 136 473 l 43 574 l 39 597 m 639 897 q 481 756 559 756 q 434 766 456 756 q 385 793 412 777 q 343 816 359 807 q 310 825 328 825 q 273 813 290 825 q 216 757 256 801 l 180 785 q 263 891 229 860 q 335 922 297 922 q 375 915 357 922 q 427 888 393 907 q 474 862 457 871 q 509 853 490 853 q 546 865 530 853 q 602 921 562 876 l 639 897 m 118 629 z "},"ņ":{"ha":808,"x_min":39,"x_max":782,"o":"m 39 597 q 254 644 153 618 l 261 640 l 261 561 q 481 644 379 644 q 632 590 577 644 q 686 437 686 536 l 686 198 q 688 73 686 113 q 705 49 688 54 l 781 26 l 782 -2 q 626 0 692 0 q 478 -2 559 0 l 475 26 l 543 45 q 560 66 559 51 q 561 109 561 76 l 561 405 q 521 525 561 488 q 403 561 481 561 q 261 522 334 561 l 261 225 q 262 70 261 140 q 278 47 263 52 l 349 26 l 350 -2 q 199 0 266 0 q 42 -2 133 0 l 39 26 l 119 49 q 135 70 134 55 q 136 153 136 113 l 136 385 q 133 549 136 473 l 43 574 l 39 597 m 328 -304 q 393 -201 393 -251 q 342 -127 393 -156 q 362 -78 342 -96 q 410 -59 382 -59 q 466 -83 444 -59 q 487 -144 487 -107 q 351 -330 487 -242 l 328 -304 z "},"ŉ":{"ha":961,"x_min":21,"x_max":935,"o":"m 192 597 q 407 644 306 618 l 414 640 l 414 561 q 633 644 532 644 q 784 590 730 644 q 839 437 839 536 l 839 198 q 840 73 839 113 q 858 49 841 54 l 933 26 l 935 -2 q 779 0 845 0 q 631 -2 712 0 l 628 26 l 696 45 q 713 66 711 51 q 713 109 713 76 l 713 405 q 673 525 713 488 q 555 561 633 561 q 414 522 487 561 l 414 225 q 415 70 414 140 q 431 47 416 52 l 501 26 l 503 -2 q 352 0 418 0 q 195 -2 286 0 l 192 26 l 272 49 q 288 70 287 55 q 288 153 288 113 l 288 385 q 286 549 288 473 l 195 574 l 192 597 m 21 694 q 106 841 106 769 q 40 942 106 904 q 62 1000 40 979 q 118 1022 83 1022 q 180 992 157 1022 q 203 918 203 963 q 164 786 203 848 q 45 666 125 724 l 21 694 z "},"ò":{"ha":751,"x_min":53,"x_max":696,"o":"m 191 320 q 238 114 191 193 q 379 34 286 34 q 512 104 467 34 q 558 312 558 174 q 510 516 558 441 q 370 591 462 591 q 237 524 283 591 q 191 320 191 456 m 696 326 q 603 76 696 172 q 366 -19 510 -19 q 139 71 226 -19 q 53 306 53 161 q 143 550 53 455 q 383 644 234 644 q 610 557 524 644 q 696 326 696 470 m 416 708 l 369 708 l 208 961 l 344 961 l 416 708 m 92 629 z "},"ó":{"ha":751,"x_min":53,"x_max":696,"o":"m 191 320 q 238 114 191 193 q 379 34 286 34 q 512 104 467 34 q 558 312 558 174 q 510 516 558 441 q 370 591 462 591 q 237 524 283 591 q 191 320 191 456 m 696 326 q 603 76 696 172 q 366 -19 510 -19 q 139 71 226 -19 q 53 306 53 161 q 143 550 53 455 q 383 644 234 644 q 610 557 524 644 q 696 326 696 470 m 409 961 l 545 961 l 383 708 l 337 708 l 409 961 m 92 629 z "},"ô":{"ha":751,"x_min":53,"x_max":696,"o":"m 191 320 q 238 114 191 193 q 379 34 286 34 q 512 104 467 34 q 558 312 558 174 q 510 516 558 441 q 370 591 462 591 q 237 524 283 591 q 191 320 191 456 m 696 326 q 603 76 696 172 q 366 -19 510 -19 q 139 71 226 -19 q 53 306 53 161 q 143 550 53 455 q 383 644 234 644 q 610 557 524 644 q 696 326 696 470 m 573 708 l 522 708 l 375 861 l 229 708 l 180 708 l 326 961 l 426 961 l 573 708 m 92 629 z "},"õ":{"ha":751,"x_min":53,"x_max":696,"o":"m 191 320 q 238 114 191 193 q 379 34 286 34 q 512 104 467 34 q 558 312 558 174 q 510 516 558 441 q 370 591 462 591 q 237 524 283 591 q 191 320 191 456 m 696 326 q 603 76 696 172 q 366 -19 510 -19 q 139 71 226 -19 q 53 306 53 161 q 143 550 53 455 q 383 644 234 644 q 610 557 524 644 q 696 326 696 470 m 612 897 q 455 756 532 756 q 407 766 429 756 q 359 793 385 777 q 317 816 333 807 q 283 825 301 825 q 247 813 264 825 q 189 757 229 801 l 154 785 q 237 891 203 860 q 309 922 271 922 q 348 915 330 922 q 400 888 366 907 q 447 862 431 871 q 482 853 464 853 q 520 865 504 853 q 575 921 536 876 l 612 897 m 92 629 z "},"ö":{"ha":751,"x_min":53,"x_max":696,"o":"m 191 320 q 238 114 191 193 q 379 34 286 34 q 512 104 467 34 q 558 312 558 174 q 510 516 558 441 q 370 591 462 591 q 237 524 283 591 q 191 320 191 456 m 696 326 q 603 76 696 172 q 366 -19 510 -19 q 139 71 226 -19 q 53 306 53 161 q 143 550 53 455 q 383 644 234 644 q 610 557 524 644 q 696 326 696 470 m 321 884 q 299 828 321 850 q 244 807 278 807 q 192 827 212 807 q 172 880 172 846 q 193 935 172 915 q 249 956 214 956 q 301 937 281 956 q 321 884 321 918 m 581 884 q 560 828 581 850 q 505 807 538 807 q 452 827 473 807 q 432 880 432 846 q 453 935 432 915 q 509 956 475 956 q 562 937 542 956 q 581 884 581 918 m 92 629 z "},"ō":{"ha":751,"x_min":53,"x_max":696,"o":"m 191 320 q 238 114 191 193 q 379 34 286 34 q 512 104 467 34 q 558 312 558 174 q 510 516 558 441 q 370 591 462 591 q 237 524 283 591 q 191 320 191 456 m 696 326 q 603 76 696 172 q 366 -19 510 -19 q 139 71 226 -19 q 53 306 53 161 q 143 550 53 455 q 383 644 234 644 q 610 557 524 644 q 696 326 696 470 m 193 807 l 193 881 l 559 881 l 559 807 l 193 807 m 92 629 z "},"ŏ":{"ha":751,"x_min":53,"x_max":696,"o":"m 191 320 q 238 114 191 193 q 379 34 286 34 q 512 104 467 34 q 558 312 558 174 q 510 516 558 441 q 370 591 462 591 q 237 524 283 591 q 191 320 191 456 m 696 326 q 603 76 696 172 q 366 -19 510 -19 q 139 71 226 -19 q 53 306 53 161 q 143 550 53 455 q 383 644 234 644 q 610 557 524 644 q 696 326 696 470 m 237 946 q 283 844 247 880 q 378 809 320 809 q 472 844 436 809 q 521 941 507 878 l 566 945 q 515 782 566 846 q 373 718 465 718 q 239 775 288 718 q 191 941 191 833 l 237 946 m 92 629 z "},"ő":{"ha":751,"x_min":53,"x_max":696,"o":"m 191 320 q 238 114 191 193 q 379 34 286 34 q 512 104 467 34 q 558 312 558 174 q 510 516 558 441 q 370 591 462 591 q 237 524 283 591 q 191 320 191 456 m 696 326 q 603 76 696 172 q 366 -19 510 -19 q 139 71 226 -19 q 53 306 53 161 q 143 550 53 455 q 383 644 234 644 q 610 557 524 644 q 696 326 696 470 m 308 961 l 436 961 l 290 708 l 243 708 l 308 961 m 515 961 l 643 961 l 496 708 l 450 708 l 515 961 m 92 629 z "},"ø":{"ha":751,"x_min":53,"x_max":696,"o":"m 696 326 q 603 76 696 172 q 366 -19 510 -19 q 191 28 264 -19 l 133 -48 l 90 -19 l 150 60 q 139 71 144 65 q 53 306 53 161 q 143 550 53 455 q 383 644 234 644 q 558 599 485 644 l 615 674 l 657 644 l 599 568 q 610 557 604 562 q 696 326 696 470 m 378 32 q 513 103 467 32 q 559 312 559 174 q 531 479 559 411 l 245 100 q 378 32 292 32 m 189 320 q 218 149 189 220 l 504 528 q 370 593 456 593 q 236 526 283 593 q 189 320 189 458 z "},"ǿ":{"ha":751,"x_min":53,"x_max":696,"o":"m 696 326 q 603 76 696 172 q 366 -19 510 -19 q 191 28 264 -19 l 133 -48 l 90 -19 l 150 60 q 139 71 144 65 q 53 306 53 161 q 143 550 53 455 q 383 644 234 644 q 558 599 485 644 l 615 674 l 657 644 l 599 568 q 610 557 604 562 q 696 326 696 470 m 378 32 q 513 103 467 32 q 559 312 559 174 q 531 479 559 411 l 245 100 q 378 32 292 32 m 189 320 q 218 149 189 220 l 504 528 q 370 593 456 593 q 236 526 283 593 q 189 320 189 458 m 410 961 l 545 961 l 384 708 l 338 708 l 410 961 m 92 629 z "},"œ":{"ha":1147,"x_min":53,"x_max":1100,"o":"m 1094 48 q 976 -3 1037 12 q 865 -19 916 -19 q 604 90 694 -19 q 359 -19 508 -19 q 138 71 222 -19 q 53 306 53 161 q 141 550 53 455 q 376 644 230 644 q 615 537 528 644 q 850 644 701 644 q 1034 573 968 644 q 1100 375 1100 501 q 1098 336 1100 356 l 672 336 q 740 128 672 191 q 952 65 808 65 q 1090 77 1017 65 l 1094 48 m 191 320 q 236 112 191 192 q 372 32 282 32 q 500 103 456 32 q 544 312 544 174 q 498 518 544 442 q 363 593 452 593 q 235 526 280 593 q 191 320 191 458 m 965 393 l 965 413 q 935 551 965 509 q 844 592 905 592 q 723 534 765 592 q 675 393 681 475 l 965 393 z "},"ŕ":{"ha":532,"x_min":-3,"x_max":511,"o":"m 39 597 q 254 644 153 618 l 261 640 l 261 560 q 507 644 387 644 l 511 640 q 472 431 491 539 l 445 426 q 408 518 426 484 q 353 553 391 553 q 261 519 316 553 l 261 226 q 262 75 261 120 q 279 52 263 56 l 370 26 l 372 -2 q 199 0 266 0 q 42 -2 133 0 l 39 26 l 118 49 q 135 70 134 54 q 136 153 136 99 l 136 385 q 133 549 136 495 l 43 574 l 39 597 m 315 961 l 450 961 l 289 708 l 243 708 l 315 961 m -3 629 z "},"ř":{"ha":532,"x_min":-3,"x_max":511,"o":"m 39 597 q 254 644 153 618 l 261 640 l 261 560 q 507 644 387 644 l 511 640 q 472 431 491 539 l 445 426 q 408 518 426 484 q 353 553 391 553 q 261 519 316 553 l 261 226 q 262 75 261 120 q 279 52 263 56 l 370 26 l 372 -2 q 199 0 266 0 q 42 -2 133 0 l 39 26 l 118 49 q 135 70 134 54 q 136 153 136 99 l 136 385 q 133 549 136 495 l 43 574 l 39 597 m 85 961 l 137 961 l 283 808 l 430 961 l 479 961 l 332 708 l 232 708 l 85 961 m -3 629 z "},"ŗ":{"ha":532,"x_min":39,"x_max":511,"o":"m 39 597 q 254 644 153 618 l 261 640 l 261 560 q 507 644 387 644 l 511 640 q 472 431 491 539 l 445 426 q 408 518 426 484 q 353 553 391 553 q 261 519 316 553 l 261 226 q 262 75 261 120 q 279 52 263 56 l 370 26 l 372 -2 q 199 0 266 0 q 42 -2 133 0 l 39 26 l 118 49 q 135 70 134 54 q 136 153 136 99 l 136 385 q 133 549 136 495 l 43 574 l 39 597 m 121 -304 q 186 -201 186 -251 q 136 -127 186 -156 q 155 -78 136 -96 q 203 -59 175 -59 q 259 -83 237 -59 q 280 -144 280 -107 q 144 -330 280 -242 l 121 -304 z "},"ś":{"ha":562,"x_min":6,"x_max":517,"o":"m 387 576 q 302 587 348 587 q 199 562 238 587 q 160 494 160 537 q 185 429 160 453 q 280 382 211 406 l 336 363 q 473 291 429 332 q 517 183 517 250 q 444 35 517 89 q 258 -19 370 -19 q 47 23 155 -19 q 85 195 71 111 l 111 199 l 160 54 q 258 39 199 39 q 359 64 321 39 q 397 137 397 90 q 371 205 397 180 q 290 249 346 231 l 220 273 q 93 346 128 303 q 58 453 58 389 q 126 593 58 542 q 304 644 193 644 q 491 614 407 644 q 456 451 472 537 l 431 446 l 387 576 m 323 961 l 459 961 l 298 708 l 252 708 l 323 961 m 6 629 z "},"ŝ":{"ha":562,"x_min":6,"x_max":517,"o":"m 387 576 q 302 587 348 587 q 199 562 238 587 q 160 494 160 537 q 185 429 160 453 q 280 382 211 406 l 336 363 q 473 291 429 332 q 517 183 517 250 q 444 35 517 89 q 258 -19 370 -19 q 47 23 155 -19 q 85 195 71 111 l 111 199 l 160 54 q 258 39 199 39 q 359 64 321 39 q 397 137 397 90 q 371 205 397 180 q 290 249 346 231 l 220 273 q 93 346 128 303 q 58 453 58 389 q 126 593 58 542 q 304 644 193 644 q 491 614 407 644 q 456 451 472 537 l 431 446 l 387 576 m 488 708 l 436 708 l 290 861 l 143 708 l 94 708 l 241 961 l 340 961 l 488 708 m 6 629 z "},"š":{"ha":562,"x_min":6,"x_max":517,"o":"m 387 576 q 302 587 348 587 q 199 562 238 587 q 160 494 160 537 q 185 429 160 453 q 280 382 211 406 l 336 363 q 473 291 429 332 q 517 183 517 250 q 444 35 517 89 q 258 -19 370 -19 q 47 23 155 -19 q 85 195 71 111 l 111 199 l 160 54 q 258 39 199 39 q 359 64 321 39 q 397 137 397 90 q 371 205 397 180 q 290 249 346 231 l 220 273 q 93 346 128 303 q 58 453 58 389 q 126 593 58 542 q 304 644 193 644 q 491 614 407 644 q 456 451 472 537 l 431 446 l 387 576 m 94 961 l 146 961 l 292 808 l 439 961 l 488 961 l 340 708 l 241 708 l 94 961 m 6 629 z "},"ş":{"ha":562,"x_min":47,"x_max":517,"o":"m 158 -129 l 243 -18 q 47 23 147 -16 q 85 195 71 111 l 111 199 l 160 54 q 258 39 199 39 q 359 64 321 39 q 397 137 397 90 q 372 205 397 180 q 290 249 347 231 l 220 273 q 93 346 128 303 q 58 453 58 389 q 126 593 58 542 q 304 644 193 644 q 491 614 407 644 q 456 451 472 537 l 431 446 l 387 576 q 302 587 348 587 q 199 562 238 587 q 160 494 160 537 q 185 429 160 453 q 280 382 211 406 l 336 363 q 473 291 429 332 q 517 183 517 250 q 456 45 517 96 q 302 -16 396 -6 l 260 -74 q 342 -159 342 -104 q 200 -330 342 -234 l 176 -304 q 243 -204 243 -250 q 161 -134 243 -155 l 158 -129 z "},"ș":{"ha":562,"x_min":47,"x_max":517,"o":"m 387 576 q 302 587 348 587 q 199 562 238 587 q 160 494 160 537 q 185 429 160 453 q 280 382 211 406 l 336 363 q 473 291 429 332 q 517 183 517 250 q 444 35 517 89 q 258 -19 370 -19 q 47 23 155 -19 q 85 195 71 111 l 111 199 l 160 54 q 258 39 199 39 q 359 64 321 39 q 397 137 397 90 q 371 205 397 180 q 290 249 346 231 l 220 273 q 93 346 128 303 q 58 453 58 389 q 126 593 58 542 q 304 644 193 644 q 491 614 407 644 q 456 451 472 537 l 431 446 l 387 576 m 182 -304 q 247 -201 247 -251 q 197 -127 247 -156 q 216 -78 197 -96 q 264 -59 236 -59 q 320 -83 298 -59 q 341 -144 341 -107 q 205 -330 341 -242 l 182 -304 z "},"ß":{"ha":848,"x_min":39,"x_max":807,"o":"m 136 627 q 220 917 136 812 q 452 1022 303 1022 q 638 953 574 1022 q 702 749 702 884 q 699 684 702 713 q 541 620 593 663 q 488 528 488 577 q 500 487 488 505 q 532 452 512 469 q 578 420 552 435 q 631 389 604 405 q 695 351 663 371 q 751 308 726 332 q 791 255 776 284 q 807 188 807 225 q 734 35 807 89 q 543 -19 662 -19 q 342 23 439 -19 q 378 187 363 94 l 408 192 l 455 54 q 546 39 496 39 q 648 64 611 39 q 685 142 685 90 q 673 189 685 168 q 642 227 661 210 q 596 260 622 245 q 544 290 571 275 q 487 325 515 307 q 436 365 458 342 q 400 415 414 387 q 386 480 386 444 q 439 609 386 549 q 586 703 493 670 q 588 744 588 724 q 549 905 588 842 q 439 968 510 968 q 303 897 346 968 q 261 663 261 825 l 261 214 q 262 -1 261 105 q 200 0 233 0 q 42 -2 133 0 l 39 26 l 115 47 q 134 70 134 54 q 136 159 136 112 l 136 558 l 43 581 l 39 610 l 136 618 l 136 627 z "},"ſ":{"ha":393,"x_min":38,"x_max":574,"o":"m 260 186 q 262 75 260 123 q 279 52 263 56 l 366 26 l 368 -2 q 199 0 265 0 q 41 -2 132 0 l 38 26 l 114 47 q 134 70 133 54 q 135 159 135 112 l 135 558 l 43 581 l 38 610 l 136 618 l 136 621 q 219 917 136 812 q 441 1022 302 1022 q 574 1005 510 1022 q 534 835 551 922 l 506 829 l 462 965 q 422 967 446 967 q 302 897 345 967 q 260 642 260 827 l 260 186 z "},"ť":{"ha":490,"x_min":18,"x_max":511,"o":"m 243 555 q 239 185 239 326 q 260 88 239 115 q 340 61 281 61 q 462 73 387 61 l 466 43 q 256 -16 349 -16 q 146 23 182 -16 q 111 143 111 63 q 115 559 111 275 l 22 582 l 18 610 l 122 618 l 169 783 q 238 802 207 793 l 245 798 q 243 644 243 715 l 243 619 l 447 619 l 447 555 l 243 555 m 351 701 q 415 836 415 770 q 351 928 415 893 q 372 981 351 962 q 427 1001 393 1001 q 488 974 465 1001 q 511 899 511 947 q 477 785 511 842 q 374 675 443 728 l 351 701 m 410 629 z "},"ț":{"ha":490,"x_min":18,"x_max":466,"o":"m 243 555 q 239 185 239 326 q 260 88 239 115 q 340 61 281 61 q 462 73 387 61 l 466 43 q 256 -16 349 -16 q 146 23 182 -16 q 111 143 111 63 q 115 559 111 275 l 22 582 l 18 610 l 122 618 l 169 783 q 238 802 207 793 l 245 798 q 243 644 243 715 l 243 619 l 447 619 l 447 555 l 243 555 m 175 -304 q 240 -201 240 -251 q 190 -127 240 -156 q 210 -78 190 -96 q 258 -59 229 -59 q 313 -83 292 -59 q 334 -144 334 -107 q 199 -330 334 -242 l 175 -304 z "},"ŧ":{"ha":489,"x_min":18,"x_max":465,"o":"m 22 419 l 113 419 q 115 559 114 484 l 22 582 l 18 610 l 122 618 l 168 783 q 237 802 205 793 l 243 798 q 241 644 241 715 l 241 619 l 446 619 l 446 555 l 241 555 q 239 419 239 483 l 446 419 l 446 365 l 238 365 q 237 185 237 261 q 258 88 237 115 q 338 61 279 61 q 460 73 385 61 l 465 43 q 255 -16 347 -16 q 146 23 181 -16 q 111 143 111 63 q 113 365 111 224 l 22 365 l 22 419 z "},"ù":{"ha":791,"x_min":19,"x_max":758,"o":"m 540 60 q 328 -19 434 -19 q 169 35 222 -19 q 115 188 115 90 l 115 332 q 113 549 115 477 l 22 574 l 19 597 q 239 644 138 618 l 245 640 q 241 435 241 560 l 241 220 q 279 101 241 138 q 389 64 318 64 q 533 101 459 64 l 533 390 q 530 549 533 485 l 441 574 l 437 597 q 656 644 555 618 l 663 640 q 659 431 659 558 q 660 131 659 185 q 664 86 661 103 q 677 60 667 69 q 705 47 686 51 q 755 43 724 43 l 758 16 q 686 -7 727 4 q 631 -18 646 -18 q 540 60 562 -18 m 419 708 l 372 708 l 212 961 l 347 961 l 419 708 m 95 629 z "},"ú":{"ha":791,"x_min":19,"x_max":758,"o":"m 540 60 q 328 -19 434 -19 q 169 35 222 -19 q 115 188 115 90 l 115 332 q 113 549 115 477 l 22 574 l 19 597 q 239 644 138 618 l 245 640 q 241 435 241 560 l 241 220 q 279 101 241 138 q 389 64 318 64 q 533 101 459 64 l 533 390 q 530 549 533 485 l 441 574 l 437 597 q 656 644 555 618 l 663 640 q 659 431 659 558 q 660 131 659 185 q 664 86 661 103 q 677 60 667 69 q 705 47 686 51 q 755 43 724 43 l 758 16 q 686 -7 727 4 q 631 -18 646 -18 q 540 60 562 -18 m 412 961 l 548 961 l 387 708 l 340 708 l 412 961 m 95 629 z "},"û":{"ha":791,"x_min":19,"x_max":758,"o":"m 540 60 q 328 -19 434 -19 q 169 35 222 -19 q 115 188 115 90 l 115 332 q 113 549 115 477 l 22 574 l 19 597 q 239 644 138 618 l 245 640 q 241 435 241 560 l 241 220 q 279 101 241 138 q 389 64 318 64 q 533 101 459 64 l 533 390 q 530 549 533 485 l 441 574 l 437 597 q 656 644 555 618 l 663 640 q 659 431 659 558 q 660 131 659 185 q 664 86 661 103 q 677 60 667 69 q 705 47 686 51 q 755 43 724 43 l 758 16 q 686 -7 727 4 q 631 -18 646 -18 q 540 60 562 -18 m 576 708 l 525 708 l 378 861 l 232 708 l 183 708 l 330 961 l 429 961 l 576 708 m 95 629 z "},"ũ":{"ha":791,"x_min":19,"x_max":758,"o":"m 540 60 q 328 -19 434 -19 q 169 35 222 -19 q 115 188 115 90 l 115 332 q 113 549 115 477 l 22 574 l 19 597 q 239 644 138 618 l 245 640 q 241 435 241 560 l 241 220 q 279 101 241 138 q 389 64 318 64 q 533 101 459 64 l 533 390 q 530 549 533 485 l 441 574 l 437 597 q 656 644 555 618 l 663 640 q 659 431 659 558 q 660 131 659 185 q 664 86 661 103 q 677 60 667 69 q 705 47 686 51 q 755 43 724 43 l 758 16 q 686 -7 727 4 q 631 -18 646 -18 q 540 60 562 -18 m 616 897 q 458 756 536 756 q 411 766 433 756 q 362 793 389 777 q 320 816 336 807 q 287 825 304 825 q 250 813 267 825 q 193 757 233 801 l 157 785 q 240 891 206 860 q 312 922 274 922 q 352 915 334 922 q 404 888 370 907 q 451 862 434 871 q 486 853 467 853 q 523 865 507 853 q 578 921 539 876 l 616 897 m 95 629 z "},"ü":{"ha":791,"x_min":19,"x_max":758,"o":"m 540 60 q 328 -19 434 -19 q 169 35 222 -19 q 115 188 115 90 l 115 332 q 113 549 115 477 l 22 574 l 19 597 q 239 644 138 618 l 245 640 q 241 435 241 560 l 241 220 q 279 101 241 138 q 389 64 318 64 q 533 101 459 64 l 533 390 q 530 549 533 485 l 441 574 l 437 597 q 656 644 555 618 l 663 640 q 659 431 659 558 q 660 131 659 185 q 664 86 661 103 q 677 60 667 69 q 705 47 686 51 q 755 43 724 43 l 758 16 q 686 -7 727 4 q 631 -18 646 -18 q 540 60 562 -18 m 324 884 q 303 828 324 850 q 248 807 281 807 q 195 827 215 807 q 175 880 175 846 q 196 935 175 915 q 252 956 218 956 q 304 937 284 956 q 324 884 324 918 m 585 884 q 563 828 585 850 q 508 807 542 807 q 456 827 476 807 q 435 880 435 846 q 457 935 435 915 q 513 956 478 956 q 565 937 545 956 q 585 884 585 918 m 95 629 z "},"ū":{"ha":791,"x_min":19,"x_max":758,"o":"m 540 60 q 328 -19 434 -19 q 169 35 222 -19 q 115 188 115 90 l 115 332 q 113 549 115 477 l 22 574 l 19 597 q 239 644 138 618 l 245 640 q 241 435 241 560 l 241 220 q 279 101 241 138 q 389 64 318 64 q 533 101 459 64 l 533 390 q 530 549 533 485 l 441 574 l 437 597 q 656 644 555 618 l 663 640 q 659 431 659 558 q 660 131 659 185 q 664 86 661 103 q 677 60 667 69 q 705 47 686 51 q 755 43 724 43 l 758 16 q 686 -7 727 4 q 631 -18 646 -18 q 540 60 562 -18 m 196 807 l 196 881 l 563 881 l 563 807 l 196 807 m 95 629 z "},"ŭ":{"ha":791,"x_min":19,"x_max":758,"o":"m 540 60 q 328 -19 434 -19 q 169 35 222 -19 q 115 188 115 90 l 115 332 q 113 549 115 477 l 22 574 l 19 597 q 239 644 138 618 l 245 640 q 241 435 241 560 l 241 220 q 279 101 241 138 q 389 64 318 64 q 533 101 459 64 l 533 390 q 530 549 533 485 l 441 574 l 437 597 q 656 644 555 618 l 663 640 q 659 431 659 558 q 660 131 659 185 q 664 86 661 103 q 677 60 667 69 q 705 47 686 51 q 755 43 724 43 l 758 16 q 686 -7 727 4 q 631 -18 646 -18 q 540 60 562 -18 m 241 946 q 287 844 250 880 q 381 809 323 809 q 475 844 439 809 q 524 941 511 878 l 569 945 q 518 782 569 846 q 376 718 468 718 q 243 775 291 718 q 195 941 195 833 l 241 946 m 95 629 z "},"ů":{"ha":791,"x_min":19,"x_max":758,"o":"m 540 60 q 328 -19 434 -19 q 169 35 222 -19 q 115 188 115 90 l 115 332 q 113 549 115 477 l 22 574 l 19 597 q 239 644 138 618 l 245 640 q 241 435 241 560 l 241 220 q 279 101 241 138 q 389 64 318 64 q 533 101 459 64 l 533 390 q 530 549 533 485 l 441 574 l 437 597 q 656 644 555 618 l 663 640 q 659 431 659 558 q 660 131 659 185 q 664 86 661 103 q 677 60 667 69 q 705 47 686 51 q 755 43 724 43 l 758 16 q 686 -7 727 4 q 631 -18 646 -18 q 540 60 562 -18 m 376 708 q 269 740 309 708 q 229 830 229 772 q 274 928 229 891 q 383 966 319 966 q 489 931 446 966 q 531 838 531 896 q 487 743 531 779 q 376 708 444 708 m 380 749 q 435 769 414 749 q 456 832 456 789 q 435 900 456 875 q 380 924 414 924 q 324 904 345 924 q 303 840 303 883 q 325 773 303 797 q 380 749 346 749 m 95 629 z "},"ű":{"ha":791,"x_min":19,"x_max":758,"o":"m 540 60 q 328 -19 434 -19 q 169 35 222 -19 q 115 188 115 90 l 115 332 q 113 549 115 477 l 22 574 l 19 597 q 239 644 138 618 l 245 640 q 241 435 241 560 l 241 220 q 279 101 241 138 q 389 64 318 64 q 533 101 459 64 l 533 390 q 530 549 533 485 l 441 574 l 437 597 q 656 644 555 618 l 663 640 q 659 431 659 558 q 660 131 659 185 q 664 86 661 103 q 677 60 667 69 q 705 47 686 51 q 755 43 724 43 l 758 16 q 686 -7 727 4 q 631 -18 646 -18 q 540 60 562 -18 m 311 961 l 439 961 l 293 708 l 247 708 l 311 961 m 518 961 l 646 961 l 499 708 l 453 708 l 518 961 m 95 629 z "},"ų":{"ha":791,"x_min":19,"x_max":758,"o":"m 648 -16 q 600 -62 619 -26 q 580 -143 580 -98 q 617 -237 580 -201 q 725 -272 654 -272 q 755 -271 738 -272 l 758 -297 q 616 -332 661 -332 q 508 -294 548 -332 q 467 -194 467 -256 q 587 -8 467 -87 q 540 60 553 15 q 328 -19 434 -19 q 169 35 222 -19 q 115 188 115 90 l 115 332 q 113 549 115 477 l 22 574 l 19 597 q 239 644 138 618 l 245 640 q 241 435 241 560 l 241 220 q 279 101 241 138 q 389 64 318 64 q 533 101 459 64 l 533 390 q 530 549 533 485 l 441 574 l 437 597 q 656 644 555 618 l 663 640 q 659 431 659 558 q 660 131 659 185 q 664 86 661 103 q 677 60 667 69 q 705 47 686 51 q 755 43 724 43 l 758 16 q 686 -7 727 4 q 648 -16 663 -14 z "},"ẁ":{"ha":1017,"x_min":-12,"x_max":1023,"o":"m -12 629 q 132 627 85 627 q 284 629 199 627 l 287 601 l 207 579 q 321 239 252 428 q 349 157 336 199 q 377 238 362 198 q 459 465 431 383 q 513 624 487 546 l 562 629 q 615 465 588 547 q 693 239 642 383 q 720 157 709 195 q 749 238 733 196 q 874 580 825 429 l 798 602 l 795 629 q 910 627 849 627 q 1020 629 970 627 l 1023 602 l 969 587 q 935 554 946 580 q 822 276 871 400 q 715 -1 772 153 l 654 -7 q 585 187 612 112 q 526 350 557 262 q 503 419 512 386 q 478 352 492 387 q 414 186 444 262 q 345 -1 385 110 l 286 -7 q 180 276 228 153 q 73 555 133 399 q 39 587 64 580 l -10 601 l -12 629 m 557 708 l 511 708 l 350 961 l 486 961 l 557 708 m 233 629 z "},"ẃ":{"ha":1017,"x_min":-12,"x_max":1023,"o":"m -12 629 q 132 627 85 627 q 284 629 199 627 l 287 601 l 207 579 q 321 239 252 428 q 349 157 336 199 q 377 238 362 198 q 459 465 431 383 q 513 624 487 546 l 562 629 q 615 465 588 547 q 693 239 642 383 q 720 157 709 195 q 749 238 733 196 q 874 580 825 429 l 798 602 l 795 629 q 910 627 849 627 q 1020 629 970 627 l 1023 602 l 969 587 q 935 554 946 580 q 822 276 871 400 q 715 -1 772 153 l 654 -7 q 585 187 612 112 q 526 350 557 262 q 503 419 512 386 q 478 352 492 387 q 414 186 444 262 q 345 -1 385 110 l 286 -7 q 180 276 228 153 q 73 555 133 399 q 39 587 64 580 l -10 601 l -12 629 m 551 961 l 686 961 l 525 708 l 479 708 l 551 961 m 233 629 z "},"ŵ":{"ha":1017,"x_min":-12,"x_max":1023,"o":"m -12 629 q 132 627 85 627 q 284 629 199 627 l 287 601 l 207 579 q 321 239 252 428 q 349 157 336 199 q 377 238 362 198 q 459 465 431 383 q 513 624 487 546 l 562 629 q 615 465 588 547 q 693 239 642 383 q 720 157 709 195 q 749 238 733 196 q 874 580 825 429 l 798 602 l 795 629 q 910 627 849 627 q 1020 629 970 627 l 1023 602 l 969 587 q 935 554 946 580 q 822 276 871 400 q 715 -1 772 153 l 654 -7 q 585 187 612 112 q 526 350 557 262 q 503 419 512 386 q 478 352 492 387 q 414 186 444 262 q 345 -1 385 110 l 286 -7 q 180 276 228 153 q 73 555 133 399 q 39 587 64 580 l -10 601 l -12 629 m 715 708 l 663 708 l 517 861 l 370 708 l 321 708 l 468 961 l 568 961 l 715 708 m 233 629 z "},"ẅ":{"ha":1017,"x_min":-12,"x_max":1023,"o":"m -12 629 q 132 627 85 627 q 284 629 199 627 l 287 601 l 207 579 q 321 239 252 428 q 349 157 336 199 q 377 238 362 198 q 459 465 431 383 q 513 624 487 546 l 562 629 q 615 465 588 547 q 693 239 642 383 q 720 157 709 195 q 749 238 733 196 q 874 580 825 429 l 798 602 l 795 629 q 910 627 849 627 q 1020 629 970 627 l 1023 602 l 969 587 q 935 554 946 580 q 822 276 871 400 q 715 -1 772 153 l 654 -7 q 585 187 612 112 q 526 350 557 262 q 503 419 512 386 q 478 352 492 387 q 414 186 444 262 q 345 -1 385 110 l 286 -7 q 180 276 228 153 q 73 555 133 399 q 39 587 64 580 l -10 601 l -12 629 m 463 884 q 441 828 463 850 q 386 807 420 807 q 333 827 353 807 q 313 880 313 846 q 335 935 313 915 q 391 956 356 956 q 443 937 422 956 q 463 884 463 918 m 723 884 q 702 828 723 850 q 646 807 680 807 q 594 827 614 807 q 574 880 574 846 q 595 935 574 915 q 651 956 616 956 q 703 937 684 956 q 723 884 723 918 m 233 629 z "},"ỳ":{"ha":669,"x_min":-20,"x_max":685,"o":"m -20 629 q 132 627 65 627 q 277 629 177 627 l 279 601 l 200 579 q 258 422 225 508 q 329 243 292 336 q 363 155 345 205 q 404 258 382 205 q 465 413 435 337 q 527 579 495 490 l 450 601 l 447 629 q 564 627 497 627 q 682 629 625 627 l 685 601 l 622 583 q 591 555 601 576 q 537 429 566 498 q 401 85 448 219 q 345 -101 370 -6 q 307 -265 320 -197 q 282 -316 300 -298 q 195 -333 263 -333 q 59 -328 125 -333 l 56 -302 q 166 -254 130 -290 q 300 -5 210 -207 l 306 8 l 296 11 q 72 555 172 320 q 41 583 63 575 l -19 601 l -20 629 m 385 708 l 338 708 l 178 961 l 313 961 l 385 708 m 61 629 z "},"ý":{"ha":669,"x_min":-20,"x_max":685,"o":"m -20 629 q 132 627 65 627 q 277 629 177 627 l 279 601 l 200 579 q 258 422 225 508 q 329 243 292 336 q 363 155 345 205 q 404 258 382 205 q 465 413 435 337 q 527 579 495 490 l 450 601 l 447 629 q 564 627 497 627 q 682 629 625 627 l 685 601 l 622 583 q 591 555 601 576 q 537 429 566 498 q 401 85 448 219 q 345 -101 370 -6 q 307 -265 320 -197 q 282 -316 300 -298 q 195 -333 263 -333 q 59 -328 125 -333 l 56 -302 q 166 -254 130 -290 q 300 -5 210 -207 l 306 8 l 296 11 q 72 555 172 320 q 41 583 63 575 l -19 601 l -20 629 m 378 961 l 514 961 l 353 708 l 307 708 l 378 961 m 61 629 z "},"ŷ":{"ha":669,"x_min":-20,"x_max":685,"o":"m -20 629 q 132 627 65 627 q 277 629 177 627 l 279 601 l 200 579 q 258 422 225 508 q 329 243 292 336 q 363 155 345 205 q 404 258 382 205 q 465 413 435 337 q 527 579 495 490 l 450 601 l 447 629 q 564 627 497 627 q 682 629 625 627 l 685 601 l 622 583 q 591 555 601 576 q 537 429 566 498 q 401 85 448 219 q 345 -101 370 -6 q 307 -265 320 -197 q 282 -316 300 -298 q 195 -333 263 -333 q 59 -328 125 -333 l 56 -302 q 166 -254 130 -290 q 300 -5 210 -207 l 306 8 l 296 11 q 72 555 172 320 q 41 583 63 575 l -19 601 l -20 629 m 543 708 l 491 708 l 345 861 l 198 708 l 149 708 l 296 961 l 395 961 l 543 708 m 61 629 z "},"ÿ":{"ha":669,"x_min":-20,"x_max":685,"o":"m -20 629 q 132 627 65 627 q 277 629 177 627 l 279 601 l 200 579 q 258 422 225 508 q 329 243 292 336 q 363 155 345 205 q 404 258 382 205 q 465 413 435 337 q 527 579 495 490 l 450 601 l 447 629 q 564 627 497 627 q 682 629 625 627 l 685 601 l 622 583 q 591 555 601 576 q 537 429 566 498 q 401 85 448 219 q 345 -101 370 -6 q 307 -265 320 -197 q 282 -316 300 -298 q 195 -333 263 -333 q 59 -328 125 -333 l 56 -302 q 166 -254 130 -290 q 300 -5 210 -207 l 306 8 l 296 11 q 72 555 172 320 q 41 583 63 575 l -19 601 l -20 629 m 290 884 q 269 828 290 850 q 214 807 248 807 q 161 827 181 807 q 141 880 141 846 q 162 935 141 915 q 218 956 184 956 q 270 937 250 956 q 290 884 290 918 m 551 884 q 529 828 551 850 q 474 807 508 807 q 422 827 442 807 q 401 880 401 846 q 423 935 401 915 q 479 956 444 956 q 531 937 511 956 q 551 884 551 918 m 61 629 z "},"ź":{"ha":667,"x_min":47,"x_max":610,"o":"m 47 6 q 239 286 162 172 q 431 574 315 399 l 166 574 l 122 437 l 95 433 q 61 623 79 538 l 63 629 q 330 627 201 627 q 602 629 460 627 l 606 621 q 418 342 508 476 q 228 54 328 208 l 498 54 l 583 195 l 610 199 q 594 3 600 104 l 590 -2 q 315 0 473 0 q 52 -2 171 0 l 47 6 m 365 961 l 500 961 l 339 708 l 293 708 l 365 961 m 47 629 z "},"ž":{"ha":667,"x_min":47,"x_max":610,"o":"m 47 6 q 239 286 162 172 q 431 574 315 399 l 166 574 l 122 437 l 95 433 q 61 623 79 538 l 63 629 q 330 627 201 627 q 602 629 460 627 l 606 621 q 418 342 508 476 q 228 54 328 208 l 498 54 l 583 195 l 610 199 q 594 3 600 104 l 590 -2 q 315 0 473 0 q 52 -2 171 0 l 47 6 m 136 961 l 187 961 l 334 808 l 480 961 l 529 961 l 382 708 l 282 708 l 136 961 m 47 629 z "},"ż":{"ha":667,"x_min":47,"x_max":610,"o":"m 47 6 q 239 286 162 172 q 431 574 315 399 l 166 574 l 122 437 l 95 433 q 61 623 79 538 l 63 629 q 330 627 201 627 q 602 629 460 627 l 606 621 q 418 342 508 476 q 228 54 328 208 l 498 54 l 583 195 l 610 199 q 594 3 600 104 l 590 -2 q 315 0 473 0 q 52 -2 171 0 l 47 6 m 410 884 q 388 826 410 848 q 330 803 366 803 q 275 824 296 803 q 254 880 254 845 q 276 938 254 916 q 335 959 299 959 q 390 940 369 959 q 410 884 410 920 m 47 629 z "},"ŋ":{"ha":784,"x_min":39,"x_max":679,"o":"m 261 522 l 261 225 q 261 144 261 182 q 262 70 262 105 q 278 47 263 52 l 349 26 l 350 -2 q 199 0 265 0 q 42 -2 132 0 l 39 26 l 119 49 q 135 70 134 55 q 136 113 136 92 q 136 153 136 134 l 136 385 q 135 470 136 429 q 133 549 134 511 l 43 574 l 39 597 q 150 620 97 608 q 254 644 203 631 l 261 640 l 261 561 q 477 644 377 644 q 626 591 573 644 q 679 437 679 537 l 679 34 q 602 -240 679 -149 q 397 -331 526 -331 q 264 -313 330 -331 q 298 -192 277 -252 l 303 -190 q 429 -273 376 -273 q 522 -216 490 -273 q 553 -1 553 -159 l 553 405 q 515 525 553 488 q 399 561 476 561 q 261 522 333 561 z "},"ð":{"ha":761,"x_min":54,"x_max":699,"o":"m 179 751 l 366 848 q 150 993 273 933 l 151 1001 l 321 1001 q 467 900 401 958 l 629 983 l 658 939 l 507 861 q 699 378 699 656 q 611 89 699 196 q 366 -19 524 -19 q 140 69 227 -19 q 54 302 54 157 q 139 541 54 446 q 361 636 225 636 q 542 570 475 636 l 546 572 q 406 808 503 707 l 208 705 l 179 751 m 565 339 q 517 520 565 458 q 386 582 469 582 q 242 513 292 582 q 191 322 191 445 q 241 115 191 195 q 378 34 291 34 q 517 117 469 34 q 565 339 565 201 z "},"þ":{"ha":774,"x_min":21,"x_max":720,"o":"m 244 711 l 244 573 q 445 644 348 644 q 645 560 570 644 q 720 340 720 475 q 624 78 720 174 q 353 -19 528 -19 q 244 -9 300 -19 l 244 -157 q 245 -252 244 -225 q 264 -277 247 -273 l 353 -302 l 354 -330 q 182 -328 249 -328 q 25 -330 116 -328 l 22 -302 l 100 -279 q 117 -258 117 -274 q 119 -108 119 -208 l 119 644 q 116 924 119 794 l 24 951 l 21 974 q 241 1022 132 995 l 248 1017 q 244 711 244 915 m 244 52 q 358 39 303 39 q 527 110 470 39 q 584 312 584 180 q 530 499 584 436 q 374 562 476 562 q 244 532 301 562 l 244 52 z "},"ⁿ":{"ha":494,"x_min":20,"x_max":481,"o":"m 20 790 q 172 819 96 803 l 176 816 l 176 774 q 303 819 244 819 q 390 787 359 819 q 421 699 421 756 l 421 565 q 422 492 421 515 q 433 479 422 481 l 479 465 l 481 445 q 377 446 425 446 q 279 445 326 446 l 277 465 l 318 476 q 327 488 326 479 q 327 513 327 494 l 327 675 q 307 742 327 722 q 248 762 288 762 q 176 743 213 762 l 176 581 q 177 490 176 531 q 185 477 177 480 l 227 465 l 229 445 q 130 446 179 446 q 24 445 81 446 l 23 465 l 73 479 q 81 490 81 481 q 82 538 82 515 l 82 669 q 81 758 82 721 l 22 773 l 20 790 z "},"ﬀ":{"ha":848,"x_min":39,"x_max":992,"o":"m 261 557 l 261 186 q 262 73 261 120 q 280 49 264 54 l 359 26 l 361 -2 q 200 0 266 0 q 42 -2 133 0 l 39 26 l 115 47 q 134 70 134 54 q 136 159 136 112 l 136 558 l 43 581 l 39 610 l 136 618 q 219 909 136 804 q 442 1015 302 1015 q 573 998 511 1015 q 534 827 550 915 l 507 823 l 466 957 q 423 960 447 960 q 303 890 345 960 q 261 635 261 821 l 261 619 l 554 619 l 554 621 q 637 917 554 812 q 860 1022 720 1022 q 992 1005 928 1022 q 953 835 969 922 l 924 829 l 880 965 q 841 967 865 967 q 721 897 763 967 q 679 642 679 827 l 679 619 l 848 619 l 848 557 l 679 557 l 679 186 q 680 75 679 123 q 698 52 682 56 l 784 26 l 785 -2 q 618 0 684 0 q 467 -2 551 0 l 464 26 l 532 45 q 552 68 551 52 q 553 159 553 110 l 553 557 l 261 557 z "},"ﬁ":{"ha":811,"x_min":39,"x_max":777,"o":"m 261 557 l 261 186 q 262 73 261 120 q 280 49 264 54 l 359 26 l 361 -2 q 200 0 266 0 q 42 -2 133 0 l 39 26 l 115 47 q 134 70 134 54 q 136 159 136 112 l 136 558 l 43 581 l 39 610 l 136 618 l 136 621 q 235 917 136 812 q 498 1022 334 1022 q 654 1005 581 1022 q 616 835 632 922 l 589 829 l 535 964 q 478 967 509 967 q 317 897 374 967 q 261 642 261 827 l 261 619 l 570 619 q 677 644 625 631 l 683 640 q 679 446 679 551 l 679 185 q 680 73 679 104 q 697 49 682 54 l 776 26 l 777 -2 q 618 0 684 0 q 467 -2 551 0 l 464 26 l 535 47 q 552 68 551 52 q 553 159 553 94 l 553 557 l 261 557 z "},"ﬃ":{"ha":1229,"x_min":39,"x_max":1195,"o":"m 679 557 l 679 186 q 680 73 679 120 q 698 49 682 54 l 777 26 l 779 -2 q 618 0 684 0 q 459 -2 551 0 l 456 26 l 532 47 q 552 70 551 54 q 553 159 553 112 l 553 557 l 261 557 l 261 186 q 262 73 261 120 q 280 49 264 54 l 359 26 l 361 -2 q 200 0 266 0 q 42 -2 133 0 l 39 26 l 115 47 q 134 70 134 54 q 136 159 136 112 l 136 558 l 43 581 l 39 610 l 136 618 q 219 909 136 804 q 442 1015 302 1015 q 573 998 511 1015 q 534 827 550 915 l 507 823 l 466 957 q 423 960 447 960 q 303 890 345 960 q 261 635 261 821 l 261 619 l 554 619 l 554 621 q 653 917 554 812 q 916 1022 751 1022 q 1072 1005 998 1022 q 1034 835 1049 922 l 1006 829 l 953 964 q 896 967 927 967 q 735 897 791 967 q 679 642 679 827 l 679 619 l 987 619 q 1095 644 1043 631 l 1101 640 q 1097 446 1097 551 l 1097 185 q 1098 73 1097 104 q 1115 49 1099 54 l 1194 26 l 1195 -2 q 1035 0 1101 0 q 884 -2 968 0 l 882 26 l 953 47 q 970 68 968 52 q 971 159 971 94 l 971 557 l 679 557 z "},"ﬂ":{"ha":814,"x_min":39,"x_max":779,"o":"m 261 555 l 261 186 q 262 73 261 120 q 280 49 264 54 l 359 26 l 361 -2 q 200 0 266 0 q 42 -2 133 0 l 39 26 l 115 47 q 134 70 134 54 q 136 159 136 112 l 136 558 l 43 581 l 39 610 l 136 618 l 136 621 q 232 917 136 812 q 484 1022 328 1022 q 611 1006 556 1022 q 680 1022 646 1013 l 686 1017 q 682 709 682 906 l 682 268 q 684 73 682 146 q 703 48 686 53 l 777 26 l 779 -2 q 621 0 687 0 q 470 -2 554 0 l 467 26 l 537 46 q 555 68 554 52 q 557 241 557 144 l 557 949 q 473 964 526 964 q 315 896 368 964 q 261 642 261 827 l 261 619 l 440 619 l 440 555 l 261 555 z "},"ﬄ":{"ha":1232,"x_min":39,"x_max":1196,"o":"m 679 557 l 679 186 q 680 73 679 120 q 698 49 682 54 l 777 26 l 779 -2 q 618 0 684 0 q 459 -2 551 0 l 456 26 l 532 47 q 552 70 551 54 q 553 159 553 112 l 553 557 l 263 557 l 263 186 q 264 73 263 120 q 283 49 266 54 l 363 26 l 364 -2 q 201 0 268 0 q 42 -2 133 0 l 39 26 l 115 47 q 134 70 134 54 q 136 159 136 112 l 136 558 l 43 581 l 39 610 l 136 618 q 219 909 136 804 q 442 1015 302 1015 q 573 998 511 1015 q 534 827 550 915 l 507 823 l 466 957 q 423 960 447 960 q 303 890 345 960 q 261 635 261 821 l 261 619 l 554 619 l 554 621 q 650 917 554 812 q 902 1021 745 1021 q 1029 1005 974 1021 q 1098 1021 1064 1013 l 1104 1016 q 1100 709 1100 906 l 1100 268 q 1101 73 1100 146 q 1120 48 1103 53 l 1194 26 l 1196 -2 q 1038 0 1105 0 q 888 -2 972 0 l 885 26 l 955 46 q 973 68 972 52 q 975 241 975 144 l 975 949 q 890 964 943 964 q 732 896 786 964 q 679 642 679 827 l 679 619 l 858 619 l 858 557 l 679 557 z "},"&":{"ha":940,"x_min":54,"x_max":926,"o":"m 595 528 q 672 526 633 527 q 750 526 710 526 q 815 526 785 526 q 872 528 845 527 l 874 498 l 789 477 q 778 462 776 474 q 782 398 782 427 q 713 155 782 257 q 794 64 758 93 q 880 35 831 35 q 921 39 899 35 l 926 9 q 802 -22 867 -22 q 620 69 695 -22 q 364 -19 504 -19 q 144 49 233 -19 q 54 233 54 117 q 251 493 54 390 q 156 630 177 580 q 136 733 136 680 q 204 888 136 830 q 374 947 273 947 q 525 897 464 947 q 586 761 586 848 q 391 524 586 621 l 667 207 q 712 387 712 286 q 708 454 712 429 q 700 473 706 467 q 680 481 693 478 l 596 498 l 595 528 m 283 454 q 187 256 187 375 q 244 107 187 162 q 401 52 300 52 q 579 116 498 52 l 283 454 m 361 559 q 473 757 473 644 q 442 855 473 818 q 362 892 410 892 q 281 860 312 892 q 250 774 250 827 q 329 595 250 685 l 361 559 z "},"`":{"ha":570,"x_min":0,"x_max":324,"o":"m 324 708 l 277 708 l 117 961 l 252 961 l 324 708 m 0 629 z "},"̀":{"ha":0,"x_min":-569,"x_max":-245,"o":"m -245 708 l -292 708 l -452 961 l -317 961 l -245 708 m -569 629 z "},"´":{"ha":570,"x_min":0,"x_max":453,"o":"m 317 961 l 453 961 l 292 708 l 245 708 l 317 961 m 0 629 z "},"́":{"ha":0,"x_min":-569,"x_max":-116,"o":"m -252 961 l -116 961 l -277 708 l -323 708 l -252 961 m -569 629 z "},"ˆ":{"ha":570,"x_min":0,"x_max":481,"o":"m 481 708 l 430 708 l 283 861 l 137 708 l 88 708 l 235 961 l 334 961 l 481 708 m 0 629 z "},"̂":{"ha":0,"x_min":-569,"x_max":-87,"o":"m -87 708 l -139 708 l -286 861 l -432 708 l -481 708 l -334 961 l -235 961 l -87 708 m -569 629 z "},"ˇ":{"ha":570,"x_min":0,"x_max":481,"o":"m 88 961 l 140 961 l 286 808 l 433 961 l 481 961 l 334 708 l 235 708 l 88 961 m 0 629 z "},"̌":{"ha":0,"x_min":-569,"x_max":-87,"o":"m -481 961 l -429 961 l -283 808 l -136 961 l -87 961 l -235 708 l -334 708 l -481 961 m -569 629 z "},"̕":{"ha":81,"x_min":-59,"x_max":101,"o":"m -59 701 q 5 836 5 770 q -59 928 5 893 q -38 981 -59 962 q 18 1001 -16 1001 q 78 974 55 1001 q 101 899 101 947 q 67 785 101 842 q -35 675 33 728 l -59 701 m 0 629 z "},"˜":{"ha":570,"x_min":0,"x_max":521,"o":"m 521 897 q 363 756 441 756 q 316 766 338 756 q 267 793 294 777 q 225 816 241 807 q 192 825 210 825 q 155 813 172 825 q 98 757 138 801 l 62 785 q 145 891 111 860 q 217 922 179 922 q 257 915 239 922 q 309 888 275 907 q 356 862 339 871 q 391 853 372 853 q 428 865 412 853 q 484 921 444 876 l 521 897 m 0 629 z "},"̃":{"ha":0,"x_min":-569,"x_max":-48,"o":"m -48 897 q -205 756 -128 756 q -253 766 -231 756 q -302 793 -275 777 q -343 816 -328 807 q -377 825 -359 825 q -414 813 -397 825 q -471 757 -431 801 l -507 785 q -424 891 -458 860 q -352 922 -390 922 q -312 915 -330 922 q -260 888 -294 907 q -213 862 -230 871 q -178 853 -197 853 q -141 865 -157 853 q -85 921 -125 876 l -48 897 m -569 629 z "},"¨":{"ha":570,"x_min":0,"x_max":490,"o":"m 229 884 q 208 828 229 850 q 153 807 186 807 q 100 827 120 807 q 80 880 80 846 q 101 935 80 915 q 157 956 123 956 q 209 937 189 956 q 229 884 229 918 m 490 884 q 468 828 490 850 q 413 807 447 807 q 361 827 381 807 q 340 880 340 846 q 362 935 340 915 q 418 956 383 956 q 470 937 450 956 q 490 884 490 918 m 0 629 z "},"̈":{"ha":0,"x_min":-569,"x_max":-79,"o":"m -340 884 q -361 828 -340 850 q -416 807 -382 807 q -469 827 -449 807 q -489 880 -489 846 q -468 935 -489 915 q -412 956 -446 956 q -360 937 -380 956 q -340 884 -340 918 m -79 884 q -101 828 -79 850 q -156 807 -122 807 q -208 827 -188 807 q -229 880 -229 846 q -207 935 -229 915 q -151 956 -186 956 q -99 937 -119 956 q -79 884 -79 918 m -569 629 z "},"¯":{"ha":570,"x_min":0,"x_max":468,"o":"m 101 807 l 101 881 l 468 881 l 468 807 l 101 807 m 0 629 z "},"̄":{"ha":0,"x_min":-569,"x_max":-101,"o":"m -468 807 l -468 881 l -101 881 l -101 807 l -468 807 m -569 629 z "},"˘":{"ha":570,"x_min":0,"x_max":474,"o":"m 146 946 q 192 844 155 880 q 286 809 229 809 q 380 844 345 809 q 429 941 416 878 l 474 945 q 424 782 474 846 q 281 718 373 718 q 148 775 196 718 q 100 941 100 833 l 146 946 m 0 629 z "},"̆":{"ha":0,"x_min":-569,"x_max":-95,"o":"m -423 946 q -377 844 -414 880 q -283 809 -340 809 q -189 844 -224 809 q -140 941 -153 878 l -95 945 q -145 782 -95 846 q -288 718 -196 718 q -421 775 -373 718 q -469 941 -469 833 l -423 946 m -569 629 z "},"˚":{"ha":570,"x_min":0,"x_max":436,"o":"m 281 708 q 174 740 214 708 q 134 830 134 772 q 179 928 134 891 q 288 966 224 966 q 394 931 351 966 q 436 838 436 896 q 392 743 436 779 q 281 708 349 708 m 285 749 q 340 769 319 749 q 361 832 361 789 q 340 900 361 875 q 285 924 319 924 q 229 904 250 924 q 208 840 208 883 q 230 773 208 797 q 285 749 251 749 m 0 629 z "},"̊":{"ha":0,"x_min":-569,"x_max":-133,"o":"m -288 708 q -395 740 -355 708 q -435 830 -435 772 q -390 928 -435 891 q -281 966 -345 966 q -175 931 -218 966 q -133 838 -133 896 q -177 743 -133 779 q -288 708 -220 708 m -284 749 q -229 769 -250 749 q -208 832 -208 789 q -229 900 -208 875 q -284 924 -250 924 q -340 904 -319 924 q -361 840 -361 883 q -339 773 -361 797 q -284 749 -318 749 m -569 629 z "},"˝":{"ha":570,"x_min":0,"x_max":551,"o":"m 216 961 l 345 961 l 198 708 l 152 708 l 216 961 m 423 961 l 551 961 l 404 708 l 358 708 l 423 961 m 0 629 z "},"̋":{"ha":0,"x_min":-569,"x_max":-18,"o":"m -353 961 l -224 961 l -371 708 l -417 708 l -353 961 m -146 961 l -18 961 l -165 708 l -211 708 l -146 961 m -569 629 z "},"˙":{"ha":570,"x_min":0,"x_max":363,"o":"m 363 884 q 340 826 363 848 q 283 803 318 803 q 228 824 249 803 q 206 880 206 845 q 229 938 206 916 q 288 959 252 959 q 342 940 321 959 q 363 884 363 920 m 0 629 z "},"̇":{"ha":0,"x_min":-569,"x_max":-206,"o":"m -206 884 q -229 826 -206 848 q -286 803 -251 803 q -341 824 -320 803 q -363 880 -363 845 q -340 938 -363 916 q -281 959 -317 959 q -227 940 -248 959 q -206 884 -206 920 m -569 629 z "},"¸":{"ha":570,"x_min":165,"x_max":349,"o":"m 165 -129 l 264 0 l 323 0 l 267 -74 q 349 -159 349 -104 q 207 -330 349 -234 l 183 -304 q 250 -204 250 -250 q 168 -134 250 -155 l 165 -129 z "},"̧":{"ha":0,"x_min":-404,"x_max":-220,"o":"m -404 -129 l -304 0 l -246 0 l -302 -74 q -220 -159 -220 -104 q -362 -330 -220 -234 l -386 -304 q -319 -204 -319 -250 q -401 -134 -319 -155 l -404 -129 z "},"˛":{"ha":570,"x_min":149,"x_max":440,"o":"m 395 0 q 298 -40 334 0 q 261 -140 261 -80 q 299 -238 261 -203 q 407 -272 338 -272 q 437 -271 417 -272 l 440 -297 q 298 -332 345 -332 q 189 -293 229 -332 q 149 -194 149 -254 q 275 0 149 -83 l 330 7 l 395 0 z "},"̨":{"ha":0,"x_min":-420,"x_max":-129,"o":"m -174 0 q -271 -40 -235 0 q -308 -140 -308 -80 q -270 -238 -308 -203 q -162 -272 -231 -272 q -132 -271 -152 -272 l -129 -297 q -271 -332 -224 -332 q -380 -293 -340 -332 q -420 -194 -420 -254 q -294 0 -420 -83 l -239 7 l -174 0 z "},"̦":{"ha":0,"x_min":-368,"x_max":-208,"o":"m -368 -304 q -302 -201 -302 -251 q -353 -127 -302 -156 q -333 -78 -353 -96 q -285 -59 -313 -59 q -230 -83 -251 -59 q -208 -144 -208 -107 q -344 -330 -208 -242 l -368 -304 z "},"̒":{"ha":0,"x_min":-361,"x_max":-202,"o":"m -202 957 q -267 854 -267 904 q -217 780 -267 809 q -237 731 -217 749 q -285 712 -256 712 q -340 736 -319 712 q -361 797 -361 760 q -226 983 -361 895 l -202 957 z "},",":{"ha":355,"x_min":62,"x_max":260,"o":"m 62 -189 q 158 -35 158 -111 q 89 71 158 31 q 112 132 89 109 q 171 155 134 155 q 236 124 211 155 q 260 45 260 93 q 217 -93 260 -28 q 87 -219 174 -158 l 62 -189 z "},";":{"ha":355,"x_min":96,"x_max":294,"o":"m 96 -189 q 192 -35 192 -111 q 123 71 192 31 q 145 132 123 109 q 205 155 168 155 q 270 124 245 155 q 294 45 294 93 q 251 -93 294 -28 q 121 -219 208 -158 l 96 -189 m 210 625 q 268 603 245 625 q 291 545 291 581 q 268 486 291 509 q 210 463 245 463 q 151 486 173 463 q 128 545 128 509 q 151 603 128 581 q 210 625 173 625 z "},":":{"ha":355,"x_min":128,"x_max":291,"o":"m 210 142 q 268 120 245 142 q 291 62 291 98 q 268 4 291 26 q 210 -19 245 -19 q 151 4 173 -19 q 128 62 128 26 q 151 120 128 98 q 210 142 173 142 m 210 625 q 268 603 245 625 q 291 545 291 581 q 268 486 291 509 q 210 463 245 463 q 151 486 173 463 q 128 545 128 509 q 151 603 128 581 q 210 625 173 625 z "},".":{"ha":355,"x_min":100,"x_max":262,"o":"m 182 142 q 240 120 217 142 q 262 62 262 98 q 240 4 262 26 q 182 -19 217 -19 q 122 4 144 -19 q 100 62 100 26 q 122 120 100 98 q 182 142 144 142 z "},"…":{"ha":1002,"x_min":100,"x_max":930,"o":"m 182 142 q 240 120 217 142 q 262 62 262 98 q 240 4 262 26 q 182 -19 217 -19 q 122 4 144 -19 q 100 62 100 26 q 122 120 100 98 q 182 142 144 142 m 515 142 q 573 120 551 142 q 596 62 596 98 q 573 4 596 26 q 515 -19 551 -19 q 456 4 478 -19 q 433 62 433 26 q 456 120 433 98 q 515 142 478 142 m 849 142 q 907 120 884 142 q 930 62 930 98 q 907 4 930 26 q 849 -19 884 -19 q 789 4 812 -19 q 767 62 767 26 q 789 120 767 98 q 849 142 812 142 z "},"-":{"ha":499,"x_min":61,"x_max":438,"o":"m 61 381 l 438 381 l 438 293 l 61 293 l 61 381 z "},"!":{"ha":382,"x_min":155,"x_max":321,"o":"m 216 269 l 163 918 l 315 924 l 321 919 l 258 271 l 216 269 m 237 142 q 295 120 273 142 q 318 62 318 98 q 295 4 318 26 q 237 -19 273 -19 q 178 4 200 -19 q 155 62 155 26 q 178 120 155 98 q 237 142 200 142 z "},"¡":{"ha":355,"x_min":64,"x_max":230,"o":"m 169 357 l 222 -299 l 70 -306 l 64 -300 l 127 355 l 169 357 m 148 483 q 90 505 113 483 q 67 563 67 527 q 90 622 67 599 q 148 644 113 644 q 208 622 185 644 q 230 563 230 599 q 208 505 230 527 q 148 483 185 483 z "},"?":{"ha":604,"x_min":95,"x_max":556,"o":"m 307 142 q 365 121 342 142 q 387 62 387 99 q 365 3 387 26 q 307 -19 342 -19 q 247 3 269 -19 q 224 62 224 26 q 247 121 224 99 q 307 142 269 142 m 309 263 q 235 346 269 299 q 200 413 200 392 q 210 452 200 432 q 236 492 220 471 q 272 533 252 512 q 314 575 292 553 q 359 621 337 597 q 398 667 381 644 q 426 713 416 690 q 437 760 437 736 q 398 852 437 818 q 296 886 360 886 q 206 867 251 886 l 161 711 l 135 707 l 95 897 q 312 941 209 941 q 490 891 425 941 q 556 747 556 841 q 544 679 556 710 q 513 619 532 647 q 470 567 494 591 q 422 519 446 542 q 381 480 401 499 q 347 443 362 461 q 323 404 332 424 q 314 363 314 384 q 339 282 314 326 l 309 263 z "},"¿":{"ha":597,"x_min":47,"x_max":509,"o":"m 297 483 q 239 505 262 483 q 216 563 216 526 q 239 622 216 600 q 297 644 262 644 q 357 622 334 644 q 379 563 379 600 q 357 505 379 526 q 297 483 334 483 m 294 362 q 369 280 334 326 q 404 212 404 233 q 394 174 404 193 q 368 134 384 154 q 332 93 352 113 q 290 50 311 72 q 244 5 267 28 q 205 -42 222 -18 q 177 -88 188 -65 q 167 -135 167 -111 q 205 -227 167 -193 q 308 -260 243 -260 q 397 -241 353 -260 l 442 -86 l 469 -82 l 509 -272 q 292 -316 395 -316 q 113 -266 179 -316 q 47 -121 47 -216 q 59 -53 47 -85 q 91 6 71 -22 q 134 59 110 34 q 182 106 157 83 q 222 145 203 126 q 257 183 241 164 q 281 221 272 201 q 290 262 290 241 q 264 343 290 299 l 294 362 z "},"‘":{"ha":288,"x_min":54,"x_max":237,"o":"m 237 1000 q 152 853 152 925 q 218 752 152 790 q 196 694 218 715 q 140 672 174 672 q 78 702 101 672 q 54 776 54 731 q 94 908 54 846 q 212 1028 133 970 l 237 1000 z "},"’":{"ha":288,"x_min":51,"x_max":233,"o":"m 51 694 q 136 841 136 769 q 70 942 136 904 q 92 1000 70 979 q 148 1022 113 1022 q 210 992 186 1022 q 233 918 233 963 q 194 786 233 848 q 75 666 155 724 l 51 694 z "},"“":{"ha":505,"x_min":48,"x_max":460,"o":"m 231 1000 q 146 853 146 925 q 212 752 146 790 q 190 694 212 715 q 134 672 168 672 q 72 702 95 672 q 48 776 48 731 q 87 908 48 846 q 206 1028 127 970 l 231 1000 m 460 1000 q 376 853 376 925 q 441 752 376 790 q 420 694 441 715 q 363 672 398 672 q 301 702 325 672 q 278 776 278 731 q 317 908 278 846 q 436 1028 357 970 l 460 1000 z "},"”":{"ha":505,"x_min":45,"x_max":457,"o":"m 45 694 q 130 841 130 769 q 64 942 130 904 q 85 1000 64 979 q 142 1022 107 1022 q 204 992 180 1022 q 227 918 227 963 q 188 786 227 848 q 69 666 149 724 l 45 694 m 275 694 q 359 841 359 769 q 294 942 359 904 q 315 1000 294 979 q 372 1022 337 1022 q 434 992 410 1022 q 457 918 457 963 q 418 786 457 848 q 299 666 378 724 l 275 694 z "},"‚":{"ha":308,"x_min":45,"x_max":227,"o":"m 45 -172 q 130 -26 130 -98 q 64 75 130 37 q 85 134 64 112 q 142 155 107 155 q 204 126 180 155 q 227 52 227 96 q 188 -80 227 -18 q 69 -201 149 -142 l 45 -172 z "},"„":{"ha":532,"x_min":38,"x_max":450,"o":"m 38 -172 q 123 -26 123 -98 q 57 75 123 37 q 79 134 57 112 q 135 155 100 155 q 197 126 174 155 q 220 52 220 96 q 181 -80 220 -18 q 62 -201 142 -142 l 38 -172 m 268 -172 q 353 -26 353 -98 q 287 75 353 37 q 309 134 287 112 q 365 155 330 155 q 427 126 404 155 q 450 52 450 96 q 411 -80 450 -18 q 292 -201 372 -142 l 268 -172 z "},"‹":{"ha":426,"x_min":61,"x_max":345,"o":"m 312 48 q 64 302 186 199 l 61 327 q 312 581 186 430 l 345 564 q 199 318 283 442 q 345 65 283 190 l 312 48 z "},"›":{"ha":426,"x_min":81,"x_max":365,"o":"m 114 581 q 362 327 240 430 l 365 302 q 114 48 239 199 l 81 65 q 227 311 142 187 q 81 564 142 439 l 114 581 z "},"«":{"ha":711,"x_min":61,"x_max":629,"o":"m 312 48 q 64 302 186 199 l 61 327 q 312 581 186 430 l 345 564 q 199 318 283 442 q 345 65 283 190 l 312 48 m 597 48 q 349 302 471 199 l 346 327 q 597 581 471 430 l 629 564 q 484 318 568 442 q 629 65 568 190 l 597 48 z "},"»":{"ha":711,"x_min":81,"x_max":650,"o":"m 114 581 q 362 327 240 430 l 365 302 q 114 48 239 199 l 81 65 q 227 311 142 187 q 81 564 142 439 l 114 581 m 399 581 q 647 327 525 430 l 650 302 q 399 48 524 199 l 366 65 q 512 311 427 187 q 366 564 427 439 l 399 581 z "},"/":{"ha":559,"x_min":75,"x_max":498,"o":"m 75 -153 l 417 967 l 498 967 l 156 -153 l 75 -153 z "},"|":{"ha":483,"x_min":203,"x_max":279,"o":"m 279 1034 l 279 -345 l 203 -345 l 203 1034 l 279 1034 z "},"–":{"ha":694,"x_min":47,"x_max":647,"o":"m 47 375 l 647 375 l 647 299 l 47 299 l 47 375 z "},"—":{"ha":1389,"x_min":47,"x_max":1341,"o":"m 47 375 l 1341 375 l 1341 299 l 47 299 l 47 375 z "},"―":{"ha":1426,"x_min":0,"x_max":1379,"o":"m 0 375 l 1379 375 l 1379 299 l 0 299 l 0 375 z "},"•":{"ha":435,"x_min":34,"x_max":334,"o":"m 185 644 q 292 603 250 644 q 334 496 334 562 q 292 389 334 431 q 185 347 250 347 q 75 389 117 347 q 34 496 34 431 q 75 603 34 562 q 185 644 117 644 z "},"·":{"ha":355,"x_min":92,"x_max":264,"o":"m 178 424 q 240 400 216 424 q 264 339 264 377 q 240 277 264 301 q 178 253 216 253 q 115 277 139 253 q 92 339 92 301 q 115 400 92 377 q 178 424 139 424 z "},"(":{"ha":512,"x_min":109,"x_max":444,"o":"m 415 -256 q 109 404 109 4 q 415 1065 109 806 l 444 1040 q 228 406 228 799 q 444 -230 228 11 l 415 -256 z "},")":{"ha":512,"x_min":68,"x_max":404,"o":"m 97 1065 q 404 406 404 806 q 97 -256 404 4 l 68 -230 q 284 404 284 11 q 68 1040 284 799 l 97 1065 z "},"[":{"ha":479,"x_min":149,"x_max":418,"o":"m 250 -174 l 417 -212 l 418 -241 l 149 -241 l 149 1050 l 417 1050 l 418 1021 l 250 983 l 250 -174 z "},"]":{"ha":479,"x_min":61,"x_max":330,"o":"m 230 983 l 62 1021 l 61 1050 l 330 1050 l 330 -241 l 62 -241 l 61 -212 l 230 -174 l 230 983 z "},"{":{"ha":488,"x_min":54,"x_max":410,"o":"m 54 416 q 143 455 115 427 q 172 561 172 482 l 172 863 q 222 1012 172 966 q 409 1057 272 1058 l 410 1026 q 337 1002 363 1016 q 299 968 311 988 q 286 920 288 948 q 283 854 283 892 l 283 629 q 256 477 283 526 q 159 407 229 429 l 159 403 q 256 332 229 381 q 283 181 283 283 l 283 -44 q 286 -111 283 -83 q 299 -158 288 -138 q 337 -192 311 -178 q 409 -216 363 -206 l 410 -248 q 222 -202 272 -248 q 172 -54 172 -156 l 172 249 q 143 355 172 328 q 56 393 115 382 l 54 416 z "},"}":{"ha":488,"x_min":78,"x_max":434,"o":"m 433 393 q 345 355 374 382 q 317 249 317 328 l 317 -54 q 267 -202 317 -156 q 79 -248 216 -248 l 78 -216 q 151 -192 125 -206 q 189 -158 177 -178 q 203 -111 201 -138 q 205 -44 205 -83 l 205 181 q 232 332 205 283 q 330 403 259 381 l 330 407 q 232 477 259 429 q 205 629 205 526 l 205 854 q 203 920 205 892 q 189 968 201 948 q 151 1002 177 988 q 79 1026 125 1016 l 78 1057 q 267 1012 216 1058 q 317 863 317 966 l 317 561 q 345 455 317 482 q 434 416 374 427 l 433 393 z "},"*":{"ha":602,"x_min":68,"x_max":547,"o":"m 367 972 l 321 759 l 516 843 l 547 748 l 331 725 l 470 568 l 389 509 l 301 705 l 194 524 l 113 582 l 273 728 l 68 774 l 98 869 l 287 761 l 267 972 l 367 972 z "},"†":{"ha":768,"x_min":47,"x_max":720,"o":"m 454 955 l 422 579 l 720 579 l 720 508 l 422 508 l 445 408 l 412 -321 l 356 -323 l 323 407 l 346 508 l 47 508 l 47 579 l 346 579 l 313 954 l 450 960 l 454 955 z "},"‡":{"ha":836,"x_min":81,"x_max":754,"o":"m 347 -276 l 380 39 l 81 39 l 81 110 l 380 110 l 357 339 l 380 569 l 81 569 l 81 640 l 380 640 l 347 954 l 484 960 l 488 955 l 456 640 l 754 640 l 754 569 l 456 569 l 479 340 l 456 110 l 754 110 l 754 39 l 456 39 l 489 -275 l 351 -281 l 347 -276 z "},"§":{"ha":750,"x_min":34,"x_max":648,"o":"m 191 -155 q 321 -178 263 -178 q 441 -140 399 -178 q 484 -38 484 -102 q 466 20 484 -5 q 418 65 448 45 q 350 103 388 85 q 271 139 311 121 q 185 179 227 158 q 109 224 142 199 q 55 281 75 250 q 34 355 34 313 q 203 571 34 464 q 75 747 75 644 q 156 909 75 853 q 374 965 236 965 q 598 940 477 965 l 603 935 l 563 724 l 536 719 l 492 888 q 361 911 419 911 q 241 874 283 911 q 199 774 199 836 q 217 718 199 742 q 264 673 235 694 q 333 636 294 653 q 412 601 371 618 q 497 562 455 582 q 573 516 540 541 q 628 459 607 491 q 648 385 648 427 q 479 169 648 275 q 607 -10 607 96 q 527 -175 607 -118 q 309 -232 446 -232 q 84 -207 205 -232 l 79 -202 l 119 9 l 146 14 l 191 -155 m 528 340 q 510 397 528 372 q 462 442 492 422 q 395 480 433 463 q 316 516 357 498 q 244 549 280 532 q 155 399 155 473 q 173 343 155 368 q 220 298 191 318 q 288 259 250 277 q 366 224 326 241 q 437 191 402 208 q 528 340 528 266 z "},"¶":{"ha":795,"x_min":14,"x_max":722,"o":"m 602 -209 l 481 -216 l 475 -210 l 515 890 l 454 892 l 435 382 q 383 379 406 379 q 111 458 208 379 q 14 680 14 536 q 99 882 14 812 q 346 952 184 952 q 444 949 390 952 q 554 947 497 947 q 719 949 637 947 l 722 920 l 610 893 q 592 871 593 889 q 591 822 591 850 q 591 759 591 794 l 602 -209 z "},"Α":{"ha":937,"x_min":-39,"x_max":948,"o":"m 511 964 l 812 134 q 843 71 829 87 q 883 46 857 54 l 947 27 l 948 -2 q 783 0 859 0 q 601 -2 706 0 l 598 27 l 663 46 q 682 57 676 51 q 688 75 688 62 q 681 110 688 88 q 661 169 673 132 l 597 351 l 270 351 l 199 170 q 176 109 184 132 q 168 74 168 87 q 175 57 168 62 q 194 47 181 51 l 257 28 l 258 -2 q 101 0 162 0 q -35 -2 40 0 l -39 27 l 30 48 q 68 73 56 56 q 95 126 80 90 l 441 954 l 511 964 m 295 412 l 574 412 l 442 786 l 295 412 z "},"Β":{"ha":829,"x_min":66,"x_max":774,"o":"m 66 949 q 237 947 154 947 q 338 951 268 948 q 432 954 408 954 q 653 898 578 954 q 728 739 728 843 q 549 512 728 572 q 714 434 654 494 q 774 280 774 374 q 675 70 774 144 q 403 -4 577 -4 q 328 -2 368 -4 q 237 0 288 0 q 69 -2 155 0 l 66 27 l 150 52 q 168 73 167 57 q 169 134 169 100 q 170 208 170 168 l 170 758 q 169 821 170 793 q 168 871 169 848 q 152 894 168 888 l 68 920 l 66 949 m 301 472 l 301 60 q 348 51 321 53 q 397 49 375 49 q 569 104 510 49 q 627 266 627 160 q 568 423 627 372 q 376 474 509 474 q 301 472 338 474 m 301 526 q 387 526 343 526 q 538 574 487 526 q 589 715 589 623 q 537 854 589 812 q 385 897 484 897 q 347 896 368 897 q 301 892 326 895 l 301 526 z "},"Γ":{"ha":764,"x_min":66,"x_max":720,"o":"m 302 208 q 304 77 302 128 q 321 56 304 60 l 415 27 l 416 -2 q 237 0 318 0 q 69 -2 157 0 l 66 27 l 150 52 q 168 73 168 58 q 170 208 170 128 l 170 758 q 169 821 170 793 q 168 871 169 848 q 152 894 168 888 l 68 920 l 66 949 q 235 947 154 947 l 394 947 q 715 949 561 947 l 720 944 l 673 695 l 646 690 l 594 886 l 302 886 l 302 208 z "},"Δ":{"ha":911,"x_min":39,"x_max":842,"o":"m 842 -2 q 645 0 731 0 l 220 0 q 42 -2 143 0 l 39 27 l 428 954 l 497 969 l 839 27 l 842 -2 m 430 786 l 159 101 l 672 101 l 430 786 z "},"Ε":{"ha":806,"x_min":66,"x_max":743,"o":"m 235 947 l 399 947 q 720 949 551 947 l 724 944 l 685 734 l 658 730 l 616 886 l 302 886 l 302 513 l 364 513 q 522 515 435 513 q 545 532 539 515 l 568 624 l 605 625 q 603 485 603 530 q 605 347 603 441 l 568 344 l 544 437 q 523 455 538 454 q 363 456 435 456 l 302 456 l 302 210 q 304 61 302 134 l 629 61 l 712 233 l 743 239 l 728 3 l 723 -2 q 399 0 547 0 l 237 0 q 69 -2 155 0 l 66 27 l 150 52 q 168 73 167 57 q 169 134 169 100 q 170 208 170 168 l 170 758 q 169 821 170 793 q 168 871 169 848 q 152 894 168 888 l 68 920 l 66 949 q 235 947 154 947 z "},"Ζ":{"ha":802,"x_min":46,"x_max":751,"o":"m 49 -2 l 46 27 l 569 886 l 169 886 l 119 724 l 92 719 l 56 944 l 61 949 q 382 947 230 947 l 542 947 q 736 949 638 947 l 739 920 l 217 61 l 630 61 l 721 244 l 751 249 l 733 3 l 729 -2 q 390 0 538 0 l 227 0 q 49 -2 132 0 z "},"Η":{"ha":1099,"x_min":66,"x_max":1032,"o":"m 302 469 l 302 208 q 304 74 302 128 q 321 51 304 56 l 397 27 l 399 -2 q 237 0 318 0 q 69 -2 157 0 l 66 27 l 150 52 q 168 73 168 58 q 170 208 170 128 l 170 758 q 168 871 170 826 q 152 894 168 888 l 68 920 l 66 949 q 235 947 154 947 q 395 949 316 947 l 399 920 l 321 897 q 304 876 304 892 q 302 761 302 827 l 302 531 l 796 531 l 796 761 q 795 876 796 827 q 777 897 794 892 l 702 920 l 701 949 q 864 947 783 947 q 1029 949 945 947 l 1032 920 l 947 894 q 930 871 931 888 q 929 758 929 826 l 929 208 q 930 73 929 128 q 949 52 931 58 l 1031 27 l 1032 -2 q 861 0 943 0 q 703 -2 781 0 l 701 27 l 777 51 q 795 74 794 56 q 796 208 796 128 l 796 469 l 302 469 z "},"Θ":{"ha":1116,"x_min":68,"x_max":1049,"o":"m 555 433 q 414 432 487 433 q 391 414 397 431 l 376 350 l 340 348 q 342 486 342 438 q 340 618 342 533 l 376 621 l 391 559 q 412 541 397 541 q 556 539 486 539 q 697 541 625 539 q 720 558 715 541 l 735 618 l 772 621 q 770 486 770 535 q 772 351 770 439 l 735 347 l 719 414 q 699 432 714 431 q 555 433 625 433 m 1049 495 q 916 118 1049 260 q 544 -25 783 -25 q 192 107 317 -25 q 68 464 68 239 q 202 835 68 699 q 573 972 336 972 q 925 844 801 972 q 1049 495 1049 716 m 214 486 q 303 146 214 264 q 568 28 393 28 q 822 136 740 28 q 903 472 903 243 q 817 803 903 687 q 549 918 730 918 q 293 811 373 918 q 214 486 214 704 z "},"Ι":{"ha":472,"x_min":66,"x_max":406,"o":"m 302 208 q 303 134 302 168 q 304 74 303 101 q 328 51 304 57 l 404 27 l 406 -2 q 237 0 318 0 q 69 -2 155 0 l 66 27 l 150 52 q 168 73 167 57 q 169 134 169 100 q 170 208 170 168 l 170 758 q 169 821 170 793 q 168 871 169 848 q 152 894 168 888 l 68 920 l 66 949 q 235 947 154 947 q 403 949 316 947 l 406 920 l 321 895 q 304 874 305 891 q 303 822 303 850 q 302 761 302 794 l 302 208 z "},"Κ":{"ha":916,"x_min":66,"x_max":909,"o":"m 302 761 l 302 208 q 303 134 302 168 q 304 74 303 101 q 321 51 304 56 l 397 27 l 399 -2 q 237 0 318 0 q 69 -2 155 0 l 66 27 l 150 52 q 168 73 168 58 q 169 134 169 100 q 170 208 170 168 l 170 758 q 169 821 170 793 q 168 871 169 848 q 152 894 168 888 l 68 920 l 66 949 q 235 947 154 947 q 395 949 315 947 l 399 920 l 321 897 q 304 876 305 892 q 303 823 303 851 q 302 761 302 794 m 320 480 l 593 785 q 645 845 625 821 q 665 885 665 870 q 646 903 665 899 l 591 918 l 589 949 q 739 947 656 947 q 888 949 819 947 l 891 920 l 823 899 q 769 867 791 888 q 720 818 746 846 l 449 519 l 758 113 q 796 71 777 87 q 846 46 815 55 l 907 27 l 909 -2 q 764 0 852 0 q 718 0 741 0 q 670 -1 694 -1 q 545 182 646 47 l 320 480 z "},"Λ":{"ha":932,"x_min":-37,"x_max":942,"o":"m 441 786 l 201 170 q 179 109 187 132 q 171 74 171 87 q 177 57 171 62 q 197 47 184 51 l 260 28 l 261 -2 q 102 0 165 0 q -34 -2 41 0 l -37 27 l 31 48 q 69 73 57 56 q 96 126 81 90 l 439 954 l 507 972 l 807 134 q 838 71 824 87 q 878 46 852 54 l 941 27 l 942 -2 q 778 0 854 0 q 595 -2 700 0 l 593 27 l 656 46 q 676 57 670 51 q 682 75 682 62 q 675 110 682 88 q 655 169 668 132 l 441 786 z "},"Μ":{"ha":1257,"x_min":50,"x_max":1191,"o":"m 938 949 q 1053 947 1002 947 q 1188 949 1103 947 l 1191 920 l 1105 894 q 1089 871 1090 888 q 1088 758 1088 826 l 1088 208 q 1089 73 1088 128 q 1108 52 1090 58 l 1190 27 l 1191 -2 q 1020 0 1101 0 q 862 -2 940 0 l 859 27 l 937 51 q 954 75 954 56 q 956 208 956 128 l 956 795 l 619 0 l 570 -5 l 231 795 l 231 208 q 233 75 231 128 q 250 51 233 56 l 326 27 l 328 -2 q 193 0 247 0 q 52 -2 140 0 l 50 27 l 133 52 q 151 73 151 58 q 153 208 153 128 l 153 758 q 151 871 153 826 q 135 894 151 888 l 51 920 l 50 949 q 188 947 137 947 q 309 949 246 947 l 624 205 l 938 949 z "},"Ν":{"ha":1040,"x_min":50,"x_max":1001,"o":"m 231 756 l 231 208 q 233 75 231 128 q 250 52 233 56 l 330 28 l 332 -2 q 193 0 247 0 q 52 -2 140 0 l 50 27 l 133 52 q 151 73 151 58 q 153 208 153 128 l 153 758 q 151 871 153 826 q 135 894 151 888 l 51 920 l 50 949 q 188 947 137 947 q 250 949 218 947 l 819 238 l 819 761 q 818 874 819 827 q 800 895 817 890 l 720 918 l 719 949 q 859 947 806 947 q 998 949 913 947 l 1001 920 l 916 894 q 899 871 900 888 q 898 758 898 826 l 898 0 l 841 -5 l 231 756 z "},"Ξ":{"ha":867,"x_min":54,"x_max":813,"o":"m 94 703 l 83 944 l 87 949 q 406 947 254 947 l 459 947 q 781 949 612 947 l 785 944 l 749 707 l 723 703 l 693 842 l 161 842 l 121 707 l 94 703 m 433 434 q 307 433 372 434 q 284 415 289 432 l 269 350 l 232 348 q 234 486 234 438 q 232 618 234 533 l 269 621 l 284 558 q 304 540 289 541 q 434 538 372 538 q 561 540 496 538 q 584 557 578 541 l 600 618 l 635 621 q 633 486 633 535 q 635 351 633 439 l 600 347 l 583 414 q 562 433 578 432 q 433 434 496 434 m 800 245 l 813 3 l 808 -2 q 489 0 642 0 l 379 0 q 58 -2 227 0 l 54 3 l 90 241 l 117 245 l 144 111 l 735 111 l 772 241 l 800 245 z "},"Ο":{"ha":1117,"x_min":68,"x_max":1050,"o":"m 216 486 q 306 148 216 265 q 568 30 395 30 q 820 137 739 30 q 901 472 901 243 q 814 802 901 686 q 549 917 728 917 q 295 810 374 917 q 216 486 216 703 m 1050 495 q 917 118 1050 260 q 544 -25 783 -25 q 192 107 317 -25 q 68 464 68 239 q 202 835 68 699 q 573 972 336 972 q 925 844 801 972 q 1050 495 1050 716 z "},"Π":{"ha":1071,"x_min":66,"x_max":1004,"o":"m 304 74 q 321 51 304 56 l 397 27 l 399 -2 q 237 0 318 0 q 69 -2 157 0 l 66 27 l 150 52 q 168 73 168 58 q 170 208 170 128 l 170 758 q 168 871 170 826 q 152 894 168 888 l 68 920 l 66 949 q 235 947 154 947 l 836 947 q 1002 949 917 947 l 1004 920 l 919 894 q 903 871 903 888 q 901 758 901 826 l 901 208 q 903 73 901 128 q 921 52 903 58 l 1003 27 l 1004 -2 q 833 0 915 0 q 675 -2 753 0 l 673 27 l 749 51 q 767 74 766 56 q 769 208 769 128 l 769 885 l 302 885 l 302 208 q 304 74 302 128 z "},"Ρ":{"ha":808,"x_min":66,"x_max":762,"o":"m 302 458 q 396 450 350 450 q 561 506 505 450 q 618 677 618 562 q 564 842 618 788 q 394 897 510 897 q 302 891 349 897 l 302 458 m 302 208 q 303 135 302 168 q 304 77 303 102 q 321 56 304 61 l 415 27 l 416 -2 q 237 0 318 0 q 69 -2 155 0 l 66 27 l 150 52 q 168 73 168 58 q 169 134 169 100 q 170 208 170 168 l 170 758 q 169 821 170 793 q 168 871 169 848 q 152 894 168 888 l 68 920 l 66 949 q 237 947 154 947 q 344 949 292 947 q 439 952 396 952 q 680 889 598 952 q 762 703 762 827 q 667 476 762 557 q 403 395 573 395 q 302 401 356 395 l 302 208 z "},"Σ":{"ha":846,"x_min":37,"x_max":778,"o":"m 37 27 l 396 468 l 52 920 l 49 949 q 256 947 159 947 l 433 947 q 754 949 585 947 l 759 944 l 718 720 l 691 715 l 649 886 l 239 886 l 522 515 l 186 101 l 664 101 l 747 270 l 778 275 l 760 3 l 755 -2 q 403 0 551 0 l 229 0 q 40 -2 126 0 l 37 27 z "},"Τ":{"ha":852,"x_min":15,"x_max":845,"o":"m 427 0 q 243 -2 344 0 l 240 27 l 340 57 q 358 78 357 62 q 359 210 359 130 l 359 886 l 120 886 l 60 706 l 33 701 l 15 944 l 20 949 q 339 947 186 947 l 520 947 q 841 949 672 947 l 845 944 l 802 706 l 775 701 l 732 886 l 492 886 l 492 210 q 494 78 492 130 q 511 57 494 62 l 612 27 l 613 -2 q 427 0 508 0 z "},"Υ":{"ha":824,"x_min":-31,"x_max":854,"o":"m 453 483 l 610 779 q 638 835 627 812 q 650 873 650 858 q 620 902 650 894 l 559 918 l 557 949 q 707 947 631 947 q 851 949 781 947 l 854 920 l 785 899 q 748 875 761 891 q 721 835 734 859 l 486 416 l 486 210 q 487 136 486 170 q 488 76 487 103 q 511 53 488 59 l 595 27 l 597 -2 q 422 0 502 0 q 246 -2 340 0 l 243 27 l 334 54 q 353 75 351 59 q 354 136 353 102 q 354 210 354 170 l 354 402 l 115 816 q 74 876 90 857 q 32 901 58 894 l -30 920 l -31 949 q 136 947 31 947 q 325 949 227 947 l 328 920 l 264 903 q 243 893 250 899 q 237 877 237 886 q 248 842 237 863 q 274 794 258 821 l 453 483 z "},"Φ":{"ha":1004,"x_min":27,"x_max":978,"o":"m 978 495 q 863 254 978 346 q 566 149 749 162 l 566 72 q 591 48 566 56 l 668 25 l 670 -2 q 505 0 582 0 q 338 -2 425 0 l 336 25 l 419 50 q 439 71 439 56 l 439 147 q 138 243 249 158 q 27 473 27 328 q 138 708 27 618 q 439 812 248 798 l 439 873 q 421 896 439 890 l 337 922 l 336 949 q 502 947 423 947 q 667 949 580 947 l 670 922 l 586 897 q 566 877 566 892 l 566 813 q 869 720 760 804 q 978 495 978 636 m 566 764 l 566 197 q 765 273 695 206 q 834 480 834 340 q 766 676 834 604 q 566 764 699 749 m 172 488 q 245 284 172 356 q 439 199 318 212 l 439 764 q 237 687 303 755 q 172 488 172 618 z "},"Χ":{"ha":913,"x_min":-5,"x_max":928,"o":"m 13 949 q 190 947 87 947 q 376 949 279 947 l 378 920 l 317 903 q 297 893 303 900 q 291 877 291 886 q 304 838 291 860 q 332 794 317 817 l 479 574 l 603 770 q 635 821 613 785 q 658 875 658 857 q 631 902 658 895 l 570 918 l 569 949 q 724 947 643 947 q 873 949 804 947 l 876 920 l 807 899 q 765 874 783 891 q 722 818 748 857 l 519 515 l 783 123 q 828 64 814 77 q 865 45 843 52 l 927 27 l 928 -2 q 760 0 855 0 q 565 -2 671 0 l 562 27 l 623 43 q 644 54 637 47 q 650 71 650 60 q 637 109 650 87 q 608 153 624 130 l 425 427 l 268 177 q 232 118 248 146 q 215 72 215 90 q 221 55 215 62 q 241 45 227 48 l 301 28 l 302 -2 q 147 0 229 0 q -1 -2 75 0 l -5 27 l 64 48 q 105 73 90 56 q 144 121 121 89 l 386 484 l 152 833 q 116 880 130 866 q 76 901 102 894 l 14 920 l 13 949 z "},"Ψ":{"ha":1158,"x_min":17,"x_max":1141,"o":"m 514 342 q 377 355 436 345 q 273 384 317 365 q 200 434 229 404 q 153 509 170 465 q 128 613 136 553 q 121 751 121 673 q 120 815 121 782 q 119 871 120 848 q 102 894 119 888 l 20 920 l 17 949 q 181 947 104 947 q 252 948 216 947 q 250 853 251 907 q 249 747 249 800 q 253 622 249 675 q 268 531 256 569 q 297 468 279 493 q 345 427 315 442 q 416 406 375 412 q 514 397 458 399 l 514 758 q 514 821 514 793 q 513 873 513 848 q 496 897 512 892 l 420 920 l 418 949 q 578 947 498 947 q 737 949 656 947 l 740 920 l 663 898 q 646 878 647 894 q 644 822 645 850 q 644 761 644 794 l 644 397 q 780 414 728 399 q 861 467 833 429 q 900 572 890 505 q 909 747 909 640 q 908 853 909 800 q 906 948 907 907 q 977 947 941 947 q 1138 949 1053 947 l 1141 920 l 1055 894 q 1039 871 1040 888 q 1038 815 1038 848 q 1038 751 1038 782 q 1019 557 1038 633 q 956 434 1001 481 q 834 368 910 388 q 644 343 759 347 l 644 208 q 644 136 644 168 q 646 77 645 104 q 669 54 646 60 l 753 27 l 754 -2 q 581 0 659 0 q 407 -2 499 0 l 404 27 l 494 55 q 513 76 511 60 q 514 135 513 103 q 514 208 514 168 l 514 342 z "},"Ω":{"ha":1103,"x_min":49,"x_max":1055,"o":"m 455 0 q 78 -2 275 0 l 74 3 l 49 259 l 79 264 l 161 101 l 366 101 l 366 106 q 112 590 112 365 q 241 866 112 760 q 559 972 370 972 q 869 869 744 972 q 994 601 994 767 q 738 106 994 377 l 738 101 l 941 101 l 1025 259 l 1055 264 l 1031 3 l 1027 -2 q 650 0 829 0 l 644 87 q 839 569 839 328 q 764 823 839 728 q 547 918 688 918 q 338 826 410 918 q 267 576 267 734 q 460 87 267 326 l 455 0 z "},"Ά":{"ha":937,"x_min":-39,"x_max":948,"o":"m 511 964 l 812 134 q 843 71 829 87 q 883 46 857 54 l 947 27 l 948 -2 q 783 0 859 0 q 601 -2 706 0 l 598 27 l 663 46 q 682 57 676 51 q 688 75 688 62 q 681 110 688 88 q 661 169 673 132 l 597 351 l 270 351 l 199 170 q 176 109 184 132 q 168 74 168 87 q 175 57 168 62 q 194 47 181 51 l 257 28 l 258 -2 q 101 0 162 0 q -35 -2 40 0 l -39 27 l 30 48 q 68 73 56 56 q 95 126 80 90 l 441 954 l 511 964 m 295 412 l 574 412 l 442 786 l 295 412 m 170 972 l 309 972 l 160 697 l 109 697 l 170 972 z "},"Έ":{"ha":934,"x_min":-40,"x_max":870,"o":"m 362 947 l 527 947 q 848 949 679 947 l 852 944 l 812 734 l 785 730 l 743 886 l 430 886 l 430 513 l 492 513 q 649 515 562 513 q 672 532 667 515 l 696 624 l 732 625 q 730 485 730 530 q 732 347 730 441 l 696 344 l 671 437 q 650 455 666 454 q 491 456 562 456 l 430 456 l 430 210 q 431 61 430 134 l 757 61 l 840 233 l 870 239 l 855 3 l 850 -2 q 526 0 675 0 l 365 0 q 197 -2 283 0 l 194 27 l 277 52 q 296 73 294 57 q 297 134 296 100 q 297 208 297 168 l 297 758 q 297 821 297 793 q 296 871 296 848 q 279 894 295 888 l 195 920 l 194 949 q 362 947 281 947 m 20 972 l 160 972 l 11 697 l -40 697 l 20 972 z "},"Ή":{"ha":1226,"x_min":-40,"x_max":1160,"o":"m 430 469 l 430 208 q 431 74 430 128 q 449 51 432 56 l 524 27 l 526 -2 q 365 0 446 0 q 197 -2 284 0 l 194 27 l 277 52 q 296 73 295 58 q 297 208 297 128 l 297 758 q 296 871 297 826 q 279 894 295 888 l 195 920 l 194 949 q 362 947 281 947 q 523 949 444 947 l 526 920 l 449 897 q 431 876 432 892 q 430 761 430 827 l 430 531 l 924 531 l 924 761 q 922 876 924 827 q 905 897 922 892 l 829 920 l 828 949 q 991 947 911 947 q 1157 949 1072 947 l 1160 920 l 1074 894 q 1058 871 1059 888 q 1057 758 1057 826 l 1057 208 q 1058 73 1057 128 q 1076 52 1059 58 l 1158 27 l 1160 -2 q 989 0 1070 0 q 831 -2 908 0 l 828 27 l 905 51 q 922 74 922 56 q 924 208 924 128 l 924 469 l 430 469 m 20 972 l 160 972 l 11 697 l -40 697 l 20 972 z "},"Ί":{"ha":600,"x_min":-40,"x_max":533,"o":"m 430 208 q 430 134 430 168 q 431 74 431 101 q 455 51 432 57 l 532 27 l 533 -2 q 365 0 446 0 q 197 -2 283 0 l 194 27 l 277 52 q 296 73 294 57 q 297 134 296 100 q 297 208 297 168 l 297 758 q 297 821 297 793 q 296 871 296 848 q 279 894 295 888 l 195 920 l 194 949 q 362 947 281 947 q 530 949 444 947 l 533 920 l 449 895 q 431 874 433 891 q 430 822 431 850 q 430 761 430 794 l 430 208 m 20 972 l 160 972 l 11 697 l -40 697 l 20 972 z "},"Ϊ":{"ha":460,"x_min":-51,"x_max":451,"o":"m 166 1109 q 145 1052 166 1074 q 90 1031 123 1031 q 37 1051 58 1031 q 17 1103 17 1071 q 38 1160 17 1139 q 94 1180 60 1180 q 146 1161 126 1180 q 166 1109 166 1143 m 451 1109 q 430 1052 451 1074 q 374 1031 408 1031 q 322 1051 342 1031 q 302 1103 302 1071 q 323 1160 302 1139 q 379 1180 345 1180 q 431 1161 411 1180 q 451 1109 451 1143 m -51 949 m 302 208 q 302 134 302 168 q 303 74 302 101 q 327 51 304 57 l 404 27 l 405 -2 q 237 0 317 0 q 68 -2 155 0 l 66 27 l 149 52 q 168 73 166 57 q 169 134 168 100 q 169 208 169 168 l 169 758 q 169 821 169 793 q 168 871 168 848 q 151 894 167 888 l 67 920 l 66 949 q 234 947 153 947 q 402 949 315 947 l 405 920 l 321 895 q 303 874 304 891 q 302 822 302 850 q 302 761 302 794 l 302 208 z "},"Ό":{"ha":1156,"x_min":-26,"x_max":1089,"o":"m 256 486 q 345 148 256 265 q 608 30 435 30 q 859 137 778 30 q 940 472 940 243 q 854 802 940 686 q 588 917 768 917 q 335 810 414 917 q 256 486 256 703 m 1089 495 q 956 118 1089 260 q 583 -25 823 -25 q 232 107 356 -25 q 107 464 107 239 q 241 835 107 699 q 612 972 375 972 q 965 844 840 972 q 1089 495 1089 716 m 34 972 l 174 972 l 24 697 l -26 697 l 34 972 z "},"Ύ":{"ha":1030,"x_min":-54,"x_max":1060,"o":"m 659 483 l 816 779 q 844 835 833 812 q 856 873 856 858 q 826 902 856 894 l 765 918 l 764 949 q 913 947 837 947 q 1057 949 987 947 l 1060 920 l 991 899 q 954 875 967 891 q 927 835 941 859 l 692 416 l 692 210 q 693 136 692 170 q 694 76 693 103 q 718 53 694 59 l 802 27 l 803 -2 q 628 0 708 0 q 452 -2 546 0 l 450 27 l 541 54 q 559 75 557 59 q 560 136 559 102 q 560 210 560 170 l 560 402 l 321 816 q 280 876 296 857 q 238 901 264 894 l 176 920 l 175 949 q 342 947 237 947 q 531 949 433 947 l 534 920 l 470 903 q 450 893 456 899 q 444 877 444 886 q 454 842 444 863 q 480 794 465 821 l 659 483 m 7 972 l 146 972 l -3 697 l -54 697 l 7 972 z "}}}
